<mxfile host="app.diagrams.net" modified="2023-11-12T14:01:30.821Z" agent="Mozilla/5.0 (Macintosh; Intel Mac OS X 10_15_7) AppleWebKit/605.1.15 (KHTML, like Gecko) Version/16.3 Safari/605.1.15" etag="tR0sl0zoaqv9Itdm2rpr" version="22.1.0" type="github">
  <diagram name="第 1 页" id="wZ13EeWJKWFvQt3x4rx6">
    <mxGraphModel dx="1818" dy="751" grid="1" gridSize="10" guides="1" tooltips="1" connect="1" arrows="1" fold="1" page="1" pageScale="1" pageWidth="827" pageHeight="1169" math="0" shadow="0">
      <root>
        <mxCell id="0" />
        <mxCell id="1" parent="0" />
        <mxCell id="Rn8pzBqu3v2TeswD3Hwm-131" value="" style="rounded=0;whiteSpace=wrap;html=1;strokeColor=#d6b656;align=center;verticalAlign=middle;fontFamily=Helvetica;fontSize=12;fillColor=#fff2cc;opacity=60;" parent="1" vertex="1">
          <mxGeometry x="290" y="406" width="180" height="35" as="geometry" />
        </mxCell>
        <mxCell id="Rn8pzBqu3v2TeswD3Hwm-132" value="" style="shape=parallelogram;perimeter=parallelogramPerimeter;whiteSpace=wrap;html=1;fixedSize=1;points=[[0,0,0,0,0],[0,0.25,0,0,0],[0,0.5,0,0,0],[0,0.75,0,0,0],[0.12,1,0,0,2],[0.25,0,0,0,0],[0.25,1,0,0,0],[0.5,0,0,0,0],[0.5,1,0,0,0],[0.75,0,0,0,0],[0.75,1,0,0,0],[1,0,0,0,0],[1,0.25,0,0,0],[1,0.5,0,0,0],[1,0.75,0,0,0],[1,1,0,0,0]];direction=south;flipH=0;container=1;movable=1;resizable=1;rotatable=1;deletable=1;editable=1;locked=0;connectable=1;size=30;fillColor=#fff2cc;strokeColor=#d6b656;" parent="1" vertex="1">
          <mxGeometry x="260.18" y="376" width="29.82" height="65" as="geometry">
            <mxRectangle x="280" y="200" width="50" height="40" as="alternateBounds" />
          </mxGeometry>
        </mxCell>
        <mxCell id="Rn8pzBqu3v2TeswD3Hwm-133" value="" style="endArrow=none;html=1;rounded=0;fontFamily=Helvetica;fontSize=12;fontColor=default;entryX=0.25;entryY=0;entryDx=0;entryDy=0;exitX=0.25;exitY=1;exitDx=0;exitDy=0;dashed=1;" parent="1" source="Rn8pzBqu3v2TeswD3Hwm-131" target="Rn8pzBqu3v2TeswD3Hwm-131" edge="1">
          <mxGeometry width="50" height="50" relative="1" as="geometry">
            <mxPoint x="360" y="596" as="sourcePoint" />
            <mxPoint x="410" y="546" as="targetPoint" />
          </mxGeometry>
        </mxCell>
        <mxCell id="Rn8pzBqu3v2TeswD3Hwm-134" value="" style="endArrow=none;html=1;rounded=0;fontFamily=Helvetica;fontSize=12;fontColor=default;entryX=0.5;entryY=0;entryDx=0;entryDy=0;exitX=0.5;exitY=1;exitDx=0;exitDy=0;dashed=1;" parent="1" source="Rn8pzBqu3v2TeswD3Hwm-131" target="Rn8pzBqu3v2TeswD3Hwm-131" edge="1">
          <mxGeometry width="50" height="50" relative="1" as="geometry">
            <mxPoint x="345" y="451" as="sourcePoint" />
            <mxPoint x="345" y="416" as="targetPoint" />
          </mxGeometry>
        </mxCell>
        <mxCell id="Rn8pzBqu3v2TeswD3Hwm-135" value="" style="endArrow=none;html=1;rounded=0;fontFamily=Helvetica;fontSize=12;fontColor=default;entryX=0.75;entryY=0;entryDx=0;entryDy=0;exitX=0.75;exitY=1;exitDx=0;exitDy=0;dashed=1;" parent="1" source="Rn8pzBqu3v2TeswD3Hwm-131" target="Rn8pzBqu3v2TeswD3Hwm-131" edge="1">
          <mxGeometry width="50" height="50" relative="1" as="geometry">
            <mxPoint x="390" y="451" as="sourcePoint" />
            <mxPoint x="390" y="416" as="targetPoint" />
          </mxGeometry>
        </mxCell>
        <mxCell id="Rn8pzBqu3v2TeswD3Hwm-136" value="" style="rounded=0;whiteSpace=wrap;html=1;strokeColor=#6c8ebf;align=center;verticalAlign=middle;fontFamily=Helvetica;fontSize=12;fillColor=#dae8fc;opacity=60;" parent="1" vertex="1">
          <mxGeometry x="290" y="441" width="180" height="35" as="geometry" />
        </mxCell>
        <mxCell id="Rn8pzBqu3v2TeswD3Hwm-137" value="" style="shape=parallelogram;perimeter=parallelogramPerimeter;whiteSpace=wrap;html=1;fixedSize=1;points=[[0,0,0,0,0],[0,0.25,0,0,0],[0,0.5,0,0,0],[0,0.75,0,0,0],[0.12,1,0,0,2],[0.25,0,0,0,0],[0.25,1,0,0,0],[0.5,0,0,0,0],[0.5,1,0,0,0],[0.75,0,0,0,0],[0.75,1,0,0,0],[1,0,0,0,0],[1,0.25,0,0,0],[1,0.5,0,0,0],[1,0.75,0,0,0],[1,1,0,0,0]];direction=south;flipH=0;container=1;movable=1;resizable=1;rotatable=1;deletable=1;editable=1;locked=0;connectable=1;size=30;fillColor=#dae8fc;strokeColor=#6c8ebf;" parent="1" vertex="1">
          <mxGeometry x="260.18" y="411" width="29.82" height="65" as="geometry">
            <mxRectangle x="280" y="200" width="50" height="40" as="alternateBounds" />
          </mxGeometry>
        </mxCell>
        <mxCell id="Rn8pzBqu3v2TeswD3Hwm-142" value="" style="endArrow=none;html=1;rounded=0;fontFamily=Helvetica;fontSize=12;fontColor=default;entryX=0.25;entryY=0;entryDx=0;entryDy=0;exitX=0.25;exitY=1;exitDx=0;exitDy=0;dashed=1;" parent="1" source="Rn8pzBqu3v2TeswD3Hwm-136" target="Rn8pzBqu3v2TeswD3Hwm-136" edge="1">
          <mxGeometry width="50" height="50" relative="1" as="geometry">
            <mxPoint x="290" y="616" as="sourcePoint" />
            <mxPoint x="340" y="566" as="targetPoint" />
          </mxGeometry>
        </mxCell>
        <mxCell id="Rn8pzBqu3v2TeswD3Hwm-143" value="" style="endArrow=none;html=1;rounded=0;fontFamily=Helvetica;fontSize=12;fontColor=default;entryX=0.5;entryY=0;entryDx=0;entryDy=0;exitX=0.5;exitY=1;exitDx=0;exitDy=0;dashed=1;" parent="1" source="Rn8pzBqu3v2TeswD3Hwm-136" target="Rn8pzBqu3v2TeswD3Hwm-136" edge="1">
          <mxGeometry width="50" height="50" relative="1" as="geometry">
            <mxPoint x="280" y="616" as="sourcePoint" />
            <mxPoint x="330" y="566" as="targetPoint" />
          </mxGeometry>
        </mxCell>
        <mxCell id="Rn8pzBqu3v2TeswD3Hwm-144" value="" style="endArrow=none;html=1;rounded=0;fontFamily=Helvetica;fontSize=12;fontColor=default;entryX=0.75;entryY=0;entryDx=0;entryDy=0;exitX=0.75;exitY=1;exitDx=0;exitDy=0;dashed=1;" parent="1" source="Rn8pzBqu3v2TeswD3Hwm-136" target="Rn8pzBqu3v2TeswD3Hwm-136" edge="1">
          <mxGeometry width="50" height="50" relative="1" as="geometry">
            <mxPoint x="490" y="646" as="sourcePoint" />
            <mxPoint x="540" y="596" as="targetPoint" />
          </mxGeometry>
        </mxCell>
        <mxCell id="Rn8pzBqu3v2TeswD3Hwm-46" value="" style="endArrow=none;html=1;rounded=0;fontFamily=Helvetica;fontSize=12;fontColor=default;exitX=0.153;exitY=0;exitDx=0;exitDy=0;exitPerimeter=0;entryX=1;entryY=0;entryDx=0;entryDy=0;dashed=1;" parent="1" edge="1">
          <mxGeometry width="50" height="50" relative="1" as="geometry">
            <mxPoint x="349.89754000000016" y="342" as="sourcePoint" />
            <mxPoint x="382" y="372" as="targetPoint" />
          </mxGeometry>
        </mxCell>
        <mxCell id="Rn8pzBqu3v2TeswD3Hwm-47" value="" style="endArrow=none;html=1;rounded=0;fontFamily=Helvetica;fontSize=12;fontColor=default;exitX=0.153;exitY=0;exitDx=0;exitDy=0;exitPerimeter=0;entryX=1;entryY=0;entryDx=0;entryDy=0;dashed=1;" parent="1" edge="1">
          <mxGeometry width="50" height="50" relative="1" as="geometry">
            <mxPoint x="303.89754000000016" y="341" as="sourcePoint" />
            <mxPoint x="336" y="371" as="targetPoint" />
          </mxGeometry>
        </mxCell>
        <mxCell id="Rn8pzBqu3v2TeswD3Hwm-15" value="" style="shape=parallelogram;perimeter=parallelogramPerimeter;whiteSpace=wrap;html=1;fixedSize=1;points=[[0,0,0,0,0],[0,0.25,0,0,0],[0,0.5,0,0,0],[0,0.75,0,0,0],[0.12,1,0,0,2],[0.25,0,0,0,0],[0.25,1,0,0,0],[0.5,0,0,0,0],[0.5,1,0,0,0],[0.75,0,0,0,0],[0.75,1,0,0,0],[1,0,0,0,0],[1,0.25,0,0,0],[1,0.5,0,0,0],[1,0.75,0,0,0],[1,1,0,0,0]];direction=south;flipH=0;container=1;movable=1;resizable=1;rotatable=1;deletable=1;editable=1;locked=0;connectable=1;size=30;fillColor=#f8cecc;strokeColor=#b85450;" parent="1" vertex="1">
          <mxGeometry x="260.18" y="341" width="29.82" height="65" as="geometry">
            <mxRectangle x="280" y="200" width="50" height="40" as="alternateBounds" />
          </mxGeometry>
        </mxCell>
        <mxCell id="Rn8pzBqu3v2TeswD3Hwm-16" value="" style="shape=parallelogram;perimeter=parallelogramPerimeter;whiteSpace=wrap;html=1;fixedSize=1;points=[[0,0,0,0,0],[0,0.25,0,0,0],[0,0.5,0,0,0],[0,0.75,0,0,0],[0.12,1,0,0,2],[0.25,0,0,0,0],[0.25,1,0,0,0],[0.5,0,0,0,0],[0.5,1,0,0,0],[0.75,0,0,0,0],[0.75,1,0,0,0],[1,0,0,0,0],[1,0.25,0,0,0],[1,0.5,0,0,0],[1,0.75,0,0,0],[1,1,0,0,0]];direction=west;flipH=0;container=1;movable=1;resizable=1;rotatable=1;deletable=1;editable=1;locked=0;connectable=1;size=30;flipV=1;fillColor=#f8cecc;strokeColor=#b85450;" parent="1" vertex="1">
          <mxGeometry x="260.18" y="341" width="209.82" height="29.82" as="geometry">
            <mxRectangle x="280" y="200" width="50" height="40" as="alternateBounds" />
          </mxGeometry>
        </mxCell>
        <mxCell id="Rn8pzBqu3v2TeswD3Hwm-19" value="" style="rounded=0;whiteSpace=wrap;html=1;strokeColor=#b85450;align=center;verticalAlign=middle;fontFamily=Helvetica;fontSize=12;fillColor=#f8cecc;opacity=60;" parent="1" vertex="1">
          <mxGeometry x="290" y="371" width="180" height="35" as="geometry" />
        </mxCell>
        <mxCell id="Rn8pzBqu3v2TeswD3Hwm-35" value="" style="endArrow=none;html=1;rounded=0;fontFamily=Helvetica;fontSize=12;fontColor=default;exitX=0.25;exitY=0;exitDx=0;exitDy=0;" parent="1" source="Rn8pzBqu3v2TeswD3Hwm-19" target="Rn8pzBqu3v2TeswD3Hwm-16" edge="1">
          <mxGeometry width="50" height="50" relative="1" as="geometry">
            <mxPoint x="130" y="636" as="sourcePoint" />
            <mxPoint x="180" y="446" as="targetPoint" />
          </mxGeometry>
        </mxCell>
        <mxCell id="Rn8pzBqu3v2TeswD3Hwm-48" style="edgeStyle=orthogonalEdgeStyle;rounded=0;orthogonalLoop=1;jettySize=auto;html=1;exitX=0.5;exitY=1;exitDx=0;exitDy=0;fontFamily=Helvetica;fontSize=12;fontColor=default;" parent="1" source="Rn8pzBqu3v2TeswD3Hwm-19" target="Rn8pzBqu3v2TeswD3Hwm-19" edge="1">
          <mxGeometry relative="1" as="geometry" />
        </mxCell>
        <mxCell id="Rn8pzBqu3v2TeswD3Hwm-49" value="" style="endArrow=none;html=1;rounded=0;fontFamily=Helvetica;fontSize=12;fontColor=default;entryX=0.25;entryY=0;entryDx=0;entryDy=0;exitX=0.25;exitY=1;exitDx=0;exitDy=0;dashed=1;" parent="1" source="Rn8pzBqu3v2TeswD3Hwm-19" target="Rn8pzBqu3v2TeswD3Hwm-19" edge="1">
          <mxGeometry width="50" height="50" relative="1" as="geometry">
            <mxPoint x="240" y="576" as="sourcePoint" />
            <mxPoint x="290" y="526" as="targetPoint" />
          </mxGeometry>
        </mxCell>
        <mxCell id="Rn8pzBqu3v2TeswD3Hwm-50" value="" style="endArrow=none;html=1;rounded=0;fontFamily=Helvetica;fontSize=12;fontColor=default;entryX=0.5;entryY=0;entryDx=0;entryDy=0;exitX=0.5;exitY=1;exitDx=0;exitDy=0;dashed=1;" parent="1" source="Rn8pzBqu3v2TeswD3Hwm-19" target="Rn8pzBqu3v2TeswD3Hwm-19" edge="1">
          <mxGeometry width="50" height="50" relative="1" as="geometry">
            <mxPoint x="330" y="556" as="sourcePoint" />
            <mxPoint x="380" y="506" as="targetPoint" />
          </mxGeometry>
        </mxCell>
        <mxCell id="Rn8pzBqu3v2TeswD3Hwm-51" value="" style="endArrow=none;html=1;rounded=0;fontFamily=Helvetica;fontSize=12;fontColor=default;entryX=0.75;entryY=0;entryDx=0;entryDy=0;exitX=0.75;exitY=1;exitDx=0;exitDy=0;dashed=1;" parent="1" source="Rn8pzBqu3v2TeswD3Hwm-19" target="Rn8pzBqu3v2TeswD3Hwm-19" edge="1">
          <mxGeometry width="50" height="50" relative="1" as="geometry">
            <mxPoint x="460" y="516" as="sourcePoint" />
            <mxPoint x="510" y="466" as="targetPoint" />
          </mxGeometry>
        </mxCell>
        <mxCell id="Rn8pzBqu3v2TeswD3Hwm-54" value="" style="endArrow=none;html=1;rounded=0;fontFamily=Helvetica;fontSize=12;fontColor=default;entryX=0.143;entryY=0;entryDx=0;entryDy=0;entryPerimeter=0;exitX=1;exitY=0;exitDx=0;exitDy=0;dashed=1;" parent="1" edge="1">
          <mxGeometry width="50" height="50" relative="1" as="geometry">
            <mxPoint x="426" y="371" as="sourcePoint" />
            <mxPoint x="395.9957400000003" y="341" as="targetPoint" />
          </mxGeometry>
        </mxCell>
        <mxCell id="Rn8pzBqu3v2TeswD3Hwm-55" value="" style="endArrow=none;html=1;rounded=0;fontFamily=Helvetica;fontSize=12;fontColor=default;entryX=0.143;entryY=0;entryDx=0;entryDy=0;entryPerimeter=0;exitX=1;exitY=0;exitDx=0;exitDy=0;dashed=1;" parent="1" edge="1">
          <mxGeometry width="50" height="50" relative="1" as="geometry">
            <mxPoint x="381" y="371" as="sourcePoint" />
            <mxPoint x="350.9957400000003" y="341" as="targetPoint" />
          </mxGeometry>
        </mxCell>
        <mxCell id="Rn8pzBqu3v2TeswD3Hwm-56" value="" style="endArrow=none;html=1;rounded=0;fontFamily=Helvetica;fontSize=12;fontColor=default;entryX=0.143;entryY=0;entryDx=0;entryDy=0;entryPerimeter=0;exitX=1;exitY=0;exitDx=0;exitDy=0;dashed=1;" parent="1" edge="1">
          <mxGeometry width="50" height="50" relative="1" as="geometry">
            <mxPoint x="336" y="371" as="sourcePoint" />
            <mxPoint x="305.9957400000003" y="341" as="targetPoint" />
          </mxGeometry>
        </mxCell>
        <mxCell id="IT8IMpOZwN_9MQMlR_QI-21" value="" style="endArrow=none;html=1;rounded=0;fontFamily=Helvetica;fontSize=12;fontColor=default;exitX=0.25;exitY=0;exitDx=0;exitDy=0;" parent="1" edge="1">
          <mxGeometry width="50" height="50" relative="1" as="geometry">
            <mxPoint x="509.86500000000024" y="371" as="sourcePoint" />
            <mxPoint x="509.80696819085506" y="370.81999999999994" as="targetPoint" />
          </mxGeometry>
        </mxCell>
        <mxCell id="IT8IMpOZwN_9MQMlR_QI-444" value="" style="group" parent="1" vertex="1" connectable="0">
          <mxGeometry x="-25" y="232.97" width="230" height="37.03" as="geometry" />
        </mxCell>
        <mxCell id="IT8IMpOZwN_9MQMlR_QI-445" value="" style="shape=image;verticalLabelPosition=bottom;labelBackgroundColor=default;verticalAlign=top;imageAspect=0;image=data:image/png,iVBORw0KGgoAAAANSUhEUgAAAVUAAACUCAMAAAAUEUq5AAAA8FBMVEX////x8fGcnJzn5+f6+vre3t6Wlpba2trt7e2wsLDV1dX19fXk5OSZmZnb29v5+fn0+fzt9Pne6vPp8ffo6uwAZazJ3ezX5vEAbK9/rdEAaK0AX6jP4e7j7fW70uXJycmqyOC1zuOKioqjw90AcbJSk8NCi797qs9uosunp6eavNmJs9RnnciIsdNAgrlcl8V2dnbCwsJsbGwogLkteLSBgYE4erQAVaPp4t1Ujb94n8dSUlJnZ2dcXFuPm6XG0dexxNI6OjplkcAuLi5smr+3xc+RscqguMtOg7SdxeFDhrRYjLRhn8p8oL95mbeXuNigAUeOAAAgAElEQVR4nO19CXebyLZu2ZKsMTKDBZIMCAwUGCGIA3Ysn9PXeXmJne5OX/3/f3NrAgEChNRx4tPHe604GrYK+Ni15yoAeKM3eqM3Sqh3e/ZGf4/6u6gO8p8NTxrciU4DnvNWA6Z2E6ZRA55mTE3OuxHTxTD77myXoYBqr9dg0HEDnmETwIZNwOic/yCmdpPzBoPz4V7q9NKX6LjvSgZ5IVRPXiGq3QYDDUfDkzwN6z4Ytto/E9XXKKtNUO0Ni5+cFyEZZvXNybA5qjxXd+R/sqz2CoblpL+4GoCb7snNcHAzOu8sFr1/jRa9/vng5rx70z4I1ZlRd+T/VFltct69E81ISELvbwfvz077V6Pb27P3i9tF/+a3wYfu2e3i3fv+9e3NYbJqm3VHbiSrTQB7lbLqPDy4D5hcDML7k3/3+4v+1dWicwWuf+veXt28b529H92ejc5G7zsHoRpt6o7cSOvnZdVQS5leI6r59+Orwdl162qA/r9p907B6f+M3i1uBletm96if3qeQXV41mudnYzOMILlqFpO3ZGbnF1Br4ZaGdOr1AANmDKUkdX+zdni3ekNdl+7eVRP6KDT73UjNXGUC7Lq66VMjVBt/yimRpprxwcooczBTs5TVBc3V+D2eniFDvThutPN0GAw7nbHjxbMfZqn8WJc/WU6UI5pvF6WDThoMNJ4sf9gTZmanPdgdBANup0E1evrs5vT0z6W1UUftDPUa6E/QIFR7tMCdc9rvmR0Msq9DZdlAxaYymk8/EFMw26Dgc4HdVfOaNTLvElk9fy037oe9q6xsJfqVc2x6ibAET6AXaqoX6G1amQ0Rjnl29QH0L24Tk8d4a+u/VKm12etGkF/HKpLPRJrBj0itoJ2GdMrlNUXRNWXoFwz6OGy2n5DFUmWGko1gzbyV3OAcRCWMf13oWpxbqnXzuhwWeWCoCxf89+lVy2wqkuvHO4DcFHElzD9V8kqHwGvLr1yhKxGUVki4L8KVTEC+qpm0CNQhaXm7xWi+nL+qgCB4dYMerhnxcP1K0D11+pVGQKp1BNi1NgHSB0JHpY6Fa9JVtn5tQcNjnYUqooNhKhm0EYaYIS1aRJLiNApcypeE6qR0ICJ0VGoSiHgrJrKVdP8Kh8nJkqEyzLz94o0QDuiKuplZPUC/ZGQUl3W5K2b6lXRUtg7FZrLEqZXhCoX03N9OQ2guXj2CpWDNvVXVSvxelVolN2lV6QBOEtqwMQm3FGoGjP0p1QRUmqqV1XLY+9UKJUlrV4TqlOGap2sqlP6/3GoYmd19vdQxbIqWInXK0B5XcL0mjTAlF5vPaoWTZAepVdNXGFd6ZWDN40CZOuBvZPXall65RXJKj/R9jPJUxp3HyWrHp64pUabUtPKtWyF7J1ic7AkEfCaUL009jNJc+rUHIUqAdSrbgloKqtKYDP/TAnBusT6vSJUxQTVOg2gzan7dRSqMx39KXWFKDWNrRQ7EVDkAbsG2EmwvCK9qjaRVWNCTdpRqLr4APqscvCm1kpyAoaq5gN9Zey4Aa9IVtVLfT+TeUmVbyWqV1f9q1Ow02VBUPXxb7Xq/EpTDSCtbJZTQYMpoR3uMP24Lou/i6pwyexIHZPHBLpVjer71lUPdK6uR50MDQadzr39qdMZPYf39KN708yxdEaLzn7qLtAQD/4z/cXzl/vHOLaLTOPFqPhRepD0VZOjNWSqPFpn9DiZjfYy/TV/Jt8OuplPW9sO9pOzzv/rIVR3NABO4EEcvKVZKy8OCres20B6sAbQlxsmADqKrAInLOYWqmWV23rLzTRAg0aeWr0qT6gdqRXoWUSvp0oDtG/f9z9gkMv0KsTmWmGocrEYFMx3Uw1gbnRm8rCSlgTYHFVhmr78OXpVmcz2M7k2vZ6jrBVJ4AnMbUf/OwXXtVl/PfZ7NWbyiEPBBUWXtRpV5WejKk2c/Uy+S5mOiq1ifPUqy7Aa7k4Ku6msbkyJ5VRIXMEFxdaNalS1eXoHfg6qmuXuZ7KX1I05SlZJbpVnqG42SAnkp25TVFe6xBwJgmr7AFT1Sap1fo6/akTUQ6lFFeo0m3EUqnEWVdzPC/OKtam/6ugKc6Zo+AuLYUA1qt4kSc3+JFnVWXdNHRMHJWq4j0GVi7CN5yiqZNoWCqRNs9auJjPdQVM1OxXBalRXl2md6+egatrrvUxcJNyRF8ehSocg054YbqjkmJpqAF9LMlV0TcxORbAaVWeatnn8HFQ9N9jLxN+pMXlxDKoik1WCqob1s52Ho6kGCCURUteWpsD9Ysq2GlUfpn7Hz9Grm1kTVMWYD4Fg947wAaiAsdQdqYwU1ko01QC2wtNbw1B19AJTNaq2m7Z5UMD02nV1f19Wl0s6uevcRjXgoDHnpPXBqPYST7VNbYuHPU0/33XVNGe1lpnAgwci7KtiyrYS1Tb8PU3FEMBUq3RpEcgx7aFaVFce0XtKHRPShvb3ieAtK/MACZWgSk0MRw3/DCPxoOeYmkYByMgxVH2C6sYrYdolro3Uj7QGTDoJYEm+uIr+NqqOiVFtT8UaJhRu2lEshdoxqLJYleabiC4sTN2m1grdlziLqlls3ipHdWMiDSbcqSz9QABbTqpLvinTHqrVqw8GtiZ8LarIxoSBZwbCMdaKlUMpquRvYeo21asYVer4+8SJ0IvVa7O04ohUqoowNdiKDwJYOK9r/v4Bsvqg4WklTNQaJhRm+qGyjrijUKUBUahIPIuHClO3sayqSfwQElR3egIeSmtj4QwIAQ996sUQwES74NwVaS+qvL4nxNdwh61yKewyKYkHpM/AZ0+dw6M8K41evC+tTZYR8fLVlob9ABxC1aZg0P92EuEPRUVLaE0yD1HMtAcGTPFrm78boCrF9aiGEs4pSR+FnYuTpkm2HcEgi5wVHocqTTQ9aNBHXha+tMLUbeivclBMHH+qTXY6LdyiosXUDkI812DA2rMxYKZXv7Z+P6qa1a7Vq6ESIHuofZR3mGIt6eTbkALpnXcUqqwj2NHRdck2duML3awNNQCPUHUpGBTVJCuQkl9WG+PuILZr6xlLG2DAHKOmkJ4w1ZI+5erTUTJWVublDqpyACDLClHzgrzEYzKBrLo68+xQouKl5eHYPTtuWSwPIA3AoziClGsTL43eogyFZbUxPorbSJGvpYAaKAxYqHilyiKlvaguJ2I9qgJOdiwvlSITOhWmxhIROS5iZRewnNmGQ1VhIcG6K6vCzmIKpAFEpD2onWMRhVosBoRlzVcyjNrIjIkgoBeDAbOFmkJ6wlRL7qVan+RTsT10J0pxQTn6OGk5SwP3Y1Cl8gW80BehR7SBnFauyIYsJWYy3knztwiIpLmI2C3843R5EJ1S7d2qK8C9A1AkXvKaXgQCDOmS0p7CLe1FdT2VazUXVPHh7EgroMpZqZ/NBUkkcgyq7JaY8Qz4tPwlpKgS1bJ7dtK0FNU2bYQjdgtgVBkXCmHox2UtbZrjK0RjsOwDAgwFBDWFdMZUTwHU6mLCdiR+Rpcd2EYBVZxdYlOVu0uE4hhUmeeuT0yg0bYC9S753sUzOo+q7iUFERWD5FNtiDSAsE68NI4qCO6Ooap+JEwcLFZvyXgrx7jDCpiVyxBg8nrXf8hTParoxCLXrEeV/4wuNfquF8I9rA5ZlCcGe1G9+ffit/Iaa5IRMSYakn9y+WKcfG/jGZ1HFXdl6xN8J2QcDd1RSUeyipsraUTBhkzLgcpHEyzxx3clmShvs3GIDC9ppxcCjDRpVOABEqYa0iZchJzNGg2AzhChykUz8z7/BdZFZKpJkpy2NVahev5hcd26apWhqrKcqIaLHCp5zaeoBvhK8/d8iYDz5qTYjQujMZ23GNUwcVGTG0UVgQT02BU+6hWoLnU9Ih6XiW6XwmHAvA0ZrIZqUG0jc3OpBNpDPargwUDuh+cRVIW0wkZW39no6nxnO12qUB1+GPz/3lkLDP593Rl0B2x3DLJDyCebvnu2Hukn6HU8pkzj+EunO14MthtqdDtf/rwff5l+7Q7Gz3PEYT3d448Hi+7X9bj7CWKuxwgP1B3Dr/ib+eMXBz758aAbR4+7+3iEz8+Tpw568fzn/X303FkM7r88d77CQYGRDEk/HHcX+EQHg+R8syyPk24Av3z7ur6/GZexkDeD+P7L0/1j9PQX3kbkPnyiv+12p/jbb+i8rT+fvuDf418v6H/kiINxRgOcnl3fXrXLdrNhAStQrPSGoTtJjTxnYSnKK3QHSZFL+r8NpAe4KdWGSFYVP8nVshoYTYDxE+mzDGNhZXJxUJLfQ04y7dCVkB64M3CfFYrQSruKGfHQHFXLqnr5e6DFD0gf1clqjF0fZa2tiKymCQpavw8VZLHWm7T3tDoT2AMneHYXNMBJL21clbf1ai4Sqdnip1hP5jWAiyxkGOGvzYkMxDn9+UmLzH4xhypJ1gqXs0Bcx+g4XFy2DhMK8pSArSAjYXkIVQ6xiTuNL1sK4KYGVTm2fPXjUg3yEWteoyAdt/KA9FlzCKpuEnOQAhNwNbDSXagn3Af6ANzTRRpBZBeyRcqEDC/M8X/5e+4j4NYh/tHmUgHChDp3SFaxM0Tq35K27S1AYEVRBFY+8gK56I+dTJSifRNFej9l5HmgudFpq8j48mW92gyRyFjVoCqFa52bm3zEZaWBm+SYkD32PD10tAeCqp+IJY2IkBgH6nKSVu8ORRVFiYn8tDMlQGhCUiKUSE96XlZDyHFr5AXJpNysXNK1AEhWieOON3Bxp8yDIhkG3UEOlaii/zn4x846zM005tmRhZjMjQ4xW6Ud8JRUqDk1qGquwGMbGvPZ8xZ3UDVhoIkM1TBJ+3wnU3TpcZAztonzQ/3VtQzKtlyxXW+NxUqLdlFdBxxvrzx0Xs5UAxIVapwHIH3FuA/GN5maIlmapf5g0zei/edOfm+2NJNkARpRndpIVkk4sNP4kpIMpYcaVMlBdRXEanaOCfPcXUIeuYGdaIZqsqURZxEuc4XiRHkb6RyKqq1wZbtO+FAzMUZ6iBMkOQ3QhhEvhN5GsEi5WWOdNSgKIIEe9kxS7Snh7x4MjUwrzVftP3fye5k8KmdxcgS5jkjc3J3Gl5SkUPLvq1FN0ph3QtbKKpPceMjRJz1h2meMKgdZJOdQTWA4sg04PwXmUFRxY0QZqnNJ+Yb+95w1V5BVDkai4usr5KyG35fAtGl4h/QqSd7hfE8KiIzHZuE9AkMOv+j09SoVxGwnhsVJdsCNyL0AxXbPLWkPtagmKfe1lEVV2s5nT952QEprHFtxAZ1wSQef5OeDkENRnely2Rp2dyKTto2Vh3HJySoPI1VyjZU0520UECwden4IVWL28J80oUXSK4nkyrbi/0VtrTiXgEFvZnapS4zU3Fq9pysUqnctMh6UsAbVpDy08rJhk7Zt5FrPyOJ9QgokssomXOJkyraUS0MciqrnKWUBtzMVAVYxrhYUZZWHUNAcbaVNBNwy5/5OQzOEKhG7pQ5A6qLh/EQ70dsClPwnKkfe3ABsHWkOVdVYuco9dfWqdy0yl7KN9GqVhkhKmVqYRzUdb40iv6QHWoFYoPnIZmiwU7Xze3sciqqx0sry8yurDe5knM7COi4nqyJcC/pKmumXEkQe5lqi0SnSq6QAYG5AO90eD9cW0+hXhJr7TA8WuCaYkpdcVn3eCeZmZdxTWKoLVytTgKO2UroLEdg2M4hR9ryNeTreGhpU4wMsswTVmCbTkmOqdr4UcSiqkmuWJd2XMW1gCWRsinOxlQp92fMkx5sYAdISgUznO0KVpPOMWSaLgIFWk3dcYDjPZGIpobEEFu2ZgxlTv1Y80zPvHWLSdtqJUnINFaE6i6tQTSxi9Jj5FE8Pdh5r3WfePnbS8cWJFkU1WXcu2t9z9/RQVGV/Vnb2HqTJjjsVyRL/V/Yr1XYkR1P8ZewFyBeKVZpIHLao2KFQIBNOIB8pzYBzgT77Si5mZUqOCIloi1m31DFWhr66p01v1YWrtSTC0UUUVaCa9sw5WF48dteWFr1OU+CgAtP0rUoEWrSoyU5uFF8onB+KqhCW6i/PJ2E5F/PIaCh32fKTYG+MUJZDx54FKJqOxTsyh09aFCCksJSt/UMCl65l4wJv9Ui+ilQlVHyixHIeiL5yJM29p2dUXbgKZC5q6b5d4dCmrXf6A4732TAOpC9sDcXDAZcUcHiKakxOQ0zEoW3HOQ/kUFRVu3S3BUEhboYacchT0uktZEIlh6a5FgX7+8wO0M21OFLEE09aNKOIXBZpu/EwCllXCTrcevXUhZRFgNqMmNmcByJ99mUlbMGkmYArl8ZYbUctR7crzFVabcJ2no+ZsXe/U1d0bfBQDLjEpHERNsVCRCUidafWcW7wQ1EVYVwZw2D3EZviFWFJ9Lvk647NowmsxzaSuhjgIMyYSj2B6CY+yrasoMAgFZ02CthagU7cdD4yPZK+VLKoqjAQkMqkBVokOG65EkAh7l3LRROm/LTTyYuXN6DzpCCHDrWOgS5CjhXKQIKqDInga+mJh/lq56GongQ7db2U7gQ0h9DhXYuYIXbTNVezQ44PoDL10WSMMWxS4D/32J2eAn1bHkXR43YuhKHZ4yONCJO1NIiYSjlvO7JELhixCgKUrFIlgMBq3418KazoGdouakCBBIpXKFTQI5qUjzykdHwpWRoKYrzmWrJtcSWh8D/5pZsPjQ5FdfitykHBah/pNmSQbVJ2WSYrh2ZSjCbnXaROXeSkBNjv32y0sMcMgJXViOKdunUIUIDbQzCq2MxEoUTCm3znQWDxXNBlBQM9tnJOY0J8hLy+DgopylHltnvp/amhecP88cgIcZFHtDaCDVZ6etUEVe27rYZmpjfcyYdGB6P6R1nZk5K5Qf7bTOdsiCdR0lyGfPCJg1CNRXTRqibjJKpj8HGPGYBIXGaCfdvbwubGRguH3JgPxjKxDfkuGR/NWfiVXbE8WZbWWbGLEXTXgl8eJnDbyfu/G+BhEJGiAbFk81MOqNMVmiPm7FsOVcMNBXsGtvdjmc/GHozqn9W1TOkBBT4rXfxMnGPIfHvPkycbvBUoz8wrskhQRoaVzR9bzu6L4823gjubGj3cLoJn6Pc5z+HblG9x3aCPwqfkPht59ZAQTm4Hj1CsCBO47WbSyDue6bgQLM45S4A4OS5MHKSptCiVRYKqvgpl2wdbX83Lo3Iwql+quxlUvN0n8i1dss4nmNJjLk1hroM2XLcDakwQMEg3uxp13tELNyNE8uX22pcTrYVGJQd05oCgmvefDASY8yXFUi6tsuBCzPprwFegym9R/QrR2eCigjRRIj6S5gpQ5i6ykso8veoAhwqm50ooZITpL7W8Rj8Y1afqjUGABXGuQveecI3cZmZtZqi4aLUOwVonH+gPeOWKOWNgrvSsGWlnHDdvrqVbNHoWLcPkYxAM2OaPdN6rESgh7TOaEJ8CzinvGtyi2h4HXCjxCFVv/jvkIlya1yKMqjpNUSOobkxXg0H51MB01DrWKoI+rtavDBy9Kz6zrY4mYp/AdsFnnXxgPGAfCSlaCqbm2lkPOGMLvYmUoqpHCHAu0yBGCd0400oTE3wpqtioh5/uQGlQiA1k8qo9grIt4Jh47boQWF7kAd32tQfATdPfwq8AS8KDbkOvcjePalQH5zc4lXjIU8PwimNz5SqfXE6VZt+pLLoS2Q4QN0hT4dV8nOA5f056zq3SbYIRmXMlRVWD1Kzsmhxjks4ebvcpBrwIZkjO3Kcg4wflaNvN1O6svDWPAmkOaoENLBddj+diV4uL08PanwCef87mIax+cFIlquN/XV/fnpfvEFJFkoTN45r/6ivW0mRGCDk0uCaS1s+AGEQGzgOYTCzDqo0c9bmcoqrqtAdj15WXJtuLmxa/BJuQZMGdv+BOSMuOulXG7Y6AN5CwBTkUrBBEUIdgtglxg56Z3vjwE8Dzb+U4y3ll7rGyd+Xs+hZ3WYyurlvZx4p0u62qJ46MRq3WqPUJfut9XXvW9PmvJ8zasr+ij0ct/6mXcHXuHtGfQYuO1HqyyodsPU8fB8lXLcQNH1utb49Frsf5c8LUszqFoXphMIzRz9wvf/SenOyXrY49Juf3CbKPW6NF6xts9daPz3+N4rAXxY9xz3+2Z6veqJUeInzujXpfPj3Zfz3NHyuwaA3GmW9aW1R7t//6bXB1Ak76/dzDBkedk3rSpu7wMbS1QPGeyC9thTyV0DG345yjf61x8k6wio8zZA8yNKaP4+wHUDnpQbnIdjHVk98PI6E4RmCdxBcnw9Wf4dB0cseRLTLUUAuTj3uDoekPh+HjzGxHThtaJ9FFqKG4Oft0Rf95iP5oXrTUrIsqEMaj7Dnk9GoLP6Dt4KcxymhCPsJI5YFO5zwzWsUnDWb2ta5KLEiWmmvAs5V8epVSstkkOVZRP4hRJBOHDDkKhTZ7ZUKZtx/jrmBcz5CQ8rZXwI7QuYeK/V3P/sx5Bli763NTjiq3lzluZ/saEpC26ZLd/1kTZUXts8HTGJUCqr60242NY6MtqkkrOWgz8JXPD7+TKmXkpIlnRjotTPHblSKs13pmoGDGWYIQoiPagm3n3I7ZE8AdQMbEaFeq1R+PqmqJYAyxJ0cLZF5Fp06D5wYKsZhjQg5uWSlyub1taWAusXyy55kRRs1E0TJyL7PCNbNIU1ewTHM7DNWNZ6vY8Lou8gBsMYS56GGJUbXlTFmrhH44qvyaAyOyVQ5J2hk7O9QwaoCqGIu5ZtEHrXTr90wTZeroS5dU/XzWpI86wB1eG3RH1Ky0UsdIsOLUNWB9VrpL6w3OCnlUKC6IclkZ7BFwtiBN6lbN/XBUscNyT3KkAhT0Ev+SUQMNwEd5WZ0Zu6uyQQ7VZHssYIRrogMiWfiIL1+/9ICwlqdbrczBGb71UjRPh2SyqrG9QPCxUEjsT3NpepyIQFpNqV3h+eNRRTRWSf0BbqagqgTX6MmhQn518EoHZTnSDKpppVLfEG+ZiznuI1YQBrKh6lrabiuCzo7IvTFbF1FVLCrSxL4KwM2jajyQnnC5duX8i6BKz46LIJxVPlag0RaAeSbPLG6bQyiDqpFktDyPFAdxslbH77WJgVA1rW0SQwlJ1txcyemQDFV5notEnWkOPwWSZhChuiQCXkpW6X9xpLCNIEvoiGcHex5fZvoyqKYLWVY6aXtI14FpEw2IoeNs8yH6jCRSN5lkEdOrwjQXhC3zqOIyDEG1bu+MF0V1BUqfWUPoiOdc6yuhLNWXQTXNIjkaAdhMpE5CJptHsQmre0tLdItUjGq2i4DJ6nZneEIbKy+Vd6KO4lq1uIwxRy+KqgSqb+gRqCYrEQuUQTWtFfoSmd/pHhvKXAG8HQlsb6cVLpqQ7uzsBjoMVT7OKW+zUKj7Qwo1DtRcGXhRvQpqd5c4Qq9qbmnNP4Nq2q9hyyReWCeYyVMZWe5YZKJp4/Q06c7ORmMMVS7OmXe9gOr/zmp65Rm9pKzW0hFPD1d8p8xPy6CaJljXAlkRl6bABaQcuXXMsQLNNMIuH4r6cpvoJesC8tsNGYWel+dp9SbJCf0yVI+wVjL0y5zE7FKqJBUYqLj3eluSwhEfsAO2vAs/pBcFtygwTVcjYipfHawVispf55Vtcin9J6EqRKVNPVlUsXVc6iQJY8uuvl20jKdxuGbJVG8TofAId+OLWcjKUZUKFnJQ3RCR0n+SBuCnpd5vFlVXA3IMvTZSmc4ysNIIlfTv+z5b6WJLUEC4IyUgw72oKnlUX/BpjHuo6VMY9jMVUC0tv2VRNTcAaiLEpsqb6NxWYXxCTP6Kbcgb8baCOBwj3wpTvkMIlw/nXjeqR3hWvFVqJ7KoSjaa4zxUbA7oc7HA5JusVc1q+1qA1/Pk1783exrjiz2JaR+9kAbgWEtpgbKocjFOW9maDYDkFJlWGqt8z/GeMSRGyD304Fc/5XYPvZAGyFQ6s5RbTh3FZP3WjqpImHRnJeLHyS4hWS2ZDVibPY0RvG5ZPQLVqDT7lkPVxxK6cnfalhImZW5JfIx3NyG9sLn2gl/97OA91HRPy71UCMCk0tg7h6qMlSnN/5cycdLMECAKmBzSt21n79NP0ADdMRhgBF+RXq2g3Q0VpMnOhkFbJs9EMqrNl2S/p9wyzWZPuf07GqC9OD29vhoe1mWR0AtFARW0+xwWeb6TL9iiamwkl1SC8TKMXEjfTK/+PQ1Auyx619cnF73eRa/V6mHqdHq9Vg+/vmj18BfoXwu9RH/wX/Qf+jPoEaZWL+ElL9hrxIF5Rl38l/ye/Ih+Ssa4oN+glyM80kVulBb9hLwmP+sNWoSXfniBBxtb3gllSX84oCeD6NPDJ/fkcfKMXvqzkI1GLuFicJE51/Rl4f9FnoPi0kpP7gL/6XboVZDxTjKo9vv9wVUPDPvXmR6D3v4uC9xWMNjPc9LqHs7UK3mFjtY7KdBFpBcaN7ZMQ81/3gwvJtrwZLgMco0XvUGx3aNX8m4xLH60c/zKLovz23fjs2O6LJpOkpfUACDYSYBsNYBseyZyfXHEZExymuIXPj28rtMyoV9trYC3k9rdMokQRQI0h8r2b0momWf1Ys8O3kcv5VmV04E723MRzv+TxVdyvnz6D4hYf6AGOPB5ARHuGyK2X8wXSv8BEesRsVUFHYpqsF0dmY/VfqGs/igNcETdqoIORdWeV6Sdf6Fe/YV5gAo6FFV3XsHzyn2An+xZHYjqarfPndI/wVr9Mg3gxRU8r9xavW4NYJSuHwKvPhP4ulHVqvZpfPmc1XaQf5y/qlStGf2FGuCHxVa/DNVK+ifo1V9mrSrpF9at/vM9q0p65bL6pgEOXcne4CncoAkW501uT7sJU5Oj/UCm4rMtyqiXQ6kE1fGH0yydnZ3up6sGPO+aDPSuyUhX734YUwOeRkxnuaOd7aIKWlnq3fRbe6l3O9rPtDjt7WcanO1n6l0NGuRTDVAAAADISURBVJxSE6bO+wanNPpwsv9opzfZkfZP704TtdLfzwJaiwZMvSZMN02U0s3Jfp7zJufdvm7AtGikS97ojd7oODofZpyDJo7VGzWg25vRaNDqgkEHqbDbQWcAOoPOaDh4U2d/hz5c93+7Pns/eP+hf3Xxfrz4sHiPvLD+2W3d0rI32kO3i/7Von/97no87J+dta6u+9eLwbv+4LSJO/BGFXRzNeh3Fzetd6edq8VN//pscTMY3/Rvm3g9b3QYvanVN3qjN3qV9H+SR4L8BIaLNAAAAABJRU5ErkJggg==;" parent="IT8IMpOZwN_9MQMlR_QI-444" vertex="1">
          <mxGeometry x="-95" width="230" height="34.41331905781585" as="geometry" />
        </mxCell>
        <mxCell id="IT8IMpOZwN_9MQMlR_QI-449" value="" style="rounded=0;whiteSpace=wrap;html=1;strokeColor=#d6b656;align=center;verticalAlign=middle;fontFamily=Helvetica;fontSize=12;fillColor=#fff2cc;opacity=60;container=1;" parent="IT8IMpOZwN_9MQMlR_QI-444" vertex="1">
          <mxGeometry x="-70" y="-6.236680942184154" width="189.82" height="39.646680942184155" as="geometry" />
        </mxCell>
        <mxCell id="IT8IMpOZwN_9MQMlR_QI-454" value="" style="endArrow=none;html=1;rounded=0;fontFamily=Helvetica;fontSize=12;fontColor=default;entryX=0.25;entryY=0;entryDx=0;entryDy=0;exitX=0.25;exitY=1;exitDx=0;exitDy=0;dashed=1;" parent="IT8IMpOZwN_9MQMlR_QI-444" source="IT8IMpOZwN_9MQMlR_QI-449" target="IT8IMpOZwN_9MQMlR_QI-449" edge="1">
          <mxGeometry width="50" height="50" relative="1" as="geometry">
            <mxPoint x="-13" y="-2.969999999999999" as="sourcePoint" />
            <mxPoint x="-13" y="-42.97" as="targetPoint" />
          </mxGeometry>
        </mxCell>
        <mxCell id="IT8IMpOZwN_9MQMlR_QI-455" value="" style="endArrow=none;html=1;rounded=0;fontFamily=Helvetica;fontSize=12;fontColor=default;entryX=0.5;entryY=0;entryDx=0;entryDy=0;exitX=0.5;exitY=1;exitDx=0;exitDy=0;dashed=1;" parent="IT8IMpOZwN_9MQMlR_QI-444" source="IT8IMpOZwN_9MQMlR_QI-449" target="IT8IMpOZwN_9MQMlR_QI-449" edge="1">
          <mxGeometry width="50" height="50" relative="1" as="geometry">
            <mxPoint x="-3" y="7.030000000000001" as="sourcePoint" />
            <mxPoint x="-3" y="-32.97" as="targetPoint" />
          </mxGeometry>
        </mxCell>
        <mxCell id="IT8IMpOZwN_9MQMlR_QI-456" value="" style="endArrow=none;html=1;rounded=0;fontFamily=Helvetica;fontSize=12;fontColor=default;entryX=0.75;entryY=0;entryDx=0;entryDy=0;exitX=0.75;exitY=1;exitDx=0;exitDy=0;dashed=1;" parent="IT8IMpOZwN_9MQMlR_QI-444" source="IT8IMpOZwN_9MQMlR_QI-449" target="IT8IMpOZwN_9MQMlR_QI-449" edge="1">
          <mxGeometry width="50" height="50" relative="1" as="geometry">
            <mxPoint x="7" y="17.03" as="sourcePoint" />
            <mxPoint x="7" y="-22.97" as="targetPoint" />
          </mxGeometry>
        </mxCell>
        <mxCell id="IT8IMpOZwN_9MQMlR_QI-438" value="" style="shape=image;verticalLabelPosition=bottom;labelBackgroundColor=default;verticalAlign=top;imageAspect=0;image=data:image/png,iVBORw0KGgoAAAANSUhEUgAAAVUAAACUCAMAAAAUEUq5AAAA8FBMVEX////x8fGcnJzn5+f6+vre3t6Wlpba2trt7e2wsLDV1dX19fXk5OSZmZnb29v5+fn0+fzt9Pne6vPp8ffo6uwAZazJ3ezX5vEAbK9/rdEAaK0AX6jP4e7j7fW70uXJycmqyOC1zuOKioqjw90AcbJSk8NCi797qs9uosunp6eavNmJs9RnnciIsdNAgrlcl8V2dnbCwsJsbGwogLkteLSBgYE4erQAVaPp4t1Ujb94n8dSUlJnZ2dcXFuPm6XG0dexxNI6OjplkcAuLi5smr+3xc+RscqguMtOg7SdxeFDhrRYjLRhn8p8oL95mbeXuNigAUeOAAAgAElEQVR4nO19CXebyLZu2ZKsMTKDBZIMCAwUGCGIA3Ysn9PXeXmJne5OX/3/f3NrAgEChNRx4tPHe604GrYK+Ni15yoAeKM3eqM3Sqh3e/ZGf4/6u6gO8p8NTxrciU4DnvNWA6Z2E6ZRA55mTE3OuxHTxTD77myXoYBqr9dg0HEDnmETwIZNwOic/yCmdpPzBoPz4V7q9NKX6LjvSgZ5IVRPXiGq3QYDDUfDkzwN6z4Ytto/E9XXKKtNUO0Ni5+cFyEZZvXNybA5qjxXd+R/sqz2CoblpL+4GoCb7snNcHAzOu8sFr1/jRa9/vng5rx70z4I1ZlRd+T/VFltct69E81ISELvbwfvz077V6Pb27P3i9tF/+a3wYfu2e3i3fv+9e3NYbJqm3VHbiSrTQB7lbLqPDy4D5hcDML7k3/3+4v+1dWicwWuf+veXt28b529H92ejc5G7zsHoRpt6o7cSOvnZdVQS5leI6r59+Orwdl162qA/r9p907B6f+M3i1uBletm96if3qeQXV41mudnYzOMILlqFpO3ZGbnF1Br4ZaGdOr1AANmDKUkdX+zdni3ekNdl+7eVRP6KDT73UjNXGUC7Lq66VMjVBt/yimRpprxwcooczBTs5TVBc3V+D2eniFDvThutPN0GAw7nbHjxbMfZqn8WJc/WU6UI5pvF6WDThoMNJ4sf9gTZmanPdgdBANup0E1evrs5vT0z6W1UUftDPUa6E/QIFR7tMCdc9rvmR0Msq9DZdlAxaYymk8/EFMw26Dgc4HdVfOaNTLvElk9fy037oe9q6xsJfqVc2x6ibAET6AXaqoX6G1amQ0Rjnl29QH0L24Tk8d4a+u/VKm12etGkF/HKpLPRJrBj0itoJ2GdMrlNUXRNWXoFwz6OGy2n5DFUmWGko1gzbyV3OAcRCWMf13oWpxbqnXzuhwWeWCoCxf89+lVy2wqkuvHO4DcFHElzD9V8kqHwGvLr1yhKxGUVki4L8KVTEC+qpm0CNQhaXm7xWi+nL+qgCB4dYMerhnxcP1K0D11+pVGQKp1BNi1NgHSB0JHpY6Fa9JVtn5tQcNjnYUqooNhKhm0EYaYIS1aRJLiNApcypeE6qR0ICJ0VGoSiHgrJrKVdP8Kh8nJkqEyzLz94o0QDuiKuplZPUC/ZGQUl3W5K2b6lXRUtg7FZrLEqZXhCoX03N9OQ2guXj2CpWDNvVXVSvxelVolN2lV6QBOEtqwMQm3FGoGjP0p1QRUmqqV1XLY+9UKJUlrV4TqlOGap2sqlP6/3GoYmd19vdQxbIqWInXK0B5XcL0mjTAlF5vPaoWTZAepVdNXGFd6ZWDN40CZOuBvZPXall65RXJKj/R9jPJUxp3HyWrHp64pUabUtPKtWyF7J1ic7AkEfCaUL009jNJc+rUHIUqAdSrbgloKqtKYDP/TAnBusT6vSJUxQTVOg2gzan7dRSqMx39KXWFKDWNrRQ7EVDkAbsG2EmwvCK9qjaRVWNCTdpRqLr4APqscvCm1kpyAoaq5gN9Zey4Aa9IVtVLfT+TeUmVbyWqV1f9q1Ow02VBUPXxb7Xq/EpTDSCtbJZTQYMpoR3uMP24Lou/i6pwyexIHZPHBLpVjer71lUPdK6uR50MDQadzr39qdMZPYf39KN708yxdEaLzn7qLtAQD/4z/cXzl/vHOLaLTOPFqPhRepD0VZOjNWSqPFpn9DiZjfYy/TV/Jt8OuplPW9sO9pOzzv/rIVR3NABO4EEcvKVZKy8OCres20B6sAbQlxsmADqKrAInLOYWqmWV23rLzTRAg0aeWr0qT6gdqRXoWUSvp0oDtG/f9z9gkMv0KsTmWmGocrEYFMx3Uw1gbnRm8rCSlgTYHFVhmr78OXpVmcz2M7k2vZ6jrBVJ4AnMbUf/OwXXtVl/PfZ7NWbyiEPBBUWXtRpV5WejKk2c/Uy+S5mOiq1ifPUqy7Aa7k4Ku6msbkyJ5VRIXMEFxdaNalS1eXoHfg6qmuXuZ7KX1I05SlZJbpVnqG42SAnkp25TVFe6xBwJgmr7AFT1Sap1fo6/akTUQ6lFFeo0m3EUqnEWVdzPC/OKtam/6ugKc6Zo+AuLYUA1qt4kSc3+JFnVWXdNHRMHJWq4j0GVi7CN5yiqZNoWCqRNs9auJjPdQVM1OxXBalRXl2md6+egatrrvUxcJNyRF8ehSocg054YbqjkmJpqAF9LMlV0TcxORbAaVWeatnn8HFQ9N9jLxN+pMXlxDKoik1WCqob1s52Ho6kGCCURUteWpsD9Ysq2GlUfpn7Hz9Grm1kTVMWYD4Fg947wAaiAsdQdqYwU1ko01QC2wtNbw1B19AJTNaq2m7Z5UMD02nV1f19Wl0s6uevcRjXgoDHnpPXBqPYST7VNbYuHPU0/33XVNGe1lpnAgwci7KtiyrYS1Tb8PU3FEMBUq3RpEcgx7aFaVFce0XtKHRPShvb3ieAtK/MACZWgSk0MRw3/DCPxoOeYmkYByMgxVH2C6sYrYdolro3Uj7QGTDoJYEm+uIr+NqqOiVFtT8UaJhRu2lEshdoxqLJYleabiC4sTN2m1grdlziLqlls3ipHdWMiDSbcqSz9QABbTqpLvinTHqrVqw8GtiZ8LarIxoSBZwbCMdaKlUMpquRvYeo21asYVer4+8SJ0IvVa7O04ohUqoowNdiKDwJYOK9r/v4Bsvqg4WklTNQaJhRm+qGyjrijUKUBUahIPIuHClO3sayqSfwQElR3egIeSmtj4QwIAQ996sUQwES74NwVaS+qvL4nxNdwh61yKewyKYkHpM/AZ0+dw6M8K41evC+tTZYR8fLVlob9ABxC1aZg0P92EuEPRUVLaE0yD1HMtAcGTPFrm78boCrF9aiGEs4pSR+FnYuTpkm2HcEgi5wVHocqTTQ9aNBHXha+tMLUbeivclBMHH+qTXY6LdyiosXUDkI812DA2rMxYKZXv7Z+P6qa1a7Vq6ESIHuofZR3mGIt6eTbkALpnXcUqqwj2NHRdck2duML3awNNQCPUHUpGBTVJCuQkl9WG+PuILZr6xlLG2DAHKOmkJ4w1ZI+5erTUTJWVublDqpyACDLClHzgrzEYzKBrLo68+xQouKl5eHYPTtuWSwPIA3AoziClGsTL43eogyFZbUxPorbSJGvpYAaKAxYqHilyiKlvaguJ2I9qgJOdiwvlSITOhWmxhIROS5iZRewnNmGQ1VhIcG6K6vCzmIKpAFEpD2onWMRhVosBoRlzVcyjNrIjIkgoBeDAbOFmkJ6wlRL7qVan+RTsT10J0pxQTn6OGk5SwP3Y1Cl8gW80BehR7SBnFauyIYsJWYy3knztwiIpLmI2C3843R5EJ1S7d2qK8C9A1AkXvKaXgQCDOmS0p7CLe1FdT2VazUXVPHh7EgroMpZqZ/NBUkkcgyq7JaY8Qz4tPwlpKgS1bJ7dtK0FNU2bYQjdgtgVBkXCmHox2UtbZrjK0RjsOwDAgwFBDWFdMZUTwHU6mLCdiR+Rpcd2EYBVZxdYlOVu0uE4hhUmeeuT0yg0bYC9S753sUzOo+q7iUFERWD5FNtiDSAsE68NI4qCO6Ooap+JEwcLFZvyXgrx7jDCpiVyxBg8nrXf8hTParoxCLXrEeV/4wuNfquF8I9rA5ZlCcGe1G9+ffit/Iaa5IRMSYakn9y+WKcfG/jGZ1HFXdl6xN8J2QcDd1RSUeyipsraUTBhkzLgcpHEyzxx3clmShvs3GIDC9ppxcCjDRpVOABEqYa0iZchJzNGg2AzhChykUz8z7/BdZFZKpJkpy2NVahev5hcd26apWhqrKcqIaLHCp5zaeoBvhK8/d8iYDz5qTYjQujMZ23GNUwcVGTG0UVgQT02BU+6hWoLnU9Ih6XiW6XwmHAvA0ZrIZqUG0jc3OpBNpDPargwUDuh+cRVIW0wkZW39no6nxnO12qUB1+GPz/3lkLDP593Rl0B2x3DLJDyCebvnu2Hukn6HU8pkzj+EunO14MthtqdDtf/rwff5l+7Q7Gz3PEYT3d448Hi+7X9bj7CWKuxwgP1B3Dr/ib+eMXBz758aAbR4+7+3iEz8+Tpw568fzn/X303FkM7r88d77CQYGRDEk/HHcX+EQHg+R8syyPk24Av3z7ur6/GZexkDeD+P7L0/1j9PQX3kbkPnyiv+12p/jbb+i8rT+fvuDf418v6H/kiINxRgOcnl3fXrXLdrNhAStQrPSGoTtJjTxnYSnKK3QHSZFL+r8NpAe4KdWGSFYVP8nVshoYTYDxE+mzDGNhZXJxUJLfQ04y7dCVkB64M3CfFYrQSruKGfHQHFXLqnr5e6DFD0gf1clqjF0fZa2tiKymCQpavw8VZLHWm7T3tDoT2AMneHYXNMBJL21clbf1ai4Sqdnip1hP5jWAiyxkGOGvzYkMxDn9+UmLzH4xhypJ1gqXs0Bcx+g4XFy2DhMK8pSArSAjYXkIVQ6xiTuNL1sK4KYGVTm2fPXjUg3yEWteoyAdt/KA9FlzCKpuEnOQAhNwNbDSXagn3Af6ANzTRRpBZBeyRcqEDC/M8X/5e+4j4NYh/tHmUgHChDp3SFaxM0Tq35K27S1AYEVRBFY+8gK56I+dTJSifRNFej9l5HmgudFpq8j48mW92gyRyFjVoCqFa52bm3zEZaWBm+SYkD32PD10tAeCqp+IJY2IkBgH6nKSVu8ORRVFiYn8tDMlQGhCUiKUSE96XlZDyHFr5AXJpNysXNK1AEhWieOON3Bxp8yDIhkG3UEOlaii/zn4x846zM005tmRhZjMjQ4xW6Ud8JRUqDk1qGquwGMbGvPZ8xZ3UDVhoIkM1TBJ+3wnU3TpcZAztonzQ/3VtQzKtlyxXW+NxUqLdlFdBxxvrzx0Xs5UAxIVapwHIH3FuA/GN5maIlmapf5g0zei/edOfm+2NJNkARpRndpIVkk4sNP4kpIMpYcaVMlBdRXEanaOCfPcXUIeuYGdaIZqsqURZxEuc4XiRHkb6RyKqq1wZbtO+FAzMUZ6iBMkOQ3QhhEvhN5GsEi5WWOdNSgKIIEe9kxS7Snh7x4MjUwrzVftP3fye5k8KmdxcgS5jkjc3J3Gl5SkUPLvq1FN0ph3QtbKKpPceMjRJz1h2meMKgdZJOdQTWA4sg04PwXmUFRxY0QZqnNJ+Yb+95w1V5BVDkai4usr5KyG35fAtGl4h/QqSd7hfE8KiIzHZuE9AkMOv+j09SoVxGwnhsVJdsCNyL0AxXbPLWkPtagmKfe1lEVV2s5nT952QEprHFtxAZ1wSQef5OeDkENRnely2Rp2dyKTto2Vh3HJySoPI1VyjZU0520UECwden4IVWL28J80oUXSK4nkyrbi/0VtrTiXgEFvZnapS4zU3Fq9pysUqnctMh6UsAbVpDy08rJhk7Zt5FrPyOJ9QgokssomXOJkyraUS0MciqrnKWUBtzMVAVYxrhYUZZWHUNAcbaVNBNwy5/5OQzOEKhG7pQ5A6qLh/EQ70dsClPwnKkfe3ABsHWkOVdVYuco9dfWqdy0yl7KN9GqVhkhKmVqYRzUdb40iv6QHWoFYoPnIZmiwU7Xze3sciqqx0sry8yurDe5knM7COi4nqyJcC/pKmumXEkQe5lqi0SnSq6QAYG5AO90eD9cW0+hXhJr7TA8WuCaYkpdcVn3eCeZmZdxTWKoLVytTgKO2UroLEdg2M4hR9ryNeTreGhpU4wMsswTVmCbTkmOqdr4UcSiqkmuWJd2XMW1gCWRsinOxlQp92fMkx5sYAdISgUznO0KVpPOMWSaLgIFWk3dcYDjPZGIpobEEFu2ZgxlTv1Y80zPvHWLSdtqJUnINFaE6i6tQTSxi9Jj5FE8Pdh5r3WfePnbS8cWJFkU1WXcu2t9z9/RQVGV/Vnb2HqTJjjsVyRL/V/Yr1XYkR1P8ZewFyBeKVZpIHLao2KFQIBNOIB8pzYBzgT77Si5mZUqOCIloi1m31DFWhr66p01v1YWrtSTC0UUUVaCa9sw5WF48dteWFr1OU+CgAtP0rUoEWrSoyU5uFF8onB+KqhCW6i/PJ2E5F/PIaCh32fKTYG+MUJZDx54FKJqOxTsyh09aFCCksJSt/UMCl65l4wJv9Ui+ilQlVHyixHIeiL5yJM29p2dUXbgKZC5q6b5d4dCmrXf6A4732TAOpC9sDcXDAZcUcHiKakxOQ0zEoW3HOQ/kUFRVu3S3BUEhboYacchT0uktZEIlh6a5FgX7+8wO0M21OFLEE09aNKOIXBZpu/EwCllXCTrcevXUhZRFgNqMmNmcByJ99mUlbMGkmYArl8ZYbUctR7crzFVabcJ2no+ZsXe/U1d0bfBQDLjEpHERNsVCRCUidafWcW7wQ1EVYVwZw2D3EZviFWFJ9Lvk647NowmsxzaSuhjgIMyYSj2B6CY+yrasoMAgFZ02CthagU7cdD4yPZK+VLKoqjAQkMqkBVokOG65EkAh7l3LRROm/LTTyYuXN6DzpCCHDrWOgS5CjhXKQIKqDInga+mJh/lq56GongQ7db2U7gQ0h9DhXYuYIXbTNVezQ44PoDL10WSMMWxS4D/32J2eAn1bHkXR43YuhKHZ4yONCJO1NIiYSjlvO7JELhixCgKUrFIlgMBq3418KazoGdouakCBBIpXKFTQI5qUjzykdHwpWRoKYrzmWrJtcSWh8D/5pZsPjQ5FdfitykHBah/pNmSQbVJ2WSYrh2ZSjCbnXaROXeSkBNjv32y0sMcMgJXViOKdunUIUIDbQzCq2MxEoUTCm3znQWDxXNBlBQM9tnJOY0J8hLy+DgopylHltnvp/amhecP88cgIcZFHtDaCDVZ6etUEVe27rYZmpjfcyYdGB6P6R1nZk5K5Qf7bTOdsiCdR0lyGfPCJg1CNRXTRqibjJKpj8HGPGYBIXGaCfdvbwubGRguH3JgPxjKxDfkuGR/NWfiVXbE8WZbWWbGLEXTXgl8eJnDbyfu/G+BhEJGiAbFk81MOqNMVmiPm7FsOVcMNBXsGtvdjmc/GHozqn9W1TOkBBT4rXfxMnGPIfHvPkycbvBUoz8wrskhQRoaVzR9bzu6L4823gjubGj3cLoJn6Pc5z+HblG9x3aCPwqfkPht59ZAQTm4Hj1CsCBO47WbSyDue6bgQLM45S4A4OS5MHKSptCiVRYKqvgpl2wdbX83Lo3Iwql+quxlUvN0n8i1dss4nmNJjLk1hroM2XLcDakwQMEg3uxp13tELNyNE8uX22pcTrYVGJQd05oCgmvefDASY8yXFUi6tsuBCzPprwFegym9R/QrR2eCigjRRIj6S5gpQ5i6ykso8veoAhwqm50ooZITpL7W8Rj8Y1afqjUGABXGuQveecI3cZmZtZqi4aLUOwVonH+gPeOWKOWNgrvSsGWlnHDdvrqVbNHoWLcPkYxAM2OaPdN6rESgh7TOaEJ8CzinvGtyi2h4HXCjxCFVv/jvkIlya1yKMqjpNUSOobkxXg0H51MB01DrWKoI+rtavDBy9Kz6zrY4mYp/AdsFnnXxgPGAfCSlaCqbm2lkPOGMLvYmUoqpHCHAu0yBGCd0400oTE3wpqtioh5/uQGlQiA1k8qo9grIt4Jh47boQWF7kAd32tQfATdPfwq8AS8KDbkOvcjePalQH5zc4lXjIU8PwimNz5SqfXE6VZt+pLLoS2Q4QN0hT4dV8nOA5f056zq3SbYIRmXMlRVWD1Kzsmhxjks4ebvcpBrwIZkjO3Kcg4wflaNvN1O6svDWPAmkOaoENLBddj+diV4uL08PanwCef87mIax+cFIlquN/XV/fnpfvEFJFkoTN45r/6ivW0mRGCDk0uCaS1s+AGEQGzgOYTCzDqo0c9bmcoqrqtAdj15WXJtuLmxa/BJuQZMGdv+BOSMuOulXG7Y6AN5CwBTkUrBBEUIdgtglxg56Z3vjwE8Dzb+U4y3ll7rGyd+Xs+hZ3WYyurlvZx4p0u62qJ46MRq3WqPUJfut9XXvW9PmvJ8zasr+ij0ct/6mXcHXuHtGfQYuO1HqyyodsPU8fB8lXLcQNH1utb49Frsf5c8LUszqFoXphMIzRz9wvf/SenOyXrY49Juf3CbKPW6NF6xts9daPz3+N4rAXxY9xz3+2Z6veqJUeInzujXpfPj3Zfz3NHyuwaA3GmW9aW1R7t//6bXB1Ak76/dzDBkedk3rSpu7wMbS1QPGeyC9thTyV0DG345yjf61x8k6wio8zZA8yNKaP4+wHUDnpQbnIdjHVk98PI6E4RmCdxBcnw9Wf4dB0cseRLTLUUAuTj3uDoekPh+HjzGxHThtaJ9FFqKG4Oft0Rf95iP5oXrTUrIsqEMaj7Dnk9GoLP6Dt4KcxymhCPsJI5YFO5zwzWsUnDWb2ta5KLEiWmmvAs5V8epVSstkkOVZRP4hRJBOHDDkKhTZ7ZUKZtx/jrmBcz5CQ8rZXwI7QuYeK/V3P/sx5Bli763NTjiq3lzluZ/saEpC26ZLd/1kTZUXts8HTGJUCqr60242NY6MtqkkrOWgz8JXPD7+TKmXkpIlnRjotTPHblSKs13pmoGDGWYIQoiPagm3n3I7ZE8AdQMbEaFeq1R+PqmqJYAyxJ0cLZF5Fp06D5wYKsZhjQg5uWSlyub1taWAusXyy55kRRs1E0TJyL7PCNbNIU1ewTHM7DNWNZ6vY8Lou8gBsMYS56GGJUbXlTFmrhH44qvyaAyOyVQ5J2hk7O9QwaoCqGIu5ZtEHrXTr90wTZeroS5dU/XzWpI86wB1eG3RH1Ky0UsdIsOLUNWB9VrpL6w3OCnlUKC6IclkZ7BFwtiBN6lbN/XBUscNyT3KkAhT0Ev+SUQMNwEd5WZ0Zu6uyQQ7VZHssYIRrogMiWfiIL1+/9ICwlqdbrczBGb71UjRPh2SyqrG9QPCxUEjsT3NpepyIQFpNqV3h+eNRRTRWSf0BbqagqgTX6MmhQn518EoHZTnSDKpppVLfEG+ZiznuI1YQBrKh6lrabiuCzo7IvTFbF1FVLCrSxL4KwM2jajyQnnC5duX8i6BKz46LIJxVPlag0RaAeSbPLG6bQyiDqpFktDyPFAdxslbH77WJgVA1rW0SQwlJ1txcyemQDFV5notEnWkOPwWSZhChuiQCXkpW6X9xpLCNIEvoiGcHex5fZvoyqKYLWVY6aXtI14FpEw2IoeNs8yH6jCRSN5lkEdOrwjQXhC3zqOIyDEG1bu+MF0V1BUqfWUPoiOdc6yuhLNWXQTXNIjkaAdhMpE5CJptHsQmre0tLdItUjGq2i4DJ6nZneEIbKy+Vd6KO4lq1uIwxRy+KqgSqb+gRqCYrEQuUQTWtFfoSmd/pHhvKXAG8HQlsb6cVLpqQ7uzsBjoMVT7OKW+zUKj7Qwo1DtRcGXhRvQpqd5c4Qq9qbmnNP4Nq2q9hyyReWCeYyVMZWe5YZKJp4/Q06c7ORmMMVS7OmXe9gOr/zmp65Rm9pKzW0hFPD1d8p8xPy6CaJljXAlkRl6bABaQcuXXMsQLNNMIuH4r6cpvoJesC8tsNGYWel+dp9SbJCf0yVI+wVjL0y5zE7FKqJBUYqLj3eluSwhEfsAO2vAs/pBcFtygwTVcjYipfHawVispf55Vtcin9J6EqRKVNPVlUsXVc6iQJY8uuvl20jKdxuGbJVG8TofAId+OLWcjKUZUKFnJQ3RCR0n+SBuCnpd5vFlVXA3IMvTZSmc4ysNIIlfTv+z5b6WJLUEC4IyUgw72oKnlUX/BpjHuo6VMY9jMVUC0tv2VRNTcAaiLEpsqb6NxWYXxCTP6Kbcgb8baCOBwj3wpTvkMIlw/nXjeqR3hWvFVqJ7KoSjaa4zxUbA7oc7HA5JusVc1q+1qA1/Pk1783exrjiz2JaR+9kAbgWEtpgbKocjFOW9maDYDkFJlWGqt8z/GeMSRGyD304Fc/5XYPvZAGyFQ6s5RbTh3FZP3WjqpImHRnJeLHyS4hWS2ZDVibPY0RvG5ZPQLVqDT7lkPVxxK6cnfalhImZW5JfIx3NyG9sLn2gl/97OA91HRPy71UCMCk0tg7h6qMlSnN/5cycdLMECAKmBzSt21n79NP0ADdMRhgBF+RXq2g3Q0VpMnOhkFbJs9EMqrNl2S/p9wyzWZPuf07GqC9OD29vhoe1mWR0AtFARW0+xwWeb6TL9iiamwkl1SC8TKMXEjfTK/+PQ1Auyx619cnF73eRa/V6mHqdHq9Vg+/vmj18BfoXwu9RH/wX/Qf+jPoEaZWL+ElL9hrxIF5Rl38l/ye/Ih+Ssa4oN+glyM80kVulBb9hLwmP+sNWoSXfniBBxtb3gllSX84oCeD6NPDJ/fkcfKMXvqzkI1GLuFicJE51/Rl4f9FnoPi0kpP7gL/6XboVZDxTjKo9vv9wVUPDPvXmR6D3v4uC9xWMNjPc9LqHs7UK3mFjtY7KdBFpBcaN7ZMQ81/3gwvJtrwZLgMco0XvUGx3aNX8m4xLH60c/zKLovz23fjs2O6LJpOkpfUACDYSYBsNYBseyZyfXHEZExymuIXPj28rtMyoV9trYC3k9rdMokQRQI0h8r2b0momWf1Ys8O3kcv5VmV04E723MRzv+TxVdyvnz6D4hYf6AGOPB5ARHuGyK2X8wXSv8BEesRsVUFHYpqsF0dmY/VfqGs/igNcETdqoIORdWeV6Sdf6Fe/YV5gAo6FFV3XsHzyn2An+xZHYjqarfPndI/wVr9Mg3gxRU8r9xavW4NYJSuHwKvPhP4ulHVqvZpfPmc1XaQf5y/qlStGf2FGuCHxVa/DNVK+ifo1V9mrSrpF9at/vM9q0p65bL6pgEOXcne4CncoAkW501uT7sJU5Oj/UCm4rMtyqiXQ6kE1fGH0yydnZ3up6sGPO+aDPSuyUhX734YUwOeRkxnuaOd7aIKWlnq3fRbe6l3O9rPtDjt7WcanO1n6l0NGuRTDVAAAADISURBVJxSE6bO+wanNPpwsv9opzfZkfZP704TtdLfzwJaiwZMvSZMN02U0s3Jfp7zJufdvm7AtGikS97ojd7oODofZpyDJo7VGzWg25vRaNDqgkEHqbDbQWcAOoPOaDh4U2d/hz5c93+7Pns/eP+hf3Xxfrz4sHiPvLD+2W3d0rI32kO3i/7Von/97no87J+dta6u+9eLwbv+4LSJO/BGFXRzNeh3Fzetd6edq8VN//pscTMY3/Rvm3g9b3QYvanVN3qjN3qV9H+SR4L8BIaLNAAAAABJRU5ErkJggg==;" parent="1" vertex="1">
          <mxGeometry x="-120" y="185.94" width="230" height="39.06" as="geometry" />
        </mxCell>
        <mxCell id="IT8IMpOZwN_9MQMlR_QI-442" value="" style="rounded=0;whiteSpace=wrap;html=1;strokeColor=#b85450;align=center;verticalAlign=middle;fontFamily=Helvetica;fontSize=12;fillColor=#f8cecc;opacity=60;container=1;" parent="1" vertex="1">
          <mxGeometry x="-95" y="180" width="189.82" height="40" as="geometry" />
        </mxCell>
        <mxCell id="IT8IMpOZwN_9MQMlR_QI-448" value="" style="shape=image;verticalLabelPosition=bottom;labelBackgroundColor=default;verticalAlign=top;imageAspect=0;image=data:image/png,iVBORw0KGgoAAAANSUhEUgAAAVUAAACUCAMAAAAUEUq5AAAA8FBMVEX////x8fGcnJzn5+f6+vre3t6Wlpba2trt7e2wsLDV1dX19fXk5OSZmZnb29v5+fn0+fzt9Pne6vPp8ffo6uwAZazJ3ezX5vEAbK9/rdEAaK0AX6jP4e7j7fW70uXJycmqyOC1zuOKioqjw90AcbJSk8NCi797qs9uosunp6eavNmJs9RnnciIsdNAgrlcl8V2dnbCwsJsbGwogLkteLSBgYE4erQAVaPp4t1Ujb94n8dSUlJnZ2dcXFuPm6XG0dexxNI6OjplkcAuLi5smr+3xc+RscqguMtOg7SdxeFDhrRYjLRhn8p8oL95mbeXuNigAUeOAAAgAElEQVR4nO19CXebyLZu2ZKsMTKDBZIMCAwUGCGIA3Ysn9PXeXmJne5OX/3/f3NrAgEChNRx4tPHe604GrYK+Ni15yoAeKM3eqM3Sqh3e/ZGf4/6u6gO8p8NTxrciU4DnvNWA6Z2E6ZRA55mTE3OuxHTxTD77myXoYBqr9dg0HEDnmETwIZNwOic/yCmdpPzBoPz4V7q9NKX6LjvSgZ5IVRPXiGq3QYDDUfDkzwN6z4Ytto/E9XXKKtNUO0Ni5+cFyEZZvXNybA5qjxXd+R/sqz2CoblpL+4GoCb7snNcHAzOu8sFr1/jRa9/vng5rx70z4I1ZlRd+T/VFltct69E81ISELvbwfvz077V6Pb27P3i9tF/+a3wYfu2e3i3fv+9e3NYbJqm3VHbiSrTQB7lbLqPDy4D5hcDML7k3/3+4v+1dWicwWuf+veXt28b529H92ejc5G7zsHoRpt6o7cSOvnZdVQS5leI6r59+Orwdl162qA/r9p907B6f+M3i1uBletm96if3qeQXV41mudnYzOMILlqFpO3ZGbnF1Br4ZaGdOr1AANmDKUkdX+zdni3ekNdl+7eVRP6KDT73UjNXGUC7Lq66VMjVBt/yimRpprxwcooczBTs5TVBc3V+D2eniFDvThutPN0GAw7nbHjxbMfZqn8WJc/WU6UI5pvF6WDThoMNJ4sf9gTZmanPdgdBANup0E1evrs5vT0z6W1UUftDPUa6E/QIFR7tMCdc9rvmR0Msq9DZdlAxaYymk8/EFMw26Dgc4HdVfOaNTLvElk9fy037oe9q6xsJfqVc2x6ibAET6AXaqoX6G1amQ0Rjnl29QH0L24Tk8d4a+u/VKm12etGkF/HKpLPRJrBj0itoJ2GdMrlNUXRNWXoFwz6OGy2n5DFUmWGko1gzbyV3OAcRCWMf13oWpxbqnXzuhwWeWCoCxf89+lVy2wqkuvHO4DcFHElzD9V8kqHwGvLr1yhKxGUVki4L8KVTEC+qpm0CNQhaXm7xWi+nL+qgCB4dYMerhnxcP1K0D11+pVGQKp1BNi1NgHSB0JHpY6Fa9JVtn5tQcNjnYUqooNhKhm0EYaYIS1aRJLiNApcypeE6qR0ICJ0VGoSiHgrJrKVdP8Kh8nJkqEyzLz94o0QDuiKuplZPUC/ZGQUl3W5K2b6lXRUtg7FZrLEqZXhCoX03N9OQ2guXj2CpWDNvVXVSvxelVolN2lV6QBOEtqwMQm3FGoGjP0p1QRUmqqV1XLY+9UKJUlrV4TqlOGap2sqlP6/3GoYmd19vdQxbIqWInXK0B5XcL0mjTAlF5vPaoWTZAepVdNXGFd6ZWDN40CZOuBvZPXall65RXJKj/R9jPJUxp3HyWrHp64pUabUtPKtWyF7J1ic7AkEfCaUL009jNJc+rUHIUqAdSrbgloKqtKYDP/TAnBusT6vSJUxQTVOg2gzan7dRSqMx39KXWFKDWNrRQ7EVDkAbsG2EmwvCK9qjaRVWNCTdpRqLr4APqscvCm1kpyAoaq5gN9Zey4Aa9IVtVLfT+TeUmVbyWqV1f9q1Ow02VBUPXxb7Xq/EpTDSCtbJZTQYMpoR3uMP24Lou/i6pwyexIHZPHBLpVjer71lUPdK6uR50MDQadzr39qdMZPYf39KN708yxdEaLzn7qLtAQD/4z/cXzl/vHOLaLTOPFqPhRepD0VZOjNWSqPFpn9DiZjfYy/TV/Jt8OuplPW9sO9pOzzv/rIVR3NABO4EEcvKVZKy8OCres20B6sAbQlxsmADqKrAInLOYWqmWV23rLzTRAg0aeWr0qT6gdqRXoWUSvp0oDtG/f9z9gkMv0KsTmWmGocrEYFMx3Uw1gbnRm8rCSlgTYHFVhmr78OXpVmcz2M7k2vZ6jrBVJ4AnMbUf/OwXXtVl/PfZ7NWbyiEPBBUWXtRpV5WejKk2c/Uy+S5mOiq1ifPUqy7Aa7k4Ku6msbkyJ5VRIXMEFxdaNalS1eXoHfg6qmuXuZ7KX1I05SlZJbpVnqG42SAnkp25TVFe6xBwJgmr7AFT1Sap1fo6/akTUQ6lFFeo0m3EUqnEWVdzPC/OKtam/6ugKc6Zo+AuLYUA1qt4kSc3+JFnVWXdNHRMHJWq4j0GVi7CN5yiqZNoWCqRNs9auJjPdQVM1OxXBalRXl2md6+egatrrvUxcJNyRF8ehSocg054YbqjkmJpqAF9LMlV0TcxORbAaVWeatnn8HFQ9N9jLxN+pMXlxDKoik1WCqob1s52Ho6kGCCURUteWpsD9Ysq2GlUfpn7Hz9Grm1kTVMWYD4Fg947wAaiAsdQdqYwU1ko01QC2wtNbw1B19AJTNaq2m7Z5UMD02nV1f19Wl0s6uevcRjXgoDHnpPXBqPYST7VNbYuHPU0/33XVNGe1lpnAgwci7KtiyrYS1Tb8PU3FEMBUq3RpEcgx7aFaVFce0XtKHRPShvb3ieAtK/MACZWgSk0MRw3/DCPxoOeYmkYByMgxVH2C6sYrYdolro3Uj7QGTDoJYEm+uIr+NqqOiVFtT8UaJhRu2lEshdoxqLJYleabiC4sTN2m1grdlziLqlls3ipHdWMiDSbcqSz9QABbTqpLvinTHqrVqw8GtiZ8LarIxoSBZwbCMdaKlUMpquRvYeo21asYVer4+8SJ0IvVa7O04ohUqoowNdiKDwJYOK9r/v4Bsvqg4WklTNQaJhRm+qGyjrijUKUBUahIPIuHClO3sayqSfwQElR3egIeSmtj4QwIAQ996sUQwES74NwVaS+qvL4nxNdwh61yKewyKYkHpM/AZ0+dw6M8K41evC+tTZYR8fLVlob9ABxC1aZg0P92EuEPRUVLaE0yD1HMtAcGTPFrm78boCrF9aiGEs4pSR+FnYuTpkm2HcEgi5wVHocqTTQ9aNBHXha+tMLUbeivclBMHH+qTXY6LdyiosXUDkI812DA2rMxYKZXv7Z+P6qa1a7Vq6ESIHuofZR3mGIt6eTbkALpnXcUqqwj2NHRdck2duML3awNNQCPUHUpGBTVJCuQkl9WG+PuILZr6xlLG2DAHKOmkJ4w1ZI+5erTUTJWVublDqpyACDLClHzgrzEYzKBrLo68+xQouKl5eHYPTtuWSwPIA3AoziClGsTL43eogyFZbUxPorbSJGvpYAaKAxYqHilyiKlvaguJ2I9qgJOdiwvlSITOhWmxhIROS5iZRewnNmGQ1VhIcG6K6vCzmIKpAFEpD2onWMRhVosBoRlzVcyjNrIjIkgoBeDAbOFmkJ6wlRL7qVan+RTsT10J0pxQTn6OGk5SwP3Y1Cl8gW80BehR7SBnFauyIYsJWYy3knztwiIpLmI2C3843R5EJ1S7d2qK8C9A1AkXvKaXgQCDOmS0p7CLe1FdT2VazUXVPHh7EgroMpZqZ/NBUkkcgyq7JaY8Qz4tPwlpKgS1bJ7dtK0FNU2bYQjdgtgVBkXCmHox2UtbZrjK0RjsOwDAgwFBDWFdMZUTwHU6mLCdiR+Rpcd2EYBVZxdYlOVu0uE4hhUmeeuT0yg0bYC9S753sUzOo+q7iUFERWD5FNtiDSAsE68NI4qCO6Ooap+JEwcLFZvyXgrx7jDCpiVyxBg8nrXf8hTParoxCLXrEeV/4wuNfquF8I9rA5ZlCcGe1G9+ffit/Iaa5IRMSYakn9y+WKcfG/jGZ1HFXdl6xN8J2QcDd1RSUeyipsraUTBhkzLgcpHEyzxx3clmShvs3GIDC9ppxcCjDRpVOABEqYa0iZchJzNGg2AzhChykUz8z7/BdZFZKpJkpy2NVahev5hcd26apWhqrKcqIaLHCp5zaeoBvhK8/d8iYDz5qTYjQujMZ23GNUwcVGTG0UVgQT02BU+6hWoLnU9Ih6XiW6XwmHAvA0ZrIZqUG0jc3OpBNpDPargwUDuh+cRVIW0wkZW39no6nxnO12qUB1+GPz/3lkLDP593Rl0B2x3DLJDyCebvnu2Hukn6HU8pkzj+EunO14MthtqdDtf/rwff5l+7Q7Gz3PEYT3d448Hi+7X9bj7CWKuxwgP1B3Dr/ib+eMXBz758aAbR4+7+3iEz8+Tpw568fzn/X303FkM7r88d77CQYGRDEk/HHcX+EQHg+R8syyPk24Av3z7ur6/GZexkDeD+P7L0/1j9PQX3kbkPnyiv+12p/jbb+i8rT+fvuDf418v6H/kiINxRgOcnl3fXrXLdrNhAStQrPSGoTtJjTxnYSnKK3QHSZFL+r8NpAe4KdWGSFYVP8nVshoYTYDxE+mzDGNhZXJxUJLfQ04y7dCVkB64M3CfFYrQSruKGfHQHFXLqnr5e6DFD0gf1clqjF0fZa2tiKymCQpavw8VZLHWm7T3tDoT2AMneHYXNMBJL21clbf1ai4Sqdnip1hP5jWAiyxkGOGvzYkMxDn9+UmLzH4xhypJ1gqXs0Bcx+g4XFy2DhMK8pSArSAjYXkIVQ6xiTuNL1sK4KYGVTm2fPXjUg3yEWteoyAdt/KA9FlzCKpuEnOQAhNwNbDSXagn3Af6ANzTRRpBZBeyRcqEDC/M8X/5e+4j4NYh/tHmUgHChDp3SFaxM0Tq35K27S1AYEVRBFY+8gK56I+dTJSifRNFej9l5HmgudFpq8j48mW92gyRyFjVoCqFa52bm3zEZaWBm+SYkD32PD10tAeCqp+IJY2IkBgH6nKSVu8ORRVFiYn8tDMlQGhCUiKUSE96XlZDyHFr5AXJpNysXNK1AEhWieOON3Bxp8yDIhkG3UEOlaii/zn4x846zM005tmRhZjMjQ4xW6Ud8JRUqDk1qGquwGMbGvPZ8xZ3UDVhoIkM1TBJ+3wnU3TpcZAztonzQ/3VtQzKtlyxXW+NxUqLdlFdBxxvrzx0Xs5UAxIVapwHIH3FuA/GN5maIlmapf5g0zei/edOfm+2NJNkARpRndpIVkk4sNP4kpIMpYcaVMlBdRXEanaOCfPcXUIeuYGdaIZqsqURZxEuc4XiRHkb6RyKqq1wZbtO+FAzMUZ6iBMkOQ3QhhEvhN5GsEi5WWOdNSgKIIEe9kxS7Snh7x4MjUwrzVftP3fye5k8KmdxcgS5jkjc3J3Gl5SkUPLvq1FN0ph3QtbKKpPceMjRJz1h2meMKgdZJOdQTWA4sg04PwXmUFRxY0QZqnNJ+Yb+95w1V5BVDkai4usr5KyG35fAtGl4h/QqSd7hfE8KiIzHZuE9AkMOv+j09SoVxGwnhsVJdsCNyL0AxXbPLWkPtagmKfe1lEVV2s5nT952QEprHFtxAZ1wSQef5OeDkENRnely2Rp2dyKTto2Vh3HJySoPI1VyjZU0520UECwden4IVWL28J80oUXSK4nkyrbi/0VtrTiXgEFvZnapS4zU3Fq9pysUqnctMh6UsAbVpDy08rJhk7Zt5FrPyOJ9QgokssomXOJkyraUS0MciqrnKWUBtzMVAVYxrhYUZZWHUNAcbaVNBNwy5/5OQzOEKhG7pQ5A6qLh/EQ70dsClPwnKkfe3ABsHWkOVdVYuco9dfWqdy0yl7KN9GqVhkhKmVqYRzUdb40iv6QHWoFYoPnIZmiwU7Xze3sciqqx0sry8yurDe5knM7COi4nqyJcC/pKmumXEkQe5lqi0SnSq6QAYG5AO90eD9cW0+hXhJr7TA8WuCaYkpdcVn3eCeZmZdxTWKoLVytTgKO2UroLEdg2M4hR9ryNeTreGhpU4wMsswTVmCbTkmOqdr4UcSiqkmuWJd2XMW1gCWRsinOxlQp92fMkx5sYAdISgUznO0KVpPOMWSaLgIFWk3dcYDjPZGIpobEEFu2ZgxlTv1Y80zPvHWLSdtqJUnINFaE6i6tQTSxi9Jj5FE8Pdh5r3WfePnbS8cWJFkU1WXcu2t9z9/RQVGV/Vnb2HqTJjjsVyRL/V/Yr1XYkR1P8ZewFyBeKVZpIHLao2KFQIBNOIB8pzYBzgT77Si5mZUqOCIloi1m31DFWhr66p01v1YWrtSTC0UUUVaCa9sw5WF48dteWFr1OU+CgAtP0rUoEWrSoyU5uFF8onB+KqhCW6i/PJ2E5F/PIaCh32fKTYG+MUJZDx54FKJqOxTsyh09aFCCksJSt/UMCl65l4wJv9Ui+ilQlVHyixHIeiL5yJM29p2dUXbgKZC5q6b5d4dCmrXf6A4732TAOpC9sDcXDAZcUcHiKakxOQ0zEoW3HOQ/kUFRVu3S3BUEhboYacchT0uktZEIlh6a5FgX7+8wO0M21OFLEE09aNKOIXBZpu/EwCllXCTrcevXUhZRFgNqMmNmcByJ99mUlbMGkmYArl8ZYbUctR7crzFVabcJ2no+ZsXe/U1d0bfBQDLjEpHERNsVCRCUidafWcW7wQ1EVYVwZw2D3EZviFWFJ9Lvk647NowmsxzaSuhjgIMyYSj2B6CY+yrasoMAgFZ02CthagU7cdD4yPZK+VLKoqjAQkMqkBVokOG65EkAh7l3LRROm/LTTyYuXN6DzpCCHDrWOgS5CjhXKQIKqDInga+mJh/lq56GongQ7db2U7gQ0h9DhXYuYIXbTNVezQ44PoDL10WSMMWxS4D/32J2eAn1bHkXR43YuhKHZ4yONCJO1NIiYSjlvO7JELhixCgKUrFIlgMBq3418KazoGdouakCBBIpXKFTQI5qUjzykdHwpWRoKYrzmWrJtcSWh8D/5pZsPjQ5FdfitykHBah/pNmSQbVJ2WSYrh2ZSjCbnXaROXeSkBNjv32y0sMcMgJXViOKdunUIUIDbQzCq2MxEoUTCm3znQWDxXNBlBQM9tnJOY0J8hLy+DgopylHltnvp/amhecP88cgIcZFHtDaCDVZ6etUEVe27rYZmpjfcyYdGB6P6R1nZk5K5Qf7bTOdsiCdR0lyGfPCJg1CNRXTRqibjJKpj8HGPGYBIXGaCfdvbwubGRguH3JgPxjKxDfkuGR/NWfiVXbE8WZbWWbGLEXTXgl8eJnDbyfu/G+BhEJGiAbFk81MOqNMVmiPm7FsOVcMNBXsGtvdjmc/GHozqn9W1TOkBBT4rXfxMnGPIfHvPkycbvBUoz8wrskhQRoaVzR9bzu6L4823gjubGj3cLoJn6Pc5z+HblG9x3aCPwqfkPht59ZAQTm4Hj1CsCBO47WbSyDue6bgQLM45S4A4OS5MHKSptCiVRYKqvgpl2wdbX83Lo3Iwql+quxlUvN0n8i1dss4nmNJjLk1hroM2XLcDakwQMEg3uxp13tELNyNE8uX22pcTrYVGJQd05oCgmvefDASY8yXFUi6tsuBCzPprwFegym9R/QrR2eCigjRRIj6S5gpQ5i6ykso8veoAhwqm50ooZITpL7W8Rj8Y1afqjUGABXGuQveecI3cZmZtZqi4aLUOwVonH+gPeOWKOWNgrvSsGWlnHDdvrqVbNHoWLcPkYxAM2OaPdN6rESgh7TOaEJ8CzinvGtyi2h4HXCjxCFVv/jvkIlya1yKMqjpNUSOobkxXg0H51MB01DrWKoI+rtavDBy9Kz6zrY4mYp/AdsFnnXxgPGAfCSlaCqbm2lkPOGMLvYmUoqpHCHAu0yBGCd0400oTE3wpqtioh5/uQGlQiA1k8qo9grIt4Jh47boQWF7kAd32tQfATdPfwq8AS8KDbkOvcjePalQH5zc4lXjIU8PwimNz5SqfXE6VZt+pLLoS2Q4QN0hT4dV8nOA5f056zq3SbYIRmXMlRVWD1Kzsmhxjks4ebvcpBrwIZkjO3Kcg4wflaNvN1O6svDWPAmkOaoENLBddj+diV4uL08PanwCef87mIax+cFIlquN/XV/fnpfvEFJFkoTN45r/6ivW0mRGCDk0uCaS1s+AGEQGzgOYTCzDqo0c9bmcoqrqtAdj15WXJtuLmxa/BJuQZMGdv+BOSMuOulXG7Y6AN5CwBTkUrBBEUIdgtglxg56Z3vjwE8Dzb+U4y3ll7rGyd+Xs+hZ3WYyurlvZx4p0u62qJ46MRq3WqPUJfut9XXvW9PmvJ8zasr+ij0ct/6mXcHXuHtGfQYuO1HqyyodsPU8fB8lXLcQNH1utb49Frsf5c8LUszqFoXphMIzRz9wvf/SenOyXrY49Juf3CbKPW6NF6xts9daPz3+N4rAXxY9xz3+2Z6veqJUeInzujXpfPj3Zfz3NHyuwaA3GmW9aW1R7t//6bXB1Ak76/dzDBkedk3rSpu7wMbS1QPGeyC9thTyV0DG345yjf61x8k6wio8zZA8yNKaP4+wHUDnpQbnIdjHVk98PI6E4RmCdxBcnw9Wf4dB0cseRLTLUUAuTj3uDoekPh+HjzGxHThtaJ9FFqKG4Oft0Rf95iP5oXrTUrIsqEMaj7Dnk9GoLP6Dt4KcxymhCPsJI5YFO5zwzWsUnDWb2ta5KLEiWmmvAs5V8epVSstkkOVZRP4hRJBOHDDkKhTZ7ZUKZtx/jrmBcz5CQ8rZXwI7QuYeK/V3P/sx5Bli763NTjiq3lzluZ/saEpC26ZLd/1kTZUXts8HTGJUCqr60242NY6MtqkkrOWgz8JXPD7+TKmXkpIlnRjotTPHblSKs13pmoGDGWYIQoiPagm3n3I7ZE8AdQMbEaFeq1R+PqmqJYAyxJ0cLZF5Fp06D5wYKsZhjQg5uWSlyub1taWAusXyy55kRRs1E0TJyL7PCNbNIU1ewTHM7DNWNZ6vY8Lou8gBsMYS56GGJUbXlTFmrhH44qvyaAyOyVQ5J2hk7O9QwaoCqGIu5ZtEHrXTr90wTZeroS5dU/XzWpI86wB1eG3RH1Ky0UsdIsOLUNWB9VrpL6w3OCnlUKC6IclkZ7BFwtiBN6lbN/XBUscNyT3KkAhT0Ev+SUQMNwEd5WZ0Zu6uyQQ7VZHssYIRrogMiWfiIL1+/9ICwlqdbrczBGb71UjRPh2SyqrG9QPCxUEjsT3NpepyIQFpNqV3h+eNRRTRWSf0BbqagqgTX6MmhQn518EoHZTnSDKpppVLfEG+ZiznuI1YQBrKh6lrabiuCzo7IvTFbF1FVLCrSxL4KwM2jajyQnnC5duX8i6BKz46LIJxVPlag0RaAeSbPLG6bQyiDqpFktDyPFAdxslbH77WJgVA1rW0SQwlJ1txcyemQDFV5notEnWkOPwWSZhChuiQCXkpW6X9xpLCNIEvoiGcHex5fZvoyqKYLWVY6aXtI14FpEw2IoeNs8yH6jCRSN5lkEdOrwjQXhC3zqOIyDEG1bu+MF0V1BUqfWUPoiOdc6yuhLNWXQTXNIjkaAdhMpE5CJptHsQmre0tLdItUjGq2i4DJ6nZneEIbKy+Vd6KO4lq1uIwxRy+KqgSqb+gRqCYrEQuUQTWtFfoSmd/pHhvKXAG8HQlsb6cVLpqQ7uzsBjoMVT7OKW+zUKj7Qwo1DtRcGXhRvQpqd5c4Qq9qbmnNP4Nq2q9hyyReWCeYyVMZWe5YZKJp4/Q06c7ORmMMVS7OmXe9gOr/zmp65Rm9pKzW0hFPD1d8p8xPy6CaJljXAlkRl6bABaQcuXXMsQLNNMIuH4r6cpvoJesC8tsNGYWel+dp9SbJCf0yVI+wVjL0y5zE7FKqJBUYqLj3eluSwhEfsAO2vAs/pBcFtygwTVcjYipfHawVispf55Vtcin9J6EqRKVNPVlUsXVc6iQJY8uuvl20jKdxuGbJVG8TofAId+OLWcjKUZUKFnJQ3RCR0n+SBuCnpd5vFlVXA3IMvTZSmc4ysNIIlfTv+z5b6WJLUEC4IyUgw72oKnlUX/BpjHuo6VMY9jMVUC0tv2VRNTcAaiLEpsqb6NxWYXxCTP6Kbcgb8baCOBwj3wpTvkMIlw/nXjeqR3hWvFVqJ7KoSjaa4zxUbA7oc7HA5JusVc1q+1qA1/Pk1783exrjiz2JaR+9kAbgWEtpgbKocjFOW9maDYDkFJlWGqt8z/GeMSRGyD304Fc/5XYPvZAGyFQ6s5RbTh3FZP3WjqpImHRnJeLHyS4hWS2ZDVibPY0RvG5ZPQLVqDT7lkPVxxK6cnfalhImZW5JfIx3NyG9sLn2gl/97OA91HRPy71UCMCk0tg7h6qMlSnN/5cycdLMECAKmBzSt21n79NP0ADdMRhgBF+RXq2g3Q0VpMnOhkFbJs9EMqrNl2S/p9wyzWZPuf07GqC9OD29vhoe1mWR0AtFARW0+xwWeb6TL9iiamwkl1SC8TKMXEjfTK/+PQ1Auyx619cnF73eRa/V6mHqdHq9Vg+/vmj18BfoXwu9RH/wX/Qf+jPoEaZWL+ElL9hrxIF5Rl38l/ye/Ih+Ssa4oN+glyM80kVulBb9hLwmP+sNWoSXfniBBxtb3gllSX84oCeD6NPDJ/fkcfKMXvqzkI1GLuFicJE51/Rl4f9FnoPi0kpP7gL/6XboVZDxTjKo9vv9wVUPDPvXmR6D3v4uC9xWMNjPc9LqHs7UK3mFjtY7KdBFpBcaN7ZMQ81/3gwvJtrwZLgMco0XvUGx3aNX8m4xLH60c/zKLovz23fjs2O6LJpOkpfUACDYSYBsNYBseyZyfXHEZExymuIXPj28rtMyoV9trYC3k9rdMokQRQI0h8r2b0momWf1Ys8O3kcv5VmV04E723MRzv+TxVdyvnz6D4hYf6AGOPB5ARHuGyK2X8wXSv8BEesRsVUFHYpqsF0dmY/VfqGs/igNcETdqoIORdWeV6Sdf6Fe/YV5gAo6FFV3XsHzyn2An+xZHYjqarfPndI/wVr9Mg3gxRU8r9xavW4NYJSuHwKvPhP4ulHVqvZpfPmc1XaQf5y/qlStGf2FGuCHxVa/DNVK+ifo1V9mrSrpF9at/vM9q0p65bL6pgEOXcne4CncoAkW501uT7sJU5Oj/UCm4rMtyqiXQ6kE1fGH0yydnZ3up6sGPO+aDPSuyUhX734YUwOeRkxnuaOd7aIKWlnq3fRbe6l3O9rPtDjt7WcanO1n6l0NGuRTDVAAAADISURBVJxSE6bO+wanNPpwsv9opzfZkfZP704TtdLfzwJaiwZMvSZMN02U0s3Jfp7zJufdvm7AtGikS97ojd7oODofZpyDJo7VGzWg25vRaNDqgkEHqbDbQWcAOoPOaDh4U2d/hz5c93+7Pns/eP+hf3Xxfrz4sHiPvLD+2W3d0rI32kO3i/7Von/97no87J+dta6u+9eLwbv+4LSJO/BGFXRzNeh3Fzetd6edq8VN//pscTMY3/Rvm3g9b3QYvanVN3qjN3qV9H+SR4L8BIaLNAAAAABJRU5ErkJggg==;" parent="1" vertex="1">
          <mxGeometry x="-120" y="275" width="230" height="39.06" as="geometry" />
        </mxCell>
        <mxCell id="IT8IMpOZwN_9MQMlR_QI-450" value="" style="rounded=0;whiteSpace=wrap;html=1;strokeColor=#6c8ebf;align=center;verticalAlign=middle;fontFamily=Helvetica;fontSize=12;fillColor=#dae8fc;opacity=60;container=1;" parent="1" vertex="1">
          <mxGeometry x="-95" y="274" width="189.82" height="36" as="geometry" />
        </mxCell>
        <mxCell id="IT8IMpOZwN_9MQMlR_QI-451" value="" style="endArrow=none;html=1;rounded=0;fontFamily=Helvetica;fontSize=12;fontColor=default;entryX=0.25;entryY=0;entryDx=0;entryDy=0;exitX=0.25;exitY=1;exitDx=0;exitDy=0;dashed=1;" parent="1" source="IT8IMpOZwN_9MQMlR_QI-442" target="IT8IMpOZwN_9MQMlR_QI-442" edge="1">
          <mxGeometry width="50" height="50" relative="1" as="geometry">
            <mxPoint x="127" y="261" as="sourcePoint" />
            <mxPoint x="127" y="226" as="targetPoint" />
          </mxGeometry>
        </mxCell>
        <mxCell id="IT8IMpOZwN_9MQMlR_QI-452" value="" style="endArrow=none;html=1;rounded=0;fontFamily=Helvetica;fontSize=12;fontColor=default;entryX=0.5;entryY=0;entryDx=0;entryDy=0;exitX=0.5;exitY=1;exitDx=0;exitDy=0;dashed=1;" parent="1" source="IT8IMpOZwN_9MQMlR_QI-442" target="IT8IMpOZwN_9MQMlR_QI-442" edge="1">
          <mxGeometry width="50" height="50" relative="1" as="geometry">
            <mxPoint x="-38" y="230" as="sourcePoint" />
            <mxPoint x="-38" y="190" as="targetPoint" />
          </mxGeometry>
        </mxCell>
        <mxCell id="IT8IMpOZwN_9MQMlR_QI-453" value="" style="endArrow=none;html=1;rounded=0;fontFamily=Helvetica;fontSize=12;fontColor=default;entryX=0.75;entryY=0;entryDx=0;entryDy=0;exitX=0.75;exitY=1;exitDx=0;exitDy=0;dashed=1;" parent="1" source="IT8IMpOZwN_9MQMlR_QI-442" target="IT8IMpOZwN_9MQMlR_QI-442" edge="1">
          <mxGeometry width="50" height="50" relative="1" as="geometry">
            <mxPoint x="10" y="230" as="sourcePoint" />
            <mxPoint x="10" y="190" as="targetPoint" />
          </mxGeometry>
        </mxCell>
        <mxCell id="IT8IMpOZwN_9MQMlR_QI-457" value="" style="endArrow=none;html=1;rounded=0;fontFamily=Helvetica;fontSize=12;fontColor=default;entryX=0.25;entryY=0;entryDx=0;entryDy=0;exitX=0.25;exitY=1;exitDx=0;exitDy=0;dashed=1;" parent="1" source="IT8IMpOZwN_9MQMlR_QI-450" target="IT8IMpOZwN_9MQMlR_QI-450" edge="1">
          <mxGeometry width="50" height="50" relative="1" as="geometry">
            <mxPoint x="-8" y="260" as="sourcePoint" />
            <mxPoint x="-8" y="220" as="targetPoint" />
          </mxGeometry>
        </mxCell>
        <mxCell id="IT8IMpOZwN_9MQMlR_QI-458" value="" style="endArrow=none;html=1;rounded=0;fontFamily=Helvetica;fontSize=12;fontColor=default;dashed=1;entryX=0.5;entryY=0;entryDx=0;entryDy=0;" parent="1" target="IT8IMpOZwN_9MQMlR_QI-450" edge="1">
          <mxGeometry width="50" height="50" relative="1" as="geometry">
            <mxPoint y="310" as="sourcePoint" />
            <mxPoint x="2" y="370" as="targetPoint" />
          </mxGeometry>
        </mxCell>
        <mxCell id="IT8IMpOZwN_9MQMlR_QI-459" value="" style="endArrow=none;html=1;rounded=0;fontFamily=Helvetica;fontSize=12;fontColor=default;entryX=0.75;entryY=0;entryDx=0;entryDy=0;exitX=0.75;exitY=1;exitDx=0;exitDy=0;dashed=1;" parent="1" source="IT8IMpOZwN_9MQMlR_QI-450" target="IT8IMpOZwN_9MQMlR_QI-450" edge="1">
          <mxGeometry width="50" height="50" relative="1" as="geometry">
            <mxPoint x="12" y="280" as="sourcePoint" />
            <mxPoint x="12" y="240" as="targetPoint" />
          </mxGeometry>
        </mxCell>
        <mxCell id="IT8IMpOZwN_9MQMlR_QI-464" value="" style="endArrow=none;html=1;rounded=0;strokeColor=#0B4D6A;exitX=1;exitY=0.5;exitDx=0;exitDy=0;" parent="1" source="IT8IMpOZwN_9MQMlR_QI-445" edge="1">
          <mxGeometry width="50" height="50" relative="1" as="geometry">
            <mxPoint x="160" y="250" as="sourcePoint" />
            <mxPoint x="200" y="250" as="targetPoint" />
          </mxGeometry>
        </mxCell>
        <mxCell id="IT8IMpOZwN_9MQMlR_QI-466" value="embedding" style="text;html=1;strokeColor=none;fillColor=none;align=center;verticalAlign=middle;whiteSpace=wrap;rounded=0;fontSize=18;fontFamily=Helvetica;fontColor=default;" parent="1" vertex="1">
          <mxGeometry x="124.82" y="202.97" width="60" height="30" as="geometry" />
        </mxCell>
        <mxCell id="R-W3sCULATnhmVgO2J70-1" value="Input Time Series" style="text;html=1;strokeColor=none;fillColor=none;align=center;verticalAlign=middle;whiteSpace=wrap;rounded=0;fontSize=15;fontFamily=Helvetica;fontColor=default;fontStyle=1" parent="1" vertex="1">
          <mxGeometry x="-139.99999999999955" y="328.99999999999994" width="310" height="60" as="geometry" />
        </mxCell>
        <mxCell id="R-W3sCULATnhmVgO2J70-3" value="Patched Input Embeddings" style="text;html=1;strokeColor=none;fillColor=none;align=center;verticalAlign=middle;whiteSpace=wrap;rounded=0;fontSize=15;fontFamily=Helvetica;fontColor=default;fontStyle=1" parent="1" vertex="1">
          <mxGeometry x="205.00000000000045" y="477.99999999999994" width="310" height="60" as="geometry" />
        </mxCell>
        <mxCell id="R-W3sCULATnhmVgO2J70-5" value="T1" style="text;html=1;strokeColor=none;fillColor=none;align=center;verticalAlign=middle;whiteSpace=wrap;rounded=0;" parent="1" vertex="1">
          <mxGeometry x="280" y="373.5" width="60" height="30" as="geometry" />
        </mxCell>
        <mxCell id="R-W3sCULATnhmVgO2J70-7" value="T1" style="text;html=1;strokeColor=none;fillColor=none;align=center;verticalAlign=middle;whiteSpace=wrap;rounded=0;" parent="1" vertex="1">
          <mxGeometry x="280" y="406.82" width="60" height="30" as="geometry" />
        </mxCell>
        <mxCell id="R-W3sCULATnhmVgO2J70-8" value="T1" style="text;html=1;strokeColor=none;fillColor=none;align=center;verticalAlign=middle;whiteSpace=wrap;rounded=0;" parent="1" vertex="1">
          <mxGeometry x="280" y="444" width="60" height="30" as="geometry" />
        </mxCell>
        <mxCell id="R-W3sCULATnhmVgO2J70-15" value="T2" style="text;html=1;strokeColor=none;fillColor=none;align=center;verticalAlign=middle;whiteSpace=wrap;rounded=0;" parent="1" vertex="1">
          <mxGeometry x="330" y="376" width="60" height="30" as="geometry" />
        </mxCell>
        <mxCell id="R-W3sCULATnhmVgO2J70-16" value="T2" style="text;html=1;strokeColor=none;fillColor=none;align=center;verticalAlign=middle;whiteSpace=wrap;rounded=0;" parent="1" vertex="1">
          <mxGeometry x="330" y="411" width="60" height="30" as="geometry" />
        </mxCell>
        <mxCell id="R-W3sCULATnhmVgO2J70-17" value="T2" style="text;html=1;strokeColor=none;fillColor=none;align=center;verticalAlign=middle;whiteSpace=wrap;rounded=0;" parent="1" vertex="1">
          <mxGeometry x="329" y="445" width="60" height="30" as="geometry" />
        </mxCell>
        <mxCell id="R-W3sCULATnhmVgO2J70-18" value="T3" style="text;html=1;strokeColor=none;fillColor=none;align=center;verticalAlign=middle;whiteSpace=wrap;rounded=0;" parent="1" vertex="1">
          <mxGeometry x="371" y="376" width="60" height="30" as="geometry" />
        </mxCell>
        <mxCell id="R-W3sCULATnhmVgO2J70-19" value="T3" style="text;html=1;strokeColor=none;fillColor=none;align=center;verticalAlign=middle;whiteSpace=wrap;rounded=0;" parent="1" vertex="1">
          <mxGeometry x="371" y="411" width="60" height="30" as="geometry" />
        </mxCell>
        <mxCell id="R-W3sCULATnhmVgO2J70-20" value="T3" style="text;html=1;strokeColor=none;fillColor=none;align=center;verticalAlign=middle;whiteSpace=wrap;rounded=0;" parent="1" vertex="1">
          <mxGeometry x="371" y="444.5" width="60" height="30" as="geometry" />
        </mxCell>
        <mxCell id="R-W3sCULATnhmVgO2J70-21" value="T4" style="text;html=1;strokeColor=none;fillColor=none;align=center;verticalAlign=middle;whiteSpace=wrap;rounded=0;" parent="1" vertex="1">
          <mxGeometry x="415" y="376" width="60" height="30" as="geometry" />
        </mxCell>
        <mxCell id="R-W3sCULATnhmVgO2J70-22" value="T4" style="text;html=1;strokeColor=none;fillColor=none;align=center;verticalAlign=middle;whiteSpace=wrap;rounded=0;" parent="1" vertex="1">
          <mxGeometry x="415" y="408.5" width="60" height="30" as="geometry" />
        </mxCell>
        <mxCell id="R-W3sCULATnhmVgO2J70-23" value="T4" style="text;html=1;strokeColor=none;fillColor=none;align=center;verticalAlign=middle;whiteSpace=wrap;rounded=0;" parent="1" vertex="1">
          <mxGeometry x="415" y="445" width="60" height="30" as="geometry" />
        </mxCell>
        <mxCell id="qmRQ7F4dCBqMSwzewYi--1" value="" style="endArrow=none;html=1;rounded=0;" edge="1" parent="1">
          <mxGeometry width="50" height="50" relative="1" as="geometry">
            <mxPoint x="200" y="410" as="sourcePoint" />
            <mxPoint x="200" y="250" as="targetPoint" />
          </mxGeometry>
        </mxCell>
        <mxCell id="qmRQ7F4dCBqMSwzewYi--2" value="" style="endArrow=classic;html=1;rounded=0;" edge="1" parent="1">
          <mxGeometry width="50" height="50" relative="1" as="geometry">
            <mxPoint x="200" y="410" as="sourcePoint" />
            <mxPoint x="260" y="410" as="targetPoint" />
          </mxGeometry>
        </mxCell>
        <mxCell id="qmRQ7F4dCBqMSwzewYi--3" value="" style="rounded=0;whiteSpace=wrap;html=1;strokeColor=#d6b656;align=center;verticalAlign=middle;fontFamily=Helvetica;fontSize=12;fillColor=#fff2cc;opacity=60;" vertex="1" parent="1">
          <mxGeometry x="294" y="249" width="180" height="35" as="geometry" />
        </mxCell>
        <mxCell id="qmRQ7F4dCBqMSwzewYi--4" value="" style="shape=parallelogram;perimeter=parallelogramPerimeter;whiteSpace=wrap;html=1;fixedSize=1;points=[[0,0,0,0,0],[0,0.25,0,0,0],[0,0.5,0,0,0],[0,0.75,0,0,0],[0.12,1,0,0,2],[0.25,0,0,0,0],[0.25,1,0,0,0],[0.5,0,0,0,0],[0.5,1,0,0,0],[0.75,0,0,0,0],[0.75,1,0,0,0],[1,0,0,0,0],[1,0.25,0,0,0],[1,0.5,0,0,0],[1,0.75,0,0,0],[1,1,0,0,0]];direction=south;flipH=0;container=1;movable=1;resizable=1;rotatable=1;deletable=1;editable=1;locked=0;connectable=1;size=30;fillColor=#fff2cc;strokeColor=#d6b656;" vertex="1" parent="1">
          <mxGeometry x="264.18" y="219" width="29.82" height="65" as="geometry">
            <mxRectangle x="280" y="200" width="50" height="40" as="alternateBounds" />
          </mxGeometry>
        </mxCell>
        <mxCell id="qmRQ7F4dCBqMSwzewYi--8" value="" style="rounded=0;whiteSpace=wrap;html=1;strokeColor=#6c8ebf;align=center;verticalAlign=middle;fontFamily=Helvetica;fontSize=12;fillColor=#dae8fc;opacity=60;" vertex="1" parent="1">
          <mxGeometry x="294" y="284" width="180" height="35" as="geometry" />
        </mxCell>
        <mxCell id="qmRQ7F4dCBqMSwzewYi--9" value="" style="shape=parallelogram;perimeter=parallelogramPerimeter;whiteSpace=wrap;html=1;fixedSize=1;points=[[0,0,0,0,0],[0,0.25,0,0,0],[0,0.5,0,0,0],[0,0.75,0,0,0],[0.12,1,0,0,2],[0.25,0,0,0,0],[0.25,1,0,0,0],[0.5,0,0,0,0],[0.5,1,0,0,0],[0.75,0,0,0,0],[0.75,1,0,0,0],[1,0,0,0,0],[1,0.25,0,0,0],[1,0.5,0,0,0],[1,0.75,0,0,0],[1,1,0,0,0]];direction=south;flipH=0;container=1;movable=1;resizable=1;rotatable=1;deletable=1;editable=1;locked=0;connectable=1;size=30;fillColor=#dae8fc;strokeColor=#6c8ebf;" vertex="1" parent="1">
          <mxGeometry x="264.18" y="254" width="29.82" height="65" as="geometry">
            <mxRectangle x="280" y="200" width="50" height="40" as="alternateBounds" />
          </mxGeometry>
        </mxCell>
        <mxCell id="qmRQ7F4dCBqMSwzewYi--13" value="" style="endArrow=none;html=1;rounded=0;fontFamily=Helvetica;fontSize=12;fontColor=default;exitX=0.153;exitY=0;exitDx=0;exitDy=0;exitPerimeter=0;entryX=1;entryY=0;entryDx=0;entryDy=0;dashed=1;" edge="1" parent="1">
          <mxGeometry width="50" height="50" relative="1" as="geometry">
            <mxPoint x="353.89754000000016" y="185" as="sourcePoint" />
            <mxPoint x="386" y="215" as="targetPoint" />
          </mxGeometry>
        </mxCell>
        <mxCell id="qmRQ7F4dCBqMSwzewYi--14" value="" style="endArrow=none;html=1;rounded=0;fontFamily=Helvetica;fontSize=12;fontColor=default;exitX=0.153;exitY=0;exitDx=0;exitDy=0;exitPerimeter=0;entryX=1;entryY=0;entryDx=0;entryDy=0;dashed=1;" edge="1" parent="1">
          <mxGeometry width="50" height="50" relative="1" as="geometry">
            <mxPoint x="307.89754000000016" y="184" as="sourcePoint" />
            <mxPoint x="340" y="214" as="targetPoint" />
          </mxGeometry>
        </mxCell>
        <mxCell id="qmRQ7F4dCBqMSwzewYi--15" value="" style="shape=parallelogram;perimeter=parallelogramPerimeter;whiteSpace=wrap;html=1;fixedSize=1;points=[[0,0,0,0,0],[0,0.25,0,0,0],[0,0.5,0,0,0],[0,0.75,0,0,0],[0.12,1,0,0,2],[0.25,0,0,0,0],[0.25,1,0,0,0],[0.5,0,0,0,0],[0.5,1,0,0,0],[0.75,0,0,0,0],[0.75,1,0,0,0],[1,0,0,0,0],[1,0.25,0,0,0],[1,0.5,0,0,0],[1,0.75,0,0,0],[1,1,0,0,0]];direction=south;flipH=0;container=1;movable=1;resizable=1;rotatable=1;deletable=1;editable=1;locked=0;connectable=1;size=30;fillColor=#f8cecc;strokeColor=#b85450;" vertex="1" parent="1">
          <mxGeometry x="264.18" y="184" width="29.82" height="65" as="geometry">
            <mxRectangle x="280" y="200" width="50" height="40" as="alternateBounds" />
          </mxGeometry>
        </mxCell>
        <mxCell id="qmRQ7F4dCBqMSwzewYi--16" value="" style="shape=parallelogram;perimeter=parallelogramPerimeter;whiteSpace=wrap;html=1;fixedSize=1;points=[[0,0,0,0,0],[0,0.25,0,0,0],[0,0.5,0,0,0],[0,0.75,0,0,0],[0.12,1,0,0,2],[0.25,0,0,0,0],[0.25,1,0,0,0],[0.5,0,0,0,0],[0.5,1,0,0,0],[0.75,0,0,0,0],[0.75,1,0,0,0],[1,0,0,0,0],[1,0.25,0,0,0],[1,0.5,0,0,0],[1,0.75,0,0,0],[1,1,0,0,0]];direction=west;flipH=0;container=1;movable=1;resizable=1;rotatable=1;deletable=1;editable=1;locked=0;connectable=1;size=30;flipV=1;fillColor=#f8cecc;strokeColor=#b85450;" vertex="1" parent="1">
          <mxGeometry x="264.18" y="184" width="209.82" height="29.82" as="geometry">
            <mxRectangle x="280" y="200" width="50" height="40" as="alternateBounds" />
          </mxGeometry>
        </mxCell>
        <mxCell id="qmRQ7F4dCBqMSwzewYi--17" value="" style="rounded=0;whiteSpace=wrap;html=1;strokeColor=#b85450;align=center;verticalAlign=middle;fontFamily=Helvetica;fontSize=12;fillColor=#f8cecc;opacity=60;" vertex="1" parent="1">
          <mxGeometry x="294" y="214" width="180" height="35" as="geometry" />
        </mxCell>
        <mxCell id="qmRQ7F4dCBqMSwzewYi--18" value="" style="endArrow=none;html=1;rounded=0;fontFamily=Helvetica;fontSize=12;fontColor=default;exitX=0.25;exitY=0;exitDx=0;exitDy=0;" edge="1" parent="1" source="qmRQ7F4dCBqMSwzewYi--17" target="qmRQ7F4dCBqMSwzewYi--16">
          <mxGeometry width="50" height="50" relative="1" as="geometry">
            <mxPoint x="134" y="479" as="sourcePoint" />
            <mxPoint x="184" y="289" as="targetPoint" />
          </mxGeometry>
        </mxCell>
        <mxCell id="qmRQ7F4dCBqMSwzewYi--19" style="edgeStyle=orthogonalEdgeStyle;rounded=0;orthogonalLoop=1;jettySize=auto;html=1;exitX=0.5;exitY=1;exitDx=0;exitDy=0;fontFamily=Helvetica;fontSize=12;fontColor=default;" edge="1" parent="1" source="qmRQ7F4dCBqMSwzewYi--17" target="qmRQ7F4dCBqMSwzewYi--17">
          <mxGeometry relative="1" as="geometry" />
        </mxCell>
        <mxCell id="qmRQ7F4dCBqMSwzewYi--26" value="" style="endArrow=none;html=1;rounded=0;fontFamily=Helvetica;fontSize=12;fontColor=default;exitX=0.25;exitY=0;exitDx=0;exitDy=0;" edge="1" parent="1">
          <mxGeometry width="50" height="50" relative="1" as="geometry">
            <mxPoint x="513.8650000000002" y="214" as="sourcePoint" />
            <mxPoint x="513.8069681908551" y="213.81999999999994" as="targetPoint" />
          </mxGeometry>
        </mxCell>
        <mxCell id="qmRQ7F4dCBqMSwzewYi--39" value="" style="endArrow=none;html=1;rounded=0;entryX=0.165;entryY=-0.101;entryDx=0;entryDy=0;entryPerimeter=0;dashed=1;" edge="1" parent="1">
          <mxGeometry width="50" height="50" relative="1" as="geometry">
            <mxPoint x="358" y="213" as="sourcePoint" />
            <mxPoint x="328.3796999999995" y="183.98817999999994" as="targetPoint" />
          </mxGeometry>
        </mxCell>
        <mxCell id="qmRQ7F4dCBqMSwzewYi--40" value="" style="endArrow=none;html=1;rounded=0;entryX=0.165;entryY=-0.101;entryDx=0;entryDy=0;entryPerimeter=0;dashed=1;" edge="1" parent="1">
          <mxGeometry width="50" height="50" relative="1" as="geometry">
            <mxPoint x="415" y="214" as="sourcePoint" />
            <mxPoint x="385.3796999999995" y="184.98817999999994" as="targetPoint" />
          </mxGeometry>
        </mxCell>
        <mxCell id="qmRQ7F4dCBqMSwzewYi--41" value="" style="endArrow=none;html=1;rounded=0;entryX=0.341;entryY=0.048;entryDx=0;entryDy=0;entryPerimeter=0;dashed=1;" edge="1" parent="1">
          <mxGeometry width="50" height="50" relative="1" as="geometry">
            <mxPoint x="357" y="320" as="sourcePoint" />
            <mxPoint x="357.3800000000001" y="215.67999999999995" as="targetPoint" />
          </mxGeometry>
        </mxCell>
        <mxCell id="qmRQ7F4dCBqMSwzewYi--42" value="" style="endArrow=none;html=1;rounded=0;entryX=0.341;entryY=0.048;entryDx=0;entryDy=0;entryPerimeter=0;dashed=1;" edge="1" parent="1">
          <mxGeometry width="50" height="50" relative="1" as="geometry">
            <mxPoint x="414" y="320" as="sourcePoint" />
            <mxPoint x="414" y="216" as="targetPoint" />
          </mxGeometry>
        </mxCell>
        <mxCell id="qmRQ7F4dCBqMSwzewYi--43" value="" style="rounded=0;whiteSpace=wrap;html=1;strokeColor=#d6b656;align=center;verticalAlign=middle;fontFamily=Helvetica;fontSize=12;fillColor=#fff2cc;opacity=60;" vertex="1" parent="1">
          <mxGeometry x="298" y="96" width="180" height="35" as="geometry" />
        </mxCell>
        <mxCell id="qmRQ7F4dCBqMSwzewYi--44" value="" style="shape=parallelogram;perimeter=parallelogramPerimeter;whiteSpace=wrap;html=1;fixedSize=1;points=[[0,0,0,0,0],[0,0.25,0,0,0],[0,0.5,0,0,0],[0,0.75,0,0,0],[0.12,1,0,0,2],[0.25,0,0,0,0],[0.25,1,0,0,0],[0.5,0,0,0,0],[0.5,1,0,0,0],[0.75,0,0,0,0],[0.75,1,0,0,0],[1,0,0,0,0],[1,0.25,0,0,0],[1,0.5,0,0,0],[1,0.75,0,0,0],[1,1,0,0,0]];direction=south;flipH=0;container=1;movable=1;resizable=1;rotatable=1;deletable=1;editable=1;locked=0;connectable=1;size=30;fillColor=#fff2cc;strokeColor=#d6b656;" vertex="1" parent="1">
          <mxGeometry x="268.18" y="66" width="29.82" height="65" as="geometry">
            <mxRectangle x="280" y="200" width="50" height="40" as="alternateBounds" />
          </mxGeometry>
        </mxCell>
        <mxCell id="qmRQ7F4dCBqMSwzewYi--45" value="" style="rounded=0;whiteSpace=wrap;html=1;strokeColor=#6c8ebf;align=center;verticalAlign=middle;fontFamily=Helvetica;fontSize=12;fillColor=#dae8fc;opacity=60;" vertex="1" parent="1">
          <mxGeometry x="298" y="131" width="180" height="35" as="geometry" />
        </mxCell>
        <mxCell id="qmRQ7F4dCBqMSwzewYi--46" value="" style="shape=parallelogram;perimeter=parallelogramPerimeter;whiteSpace=wrap;html=1;fixedSize=1;points=[[0,0,0,0,0],[0,0.25,0,0,0],[0,0.5,0,0,0],[0,0.75,0,0,0],[0.12,1,0,0,2],[0.25,0,0,0,0],[0.25,1,0,0,0],[0.5,0,0,0,0],[0.5,1,0,0,0],[0.75,0,0,0,0],[0.75,1,0,0,0],[1,0,0,0,0],[1,0.25,0,0,0],[1,0.5,0,0,0],[1,0.75,0,0,0],[1,1,0,0,0]];direction=south;flipH=0;container=1;movable=1;resizable=1;rotatable=1;deletable=1;editable=1;locked=0;connectable=1;size=30;fillColor=#dae8fc;strokeColor=#6c8ebf;" vertex="1" parent="1">
          <mxGeometry x="268.18" y="101" width="29.82" height="65" as="geometry">
            <mxRectangle x="280" y="200" width="50" height="40" as="alternateBounds" />
          </mxGeometry>
        </mxCell>
        <mxCell id="qmRQ7F4dCBqMSwzewYi--47" value="" style="endArrow=none;html=1;rounded=0;fontFamily=Helvetica;fontSize=12;fontColor=default;exitX=0.153;exitY=0;exitDx=0;exitDy=0;exitPerimeter=0;entryX=1;entryY=0;entryDx=0;entryDy=0;dashed=1;" edge="1" parent="1">
          <mxGeometry width="50" height="50" relative="1" as="geometry">
            <mxPoint x="357.89754000000016" y="32" as="sourcePoint" />
            <mxPoint x="390" y="62" as="targetPoint" />
          </mxGeometry>
        </mxCell>
        <mxCell id="qmRQ7F4dCBqMSwzewYi--48" value="" style="endArrow=none;html=1;rounded=0;fontFamily=Helvetica;fontSize=12;fontColor=default;exitX=0.153;exitY=0;exitDx=0;exitDy=0;exitPerimeter=0;entryX=1;entryY=0;entryDx=0;entryDy=0;dashed=1;" edge="1" parent="1">
          <mxGeometry width="50" height="50" relative="1" as="geometry">
            <mxPoint x="311.89754000000016" y="31" as="sourcePoint" />
            <mxPoint x="344" y="61" as="targetPoint" />
          </mxGeometry>
        </mxCell>
        <mxCell id="qmRQ7F4dCBqMSwzewYi--49" value="" style="shape=parallelogram;perimeter=parallelogramPerimeter;whiteSpace=wrap;html=1;fixedSize=1;points=[[0,0,0,0,0],[0,0.25,0,0,0],[0,0.5,0,0,0],[0,0.75,0,0,0],[0.12,1,0,0,2],[0.25,0,0,0,0],[0.25,1,0,0,0],[0.5,0,0,0,0],[0.5,1,0,0,0],[0.75,0,0,0,0],[0.75,1,0,0,0],[1,0,0,0,0],[1,0.25,0,0,0],[1,0.5,0,0,0],[1,0.75,0,0,0],[1,1,0,0,0]];direction=south;flipH=0;container=1;movable=1;resizable=1;rotatable=1;deletable=1;editable=1;locked=0;connectable=1;size=30;fillColor=#f8cecc;strokeColor=#b85450;" vertex="1" parent="1">
          <mxGeometry x="268.18" y="31" width="29.82" height="65" as="geometry">
            <mxRectangle x="280" y="200" width="50" height="40" as="alternateBounds" />
          </mxGeometry>
        </mxCell>
        <mxCell id="qmRQ7F4dCBqMSwzewYi--50" value="" style="shape=parallelogram;perimeter=parallelogramPerimeter;whiteSpace=wrap;html=1;fixedSize=1;points=[[0,0,0,0,0],[0,0.25,0,0,0],[0,0.5,0,0,0],[0,0.75,0,0,0],[0.12,1,0,0,2],[0.25,0,0,0,0],[0.25,1,0,0,0],[0.5,0,0,0,0],[0.5,1,0,0,0],[0.75,0,0,0,0],[0.75,1,0,0,0],[1,0,0,0,0],[1,0.25,0,0,0],[1,0.5,0,0,0],[1,0.75,0,0,0],[1,1,0,0,0]];direction=west;flipH=0;container=1;movable=1;resizable=1;rotatable=1;deletable=1;editable=1;locked=0;connectable=1;size=30;flipV=1;fillColor=#f8cecc;strokeColor=#b85450;" vertex="1" parent="1">
          <mxGeometry x="268.18" y="31" width="209.82" height="29.82" as="geometry">
            <mxRectangle x="280" y="200" width="50" height="40" as="alternateBounds" />
          </mxGeometry>
        </mxCell>
        <mxCell id="qmRQ7F4dCBqMSwzewYi--51" value="" style="rounded=0;whiteSpace=wrap;html=1;strokeColor=#b85450;align=center;verticalAlign=middle;fontFamily=Helvetica;fontSize=12;fillColor=#f8cecc;opacity=60;" vertex="1" parent="1">
          <mxGeometry x="298" y="61" width="180" height="35" as="geometry" />
        </mxCell>
        <mxCell id="qmRQ7F4dCBqMSwzewYi--52" value="" style="endArrow=none;html=1;rounded=0;fontFamily=Helvetica;fontSize=12;fontColor=default;exitX=0.25;exitY=0;exitDx=0;exitDy=0;" edge="1" parent="1" source="qmRQ7F4dCBqMSwzewYi--51" target="qmRQ7F4dCBqMSwzewYi--50">
          <mxGeometry width="50" height="50" relative="1" as="geometry">
            <mxPoint x="138" y="326" as="sourcePoint" />
            <mxPoint x="188" y="136" as="targetPoint" />
          </mxGeometry>
        </mxCell>
        <mxCell id="qmRQ7F4dCBqMSwzewYi--53" style="edgeStyle=orthogonalEdgeStyle;rounded=0;orthogonalLoop=1;jettySize=auto;html=1;exitX=0.5;exitY=1;exitDx=0;exitDy=0;fontFamily=Helvetica;fontSize=12;fontColor=default;" edge="1" parent="1" source="qmRQ7F4dCBqMSwzewYi--51" target="qmRQ7F4dCBqMSwzewYi--51">
          <mxGeometry relative="1" as="geometry" />
        </mxCell>
        <mxCell id="qmRQ7F4dCBqMSwzewYi--54" value="" style="endArrow=none;html=1;rounded=0;fontFamily=Helvetica;fontSize=12;fontColor=default;exitX=0.25;exitY=0;exitDx=0;exitDy=0;" edge="1" parent="1">
          <mxGeometry width="50" height="50" relative="1" as="geometry">
            <mxPoint x="517.8650000000002" y="61" as="sourcePoint" />
            <mxPoint x="517.8069681908551" y="60.819999999999936" as="targetPoint" />
          </mxGeometry>
        </mxCell>
        <mxCell id="qmRQ7F4dCBqMSwzewYi--55" value="" style="endArrow=none;html=1;rounded=0;entryX=0.165;entryY=-0.101;entryDx=0;entryDy=0;entryPerimeter=0;dashed=1;" edge="1" parent="1">
          <mxGeometry width="50" height="50" relative="1" as="geometry">
            <mxPoint x="392" y="60" as="sourcePoint" />
            <mxPoint x="362.3796999999995" y="30.988179999999943" as="targetPoint" />
          </mxGeometry>
        </mxCell>
        <mxCell id="qmRQ7F4dCBqMSwzewYi--59" value="" style="endArrow=none;html=1;rounded=0;entryX=0.006;entryY=1.051;entryDx=0;entryDy=0;entryPerimeter=0;exitX=1;exitY=1;exitDx=0;exitDy=0;dashed=1;" edge="1" parent="1">
          <mxGeometry width="50" height="50" relative="1" as="geometry">
            <mxPoint x="395" y="166" as="sourcePoint" />
            <mxPoint x="393.74107999999933" y="62.34082000000001" as="targetPoint" />
          </mxGeometry>
        </mxCell>
        <mxCell id="qmRQ7F4dCBqMSwzewYi--60" value="" style="endArrow=classic;html=1;rounded=0;entryX=0.5;entryY=1;entryDx=0;entryDy=0;entryPerimeter=0;" edge="1" parent="1" target="qmRQ7F4dCBqMSwzewYi--4">
          <mxGeometry width="50" height="50" relative="1" as="geometry">
            <mxPoint x="200" y="250" as="sourcePoint" />
            <mxPoint x="30" y="490" as="targetPoint" />
          </mxGeometry>
        </mxCell>
        <mxCell id="qmRQ7F4dCBqMSwzewYi--61" value="" style="endArrow=none;html=1;rounded=0;" edge="1" parent="1">
          <mxGeometry width="50" height="50" relative="1" as="geometry">
            <mxPoint x="200" y="250" as="sourcePoint" />
            <mxPoint x="200" y="80" as="targetPoint" />
          </mxGeometry>
        </mxCell>
        <mxCell id="qmRQ7F4dCBqMSwzewYi--62" value="" style="endArrow=classic;html=1;rounded=0;" edge="1" parent="1">
          <mxGeometry width="50" height="50" relative="1" as="geometry">
            <mxPoint x="200" y="81" as="sourcePoint" />
            <mxPoint x="260" y="81" as="targetPoint" />
          </mxGeometry>
        </mxCell>
        <mxCell id="qmRQ7F4dCBqMSwzewYi--71" value="" style="group;flipH=1;" vertex="1" connectable="0" parent="1">
          <mxGeometry x="608" y="90" width="162" height="330" as="geometry" />
        </mxCell>
        <mxCell id="qmRQ7F4dCBqMSwzewYi--63" value="" style="endArrow=classic;html=1;rounded=0;strokeColor=#0B4D6A;exitX=1;exitY=0.5;exitDx=0;exitDy=0;endFill=1;" edge="1" parent="qmRQ7F4dCBqMSwzewYi--71">
          <mxGeometry width="50" height="50" relative="1" as="geometry">
            <mxPoint x="64" y="170" as="sourcePoint" />
            <mxPoint x="192" y="170" as="targetPoint" />
          </mxGeometry>
        </mxCell>
        <mxCell id="qmRQ7F4dCBqMSwzewYi--86" value="" style="endArrow=none;html=1;rounded=0;" edge="1" parent="qmRQ7F4dCBqMSwzewYi--71">
          <mxGeometry width="50" height="50" relative="1" as="geometry">
            <mxPoint x="67" y="169" as="sourcePoint" />
            <mxPoint x="67" y="-1" as="targetPoint" />
          </mxGeometry>
        </mxCell>
        <mxCell id="qmRQ7F4dCBqMSwzewYi--89" value="" style="endArrow=none;html=1;rounded=0;" edge="1" parent="qmRQ7F4dCBqMSwzewYi--71">
          <mxGeometry width="50" height="50" relative="1" as="geometry">
            <mxPoint x="67" y="330" as="sourcePoint" />
            <mxPoint x="67" y="170" as="targetPoint" />
          </mxGeometry>
        </mxCell>
        <mxCell id="qmRQ7F4dCBqMSwzewYi--93" value="concatenation" style="text;html=1;strokeColor=none;fillColor=none;align=center;verticalAlign=middle;whiteSpace=wrap;rounded=0;fontSize=18;fontFamily=Helvetica;fontColor=default;" vertex="1" parent="qmRQ7F4dCBqMSwzewYi--71">
          <mxGeometry x="102" y="130" width="60" height="30" as="geometry" />
        </mxCell>
        <mxCell id="qmRQ7F4dCBqMSwzewYi--72" value="Submodule" style="rounded=1;whiteSpace=wrap;html=1;fillColor=#1ba1e2;fontColor=#ffffff;strokeColor=#006EAF;" vertex="1" parent="1">
          <mxGeometry x="520" y="77.5" width="80" height="34" as="geometry" />
        </mxCell>
        <mxCell id="qmRQ7F4dCBqMSwzewYi--73" value="" style="endArrow=none;html=1;rounded=0;" edge="1" parent="1">
          <mxGeometry width="50" height="50" relative="1" as="geometry">
            <mxPoint x="600" y="90" as="sourcePoint" />
            <mxPoint x="673" y="90" as="targetPoint" />
          </mxGeometry>
        </mxCell>
        <mxCell id="qmRQ7F4dCBqMSwzewYi--74" value="" style="endArrow=classic;html=1;rounded=0;exitX=1;exitY=1;exitDx=0;exitDy=0;entryX=0;entryY=0.5;entryDx=0;entryDy=0;" edge="1" parent="1">
          <mxGeometry width="50" height="50" relative="1" as="geometry">
            <mxPoint x="478" y="93" as="sourcePoint" />
            <mxPoint x="520" y="91.5" as="targetPoint" />
          </mxGeometry>
        </mxCell>
        <mxCell id="qmRQ7F4dCBqMSwzewYi--75" value="" style="endArrow=classic;html=1;rounded=0;exitX=1;exitY=1;exitDx=0;exitDy=0;entryX=0;entryY=0.5;entryDx=0;entryDy=0;" edge="1" parent="1">
          <mxGeometry width="50" height="50" relative="1" as="geometry">
            <mxPoint x="473" y="255" as="sourcePoint" />
            <mxPoint x="515" y="254" as="targetPoint" />
          </mxGeometry>
        </mxCell>
        <mxCell id="qmRQ7F4dCBqMSwzewYi--76" value="" style="endArrow=classic;html=1;rounded=0;exitX=1;exitY=1;exitDx=0;exitDy=0;entryX=0;entryY=0.5;entryDx=0;entryDy=0;" edge="1" parent="1">
          <mxGeometry width="50" height="50" relative="1" as="geometry">
            <mxPoint x="469" y="418" as="sourcePoint" />
            <mxPoint x="511" y="417" as="targetPoint" />
          </mxGeometry>
        </mxCell>
        <mxCell id="qmRQ7F4dCBqMSwzewYi--77" value="Submodule" style="rounded=1;whiteSpace=wrap;html=1;fillColor=#1ba1e2;fontColor=#ffffff;strokeColor=#006EAF;" vertex="1" parent="1">
          <mxGeometry x="520" y="234.5" width="80" height="34" as="geometry" />
        </mxCell>
        <mxCell id="qmRQ7F4dCBqMSwzewYi--78" value="Submodule" style="rounded=1;whiteSpace=wrap;html=1;fillColor=#1ba1e2;fontColor=#ffffff;strokeColor=#006EAF;" vertex="1" parent="1">
          <mxGeometry x="516" y="400.5" width="80" height="34" as="geometry" />
        </mxCell>
        <mxCell id="qmRQ7F4dCBqMSwzewYi--87" value="" style="endArrow=none;html=1;rounded=0;" edge="1" parent="1">
          <mxGeometry width="50" height="50" relative="1" as="geometry">
            <mxPoint x="595" y="260" as="sourcePoint" />
            <mxPoint x="678" y="260" as="targetPoint" />
          </mxGeometry>
        </mxCell>
        <mxCell id="qmRQ7F4dCBqMSwzewYi--88" value="" style="endArrow=none;html=1;rounded=0;exitX=1;exitY=0.5;exitDx=0;exitDy=0;" edge="1" parent="1">
          <mxGeometry width="50" height="50" relative="1" as="geometry">
            <mxPoint x="592" y="417.5" as="sourcePoint" />
            <mxPoint x="676" y="418" as="targetPoint" />
          </mxGeometry>
        </mxCell>
        <mxCell id="qmRQ7F4dCBqMSwzewYi--97" value="Head" style="rounded=1;whiteSpace=wrap;html=1;fillColor=#008a00;fontColor=#ffffff;strokeColor=#005700;" vertex="1" parent="1">
          <mxGeometry x="800" y="241" width="80" height="34" as="geometry" />
        </mxCell>
        <mxCell id="qmRQ7F4dCBqMSwzewYi--98" value="" style="endArrow=classic;html=1;rounded=0;exitX=1;exitY=0.5;exitDx=0;exitDy=0;" edge="1" parent="1" source="qmRQ7F4dCBqMSwzewYi--97">
          <mxGeometry width="50" height="50" relative="1" as="geometry">
            <mxPoint x="920" y="370" as="sourcePoint" />
            <mxPoint x="950" y="258" as="targetPoint" />
          </mxGeometry>
        </mxCell>
        <mxCell id="qmRQ7F4dCBqMSwzewYi--99" value="" style="shape=image;verticalLabelPosition=bottom;labelBackgroundColor=default;verticalAlign=top;imageAspect=0;image=data:image/png,iVBORw0KGgoAAAANSUhEUgAAAVUAAACUCAMAAAAUEUq5AAAA8FBMVEX////x8fGcnJzn5+f6+vre3t6Wlpba2trt7e2wsLDV1dX19fXk5OSZmZnb29v5+fn0+fzt9Pne6vPp8ffo6uwAZazJ3ezX5vEAbK9/rdEAaK0AX6jP4e7j7fW70uXJycmqyOC1zuOKioqjw90AcbJSk8NCi797qs9uosunp6eavNmJs9RnnciIsdNAgrlcl8V2dnbCwsJsbGwogLkteLSBgYE4erQAVaPp4t1Ujb94n8dSUlJnZ2dcXFuPm6XG0dexxNI6OjplkcAuLi5smr+3xc+RscqguMtOg7SdxeFDhrRYjLRhn8p8oL95mbeXuNigAUeOAAAgAElEQVR4nO19CXebyLZu2ZKsMTKDBZIMCAwUGCGIA3Ysn9PXeXmJne5OX/3/f3NrAgEChNRx4tPHe604GrYK+Ni15yoAeKM3eqM3Sqh3e/ZGf4/6u6gO8p8NTxrciU4DnvNWA6Z2E6ZRA55mTE3OuxHTxTD77myXoYBqr9dg0HEDnmETwIZNwOic/yCmdpPzBoPz4V7q9NKX6LjvSgZ5IVRPXiGq3QYDDUfDkzwN6z4Ytto/E9XXKKtNUO0Ni5+cFyEZZvXNybA5qjxXd+R/sqz2CoblpL+4GoCb7snNcHAzOu8sFr1/jRa9/vng5rx70z4I1ZlRd+T/VFltct69E81ISELvbwfvz077V6Pb27P3i9tF/+a3wYfu2e3i3fv+9e3NYbJqm3VHbiSrTQB7lbLqPDy4D5hcDML7k3/3+4v+1dWicwWuf+veXt28b529H92ejc5G7zsHoRpt6o7cSOvnZdVQS5leI6r59+Orwdl162qA/r9p907B6f+M3i1uBletm96if3qeQXV41mudnYzOMILlqFpO3ZGbnF1Br4ZaGdOr1AANmDKUkdX+zdni3ekNdl+7eVRP6KDT73UjNXGUC7Lq66VMjVBt/yimRpprxwcooczBTs5TVBc3V+D2eniFDvThutPN0GAw7nbHjxbMfZqn8WJc/WU6UI5pvF6WDThoMNJ4sf9gTZmanPdgdBANup0E1evrs5vT0z6W1UUftDPUa6E/QIFR7tMCdc9rvmR0Msq9DZdlAxaYymk8/EFMw26Dgc4HdVfOaNTLvElk9fy037oe9q6xsJfqVc2x6ibAET6AXaqoX6G1amQ0Rjnl29QH0L24Tk8d4a+u/VKm12etGkF/HKpLPRJrBj0itoJ2GdMrlNUXRNWXoFwz6OGy2n5DFUmWGko1gzbyV3OAcRCWMf13oWpxbqnXzuhwWeWCoCxf89+lVy2wqkuvHO4DcFHElzD9V8kqHwGvLr1yhKxGUVki4L8KVTEC+qpm0CNQhaXm7xWi+nL+qgCB4dYMerhnxcP1K0D11+pVGQKp1BNi1NgHSB0JHpY6Fa9JVtn5tQcNjnYUqooNhKhm0EYaYIS1aRJLiNApcypeE6qR0ICJ0VGoSiHgrJrKVdP8Kh8nJkqEyzLz94o0QDuiKuplZPUC/ZGQUl3W5K2b6lXRUtg7FZrLEqZXhCoX03N9OQ2guXj2CpWDNvVXVSvxelVolN2lV6QBOEtqwMQm3FGoGjP0p1QRUmqqV1XLY+9UKJUlrV4TqlOGap2sqlP6/3GoYmd19vdQxbIqWInXK0B5XcL0mjTAlF5vPaoWTZAepVdNXGFd6ZWDN40CZOuBvZPXall65RXJKj/R9jPJUxp3HyWrHp64pUabUtPKtWyF7J1ic7AkEfCaUL009jNJc+rUHIUqAdSrbgloKqtKYDP/TAnBusT6vSJUxQTVOg2gzan7dRSqMx39KXWFKDWNrRQ7EVDkAbsG2EmwvCK9qjaRVWNCTdpRqLr4APqscvCm1kpyAoaq5gN9Zey4Aa9IVtVLfT+TeUmVbyWqV1f9q1Ow02VBUPXxb7Xq/EpTDSCtbJZTQYMpoR3uMP24Lou/i6pwyexIHZPHBLpVjer71lUPdK6uR50MDQadzr39qdMZPYf39KN708yxdEaLzn7qLtAQD/4z/cXzl/vHOLaLTOPFqPhRepD0VZOjNWSqPFpn9DiZjfYy/TV/Jt8OuplPW9sO9pOzzv/rIVR3NABO4EEcvKVZKy8OCres20B6sAbQlxsmADqKrAInLOYWqmWV23rLzTRAg0aeWr0qT6gdqRXoWUSvp0oDtG/f9z9gkMv0KsTmWmGocrEYFMx3Uw1gbnRm8rCSlgTYHFVhmr78OXpVmcz2M7k2vZ6jrBVJ4AnMbUf/OwXXtVl/PfZ7NWbyiEPBBUWXtRpV5WejKk2c/Uy+S5mOiq1ifPUqy7Aa7k4Ku6msbkyJ5VRIXMEFxdaNalS1eXoHfg6qmuXuZ7KX1I05SlZJbpVnqG42SAnkp25TVFe6xBwJgmr7AFT1Sap1fo6/akTUQ6lFFeo0m3EUqnEWVdzPC/OKtam/6ugKc6Zo+AuLYUA1qt4kSc3+JFnVWXdNHRMHJWq4j0GVi7CN5yiqZNoWCqRNs9auJjPdQVM1OxXBalRXl2md6+egatrrvUxcJNyRF8ehSocg054YbqjkmJpqAF9LMlV0TcxORbAaVWeatnn8HFQ9N9jLxN+pMXlxDKoik1WCqob1s52Ho6kGCCURUteWpsD9Ysq2GlUfpn7Hz9Grm1kTVMWYD4Fg947wAaiAsdQdqYwU1ko01QC2wtNbw1B19AJTNaq2m7Z5UMD02nV1f19Wl0s6uevcRjXgoDHnpPXBqPYST7VNbYuHPU0/33XVNGe1lpnAgwci7KtiyrYS1Tb8PU3FEMBUq3RpEcgx7aFaVFce0XtKHRPShvb3ieAtK/MACZWgSk0MRw3/DCPxoOeYmkYByMgxVH2C6sYrYdolro3Uj7QGTDoJYEm+uIr+NqqOiVFtT8UaJhRu2lEshdoxqLJYleabiC4sTN2m1grdlziLqlls3ipHdWMiDSbcqSz9QABbTqpLvinTHqrVqw8GtiZ8LarIxoSBZwbCMdaKlUMpquRvYeo21asYVer4+8SJ0IvVa7O04ohUqoowNdiKDwJYOK9r/v4Bsvqg4WklTNQaJhRm+qGyjrijUKUBUahIPIuHClO3sayqSfwQElR3egIeSmtj4QwIAQ996sUQwES74NwVaS+qvL4nxNdwh61yKewyKYkHpM/AZ0+dw6M8K41evC+tTZYR8fLVlob9ABxC1aZg0P92EuEPRUVLaE0yD1HMtAcGTPFrm78boCrF9aiGEs4pSR+FnYuTpkm2HcEgi5wVHocqTTQ9aNBHXha+tMLUbeivclBMHH+qTXY6LdyiosXUDkI812DA2rMxYKZXv7Z+P6qa1a7Vq6ESIHuofZR3mGIt6eTbkALpnXcUqqwj2NHRdck2duML3awNNQCPUHUpGBTVJCuQkl9WG+PuILZr6xlLG2DAHKOmkJ4w1ZI+5erTUTJWVublDqpyACDLClHzgrzEYzKBrLo68+xQouKl5eHYPTtuWSwPIA3AoziClGsTL43eogyFZbUxPorbSJGvpYAaKAxYqHilyiKlvaguJ2I9qgJOdiwvlSITOhWmxhIROS5iZRewnNmGQ1VhIcG6K6vCzmIKpAFEpD2onWMRhVosBoRlzVcyjNrIjIkgoBeDAbOFmkJ6wlRL7qVan+RTsT10J0pxQTn6OGk5SwP3Y1Cl8gW80BehR7SBnFauyIYsJWYy3knztwiIpLmI2C3843R5EJ1S7d2qK8C9A1AkXvKaXgQCDOmS0p7CLe1FdT2VazUXVPHh7EgroMpZqZ/NBUkkcgyq7JaY8Qz4tPwlpKgS1bJ7dtK0FNU2bYQjdgtgVBkXCmHox2UtbZrjK0RjsOwDAgwFBDWFdMZUTwHU6mLCdiR+Rpcd2EYBVZxdYlOVu0uE4hhUmeeuT0yg0bYC9S753sUzOo+q7iUFERWD5FNtiDSAsE68NI4qCO6Ooap+JEwcLFZvyXgrx7jDCpiVyxBg8nrXf8hTParoxCLXrEeV/4wuNfquF8I9rA5ZlCcGe1G9+ffit/Iaa5IRMSYakn9y+WKcfG/jGZ1HFXdl6xN8J2QcDd1RSUeyipsraUTBhkzLgcpHEyzxx3clmShvs3GIDC9ppxcCjDRpVOABEqYa0iZchJzNGg2AzhChykUz8z7/BdZFZKpJkpy2NVahev5hcd26apWhqrKcqIaLHCp5zaeoBvhK8/d8iYDz5qTYjQujMZ23GNUwcVGTG0UVgQT02BU+6hWoLnU9Ih6XiW6XwmHAvA0ZrIZqUG0jc3OpBNpDPargwUDuh+cRVIW0wkZW39no6nxnO12qUB1+GPz/3lkLDP593Rl0B2x3DLJDyCebvnu2Hukn6HU8pkzj+EunO14MthtqdDtf/rwff5l+7Q7Gz3PEYT3d448Hi+7X9bj7CWKuxwgP1B3Dr/ib+eMXBz758aAbR4+7+3iEz8+Tpw568fzn/X303FkM7r88d77CQYGRDEk/HHcX+EQHg+R8syyPk24Av3z7ur6/GZexkDeD+P7L0/1j9PQX3kbkPnyiv+12p/jbb+i8rT+fvuDf418v6H/kiINxRgOcnl3fXrXLdrNhAStQrPSGoTtJjTxnYSnKK3QHSZFL+r8NpAe4KdWGSFYVP8nVshoYTYDxE+mzDGNhZXJxUJLfQ04y7dCVkB64M3CfFYrQSruKGfHQHFXLqnr5e6DFD0gf1clqjF0fZa2tiKymCQpavw8VZLHWm7T3tDoT2AMneHYXNMBJL21clbf1ai4Sqdnip1hP5jWAiyxkGOGvzYkMxDn9+UmLzH4xhypJ1gqXs0Bcx+g4XFy2DhMK8pSArSAjYXkIVQ6xiTuNL1sK4KYGVTm2fPXjUg3yEWteoyAdt/KA9FlzCKpuEnOQAhNwNbDSXagn3Af6ANzTRRpBZBeyRcqEDC/M8X/5e+4j4NYh/tHmUgHChDp3SFaxM0Tq35K27S1AYEVRBFY+8gK56I+dTJSifRNFej9l5HmgudFpq8j48mW92gyRyFjVoCqFa52bm3zEZaWBm+SYkD32PD10tAeCqp+IJY2IkBgH6nKSVu8ORRVFiYn8tDMlQGhCUiKUSE96XlZDyHFr5AXJpNysXNK1AEhWieOON3Bxp8yDIhkG3UEOlaii/zn4x846zM005tmRhZjMjQ4xW6Ud8JRUqDk1qGquwGMbGvPZ8xZ3UDVhoIkM1TBJ+3wnU3TpcZAztonzQ/3VtQzKtlyxXW+NxUqLdlFdBxxvrzx0Xs5UAxIVapwHIH3FuA/GN5maIlmapf5g0zei/edOfm+2NJNkARpRndpIVkk4sNP4kpIMpYcaVMlBdRXEanaOCfPcXUIeuYGdaIZqsqURZxEuc4XiRHkb6RyKqq1wZbtO+FAzMUZ6iBMkOQ3QhhEvhN5GsEi5WWOdNSgKIIEe9kxS7Snh7x4MjUwrzVftP3fye5k8KmdxcgS5jkjc3J3Gl5SkUPLvq1FN0ph3QtbKKpPceMjRJz1h2meMKgdZJOdQTWA4sg04PwXmUFRxY0QZqnNJ+Yb+95w1V5BVDkai4usr5KyG35fAtGl4h/QqSd7hfE8KiIzHZuE9AkMOv+j09SoVxGwnhsVJdsCNyL0AxXbPLWkPtagmKfe1lEVV2s5nT952QEprHFtxAZ1wSQef5OeDkENRnely2Rp2dyKTto2Vh3HJySoPI1VyjZU0520UECwden4IVWL28J80oUXSK4nkyrbi/0VtrTiXgEFvZnapS4zU3Fq9pysUqnctMh6UsAbVpDy08rJhk7Zt5FrPyOJ9QgokssomXOJkyraUS0MciqrnKWUBtzMVAVYxrhYUZZWHUNAcbaVNBNwy5/5OQzOEKhG7pQ5A6qLh/EQ70dsClPwnKkfe3ABsHWkOVdVYuco9dfWqdy0yl7KN9GqVhkhKmVqYRzUdb40iv6QHWoFYoPnIZmiwU7Xze3sciqqx0sry8yurDe5knM7COi4nqyJcC/pKmumXEkQe5lqi0SnSq6QAYG5AO90eD9cW0+hXhJr7TA8WuCaYkpdcVn3eCeZmZdxTWKoLVytTgKO2UroLEdg2M4hR9ryNeTreGhpU4wMsswTVmCbTkmOqdr4UcSiqkmuWJd2XMW1gCWRsinOxlQp92fMkx5sYAdISgUznO0KVpPOMWSaLgIFWk3dcYDjPZGIpobEEFu2ZgxlTv1Y80zPvHWLSdtqJUnINFaE6i6tQTSxi9Jj5FE8Pdh5r3WfePnbS8cWJFkU1WXcu2t9z9/RQVGV/Vnb2HqTJjjsVyRL/V/Yr1XYkR1P8ZewFyBeKVZpIHLao2KFQIBNOIB8pzYBzgT77Si5mZUqOCIloi1m31DFWhr66p01v1YWrtSTC0UUUVaCa9sw5WF48dteWFr1OU+CgAtP0rUoEWrSoyU5uFF8onB+KqhCW6i/PJ2E5F/PIaCh32fKTYG+MUJZDx54FKJqOxTsyh09aFCCksJSt/UMCl65l4wJv9Ui+ilQlVHyixHIeiL5yJM29p2dUXbgKZC5q6b5d4dCmrXf6A4732TAOpC9sDcXDAZcUcHiKakxOQ0zEoW3HOQ/kUFRVu3S3BUEhboYacchT0uktZEIlh6a5FgX7+8wO0M21OFLEE09aNKOIXBZpu/EwCllXCTrcevXUhZRFgNqMmNmcByJ99mUlbMGkmYArl8ZYbUctR7crzFVabcJ2no+ZsXe/U1d0bfBQDLjEpHERNsVCRCUidafWcW7wQ1EVYVwZw2D3EZviFWFJ9Lvk647NowmsxzaSuhjgIMyYSj2B6CY+yrasoMAgFZ02CthagU7cdD4yPZK+VLKoqjAQkMqkBVokOG65EkAh7l3LRROm/LTTyYuXN6DzpCCHDrWOgS5CjhXKQIKqDInga+mJh/lq56GongQ7db2U7gQ0h9DhXYuYIXbTNVezQ44PoDL10WSMMWxS4D/32J2eAn1bHkXR43YuhKHZ4yONCJO1NIiYSjlvO7JELhixCgKUrFIlgMBq3418KazoGdouakCBBIpXKFTQI5qUjzykdHwpWRoKYrzmWrJtcSWh8D/5pZsPjQ5FdfitykHBah/pNmSQbVJ2WSYrh2ZSjCbnXaROXeSkBNjv32y0sMcMgJXViOKdunUIUIDbQzCq2MxEoUTCm3znQWDxXNBlBQM9tnJOY0J8hLy+DgopylHltnvp/amhecP88cgIcZFHtDaCDVZ6etUEVe27rYZmpjfcyYdGB6P6R1nZk5K5Qf7bTOdsiCdR0lyGfPCJg1CNRXTRqibjJKpj8HGPGYBIXGaCfdvbwubGRguH3JgPxjKxDfkuGR/NWfiVXbE8WZbWWbGLEXTXgl8eJnDbyfu/G+BhEJGiAbFk81MOqNMVmiPm7FsOVcMNBXsGtvdjmc/GHozqn9W1TOkBBT4rXfxMnGPIfHvPkycbvBUoz8wrskhQRoaVzR9bzu6L4823gjubGj3cLoJn6Pc5z+HblG9x3aCPwqfkPht59ZAQTm4Hj1CsCBO47WbSyDue6bgQLM45S4A4OS5MHKSptCiVRYKqvgpl2wdbX83Lo3Iwql+quxlUvN0n8i1dss4nmNJjLk1hroM2XLcDakwQMEg3uxp13tELNyNE8uX22pcTrYVGJQd05oCgmvefDASY8yXFUi6tsuBCzPprwFegym9R/QrR2eCigjRRIj6S5gpQ5i6ykso8veoAhwqm50ooZITpL7W8Rj8Y1afqjUGABXGuQveecI3cZmZtZqi4aLUOwVonH+gPeOWKOWNgrvSsGWlnHDdvrqVbNHoWLcPkYxAM2OaPdN6rESgh7TOaEJ8CzinvGtyi2h4HXCjxCFVv/jvkIlya1yKMqjpNUSOobkxXg0H51MB01DrWKoI+rtavDBy9Kz6zrY4mYp/AdsFnnXxgPGAfCSlaCqbm2lkPOGMLvYmUoqpHCHAu0yBGCd0400oTE3wpqtioh5/uQGlQiA1k8qo9grIt4Jh47boQWF7kAd32tQfATdPfwq8AS8KDbkOvcjePalQH5zc4lXjIU8PwimNz5SqfXE6VZt+pLLoS2Q4QN0hT4dV8nOA5f056zq3SbYIRmXMlRVWD1Kzsmhxjks4ebvcpBrwIZkjO3Kcg4wflaNvN1O6svDWPAmkOaoENLBddj+diV4uL08PanwCef87mIax+cFIlquN/XV/fnpfvEFJFkoTN45r/6ivW0mRGCDk0uCaS1s+AGEQGzgOYTCzDqo0c9bmcoqrqtAdj15WXJtuLmxa/BJuQZMGdv+BOSMuOulXG7Y6AN5CwBTkUrBBEUIdgtglxg56Z3vjwE8Dzb+U4y3ll7rGyd+Xs+hZ3WYyurlvZx4p0u62qJ46MRq3WqPUJfut9XXvW9PmvJ8zasr+ij0ct/6mXcHXuHtGfQYuO1HqyyodsPU8fB8lXLcQNH1utb49Frsf5c8LUszqFoXphMIzRz9wvf/SenOyXrY49Juf3CbKPW6NF6xts9daPz3+N4rAXxY9xz3+2Z6veqJUeInzujXpfPj3Zfz3NHyuwaA3GmW9aW1R7t//6bXB1Ak76/dzDBkedk3rSpu7wMbS1QPGeyC9thTyV0DG345yjf61x8k6wio8zZA8yNKaP4+wHUDnpQbnIdjHVk98PI6E4RmCdxBcnw9Wf4dB0cseRLTLUUAuTj3uDoekPh+HjzGxHThtaJ9FFqKG4Oft0Rf95iP5oXrTUrIsqEMaj7Dnk9GoLP6Dt4KcxymhCPsJI5YFO5zwzWsUnDWb2ta5KLEiWmmvAs5V8epVSstkkOVZRP4hRJBOHDDkKhTZ7ZUKZtx/jrmBcz5CQ8rZXwI7QuYeK/V3P/sx5Bli763NTjiq3lzluZ/saEpC26ZLd/1kTZUXts8HTGJUCqr60242NY6MtqkkrOWgz8JXPD7+TKmXkpIlnRjotTPHblSKs13pmoGDGWYIQoiPagm3n3I7ZE8AdQMbEaFeq1R+PqmqJYAyxJ0cLZF5Fp06D5wYKsZhjQg5uWSlyub1taWAusXyy55kRRs1E0TJyL7PCNbNIU1ewTHM7DNWNZ6vY8Lou8gBsMYS56GGJUbXlTFmrhH44qvyaAyOyVQ5J2hk7O9QwaoCqGIu5ZtEHrXTr90wTZeroS5dU/XzWpI86wB1eG3RH1Ky0UsdIsOLUNWB9VrpL6w3OCnlUKC6IclkZ7BFwtiBN6lbN/XBUscNyT3KkAhT0Ev+SUQMNwEd5WZ0Zu6uyQQ7VZHssYIRrogMiWfiIL1+/9ICwlqdbrczBGb71UjRPh2SyqrG9QPCxUEjsT3NpepyIQFpNqV3h+eNRRTRWSf0BbqagqgTX6MmhQn518EoHZTnSDKpppVLfEG+ZiznuI1YQBrKh6lrabiuCzo7IvTFbF1FVLCrSxL4KwM2jajyQnnC5duX8i6BKz46LIJxVPlag0RaAeSbPLG6bQyiDqpFktDyPFAdxslbH77WJgVA1rW0SQwlJ1txcyemQDFV5notEnWkOPwWSZhChuiQCXkpW6X9xpLCNIEvoiGcHex5fZvoyqKYLWVY6aXtI14FpEw2IoeNs8yH6jCRSN5lkEdOrwjQXhC3zqOIyDEG1bu+MF0V1BUqfWUPoiOdc6yuhLNWXQTXNIjkaAdhMpE5CJptHsQmre0tLdItUjGq2i4DJ6nZneEIbKy+Vd6KO4lq1uIwxRy+KqgSqb+gRqCYrEQuUQTWtFfoSmd/pHhvKXAG8HQlsb6cVLpqQ7uzsBjoMVT7OKW+zUKj7Qwo1DtRcGXhRvQpqd5c4Qq9qbmnNP4Nq2q9hyyReWCeYyVMZWe5YZKJp4/Q06c7ORmMMVS7OmXe9gOr/zmp65Rm9pKzW0hFPD1d8p8xPy6CaJljXAlkRl6bABaQcuXXMsQLNNMIuH4r6cpvoJesC8tsNGYWel+dp9SbJCf0yVI+wVjL0y5zE7FKqJBUYqLj3eluSwhEfsAO2vAs/pBcFtygwTVcjYipfHawVispf55Vtcin9J6EqRKVNPVlUsXVc6iQJY8uuvl20jKdxuGbJVG8TofAId+OLWcjKUZUKFnJQ3RCR0n+SBuCnpd5vFlVXA3IMvTZSmc4ysNIIlfTv+z5b6WJLUEC4IyUgw72oKnlUX/BpjHuo6VMY9jMVUC0tv2VRNTcAaiLEpsqb6NxWYXxCTP6Kbcgb8baCOBwj3wpTvkMIlw/nXjeqR3hWvFVqJ7KoSjaa4zxUbA7oc7HA5JusVc1q+1qA1/Pk1783exrjiz2JaR+9kAbgWEtpgbKocjFOW9maDYDkFJlWGqt8z/GeMSRGyD304Fc/5XYPvZAGyFQ6s5RbTh3FZP3WjqpImHRnJeLHyS4hWS2ZDVibPY0RvG5ZPQLVqDT7lkPVxxK6cnfalhImZW5JfIx3NyG9sLn2gl/97OA91HRPy71UCMCk0tg7h6qMlSnN/5cycdLMECAKmBzSt21n79NP0ADdMRhgBF+RXq2g3Q0VpMnOhkFbJs9EMqrNl2S/p9wyzWZPuf07GqC9OD29vhoe1mWR0AtFARW0+xwWeb6TL9iiamwkl1SC8TKMXEjfTK/+PQ1Auyx619cnF73eRa/V6mHqdHq9Vg+/vmj18BfoXwu9RH/wX/Qf+jPoEaZWL+ElL9hrxIF5Rl38l/ye/Ih+Ssa4oN+glyM80kVulBb9hLwmP+sNWoSXfniBBxtb3gllSX84oCeD6NPDJ/fkcfKMXvqzkI1GLuFicJE51/Rl4f9FnoPi0kpP7gL/6XboVZDxTjKo9vv9wVUPDPvXmR6D3v4uC9xWMNjPc9LqHs7UK3mFjtY7KdBFpBcaN7ZMQ81/3gwvJtrwZLgMco0XvUGx3aNX8m4xLH60c/zKLovz23fjs2O6LJpOkpfUACDYSYBsNYBseyZyfXHEZExymuIXPj28rtMyoV9trYC3k9rdMokQRQI0h8r2b0momWf1Ys8O3kcv5VmV04E723MRzv+TxVdyvnz6D4hYf6AGOPB5ARHuGyK2X8wXSv8BEesRsVUFHYpqsF0dmY/VfqGs/igNcETdqoIORdWeV6Sdf6Fe/YV5gAo6FFV3XsHzyn2An+xZHYjqarfPndI/wVr9Mg3gxRU8r9xavW4NYJSuHwKvPhP4ulHVqvZpfPmc1XaQf5y/qlStGf2FGuCHxVa/DNVK+ifo1V9mrSrpF9at/vM9q0p65bL6pgEOXcne4CncoAkW501uT7sJU5Oj/UCm4rMtyqiXQ6kE1fGH0yydnZ3up6sGPO+aDPSuyUhX734YUwOeRkxnuaOd7aIKWlnq3fRbe6l3O9rPtDjt7WcanO1n6l0NGuRTDVAAAADISURBVJxSE6bO+wanNPpwsv9opzfZkfZP704TtdLfzwJaiwZMvSZMN02U0s3Jfp7zJufdvm7AtGikS97ojd7oODofZpyDJo7VGzWg25vRaNDqgkEHqbDbQWcAOoPOaDh4U2d/hz5c93+7Pns/eP+hf3Xxfrz4sHiPvLD+2W3d0rI32kO3i/7Von/97no87J+dta6u+9eLwbv+4LSJO/BGFXRzNeh3Fzetd6edq8VN//pscTMY3/Rvm3g9b3QYvanVN3qjN3qV9H+SR4L8BIaLNAAAAABJRU5ErkJggg==;" vertex="1" parent="1">
          <mxGeometry x="947" y="242.97" width="230" height="34.41331905781585" as="geometry" />
        </mxCell>
        <mxCell id="qmRQ7F4dCBqMSwzewYi--100" value="" style="rounded=0;whiteSpace=wrap;html=1;strokeColor=#d6b656;align=center;verticalAlign=middle;fontFamily=Helvetica;fontSize=12;fillColor=#fff2cc;opacity=60;container=1;" vertex="1" parent="1">
          <mxGeometry x="972" y="236.73331905781583" width="189.82" height="39.646680942184155" as="geometry" />
        </mxCell>
        <mxCell id="qmRQ7F4dCBqMSwzewYi--101" value="" style="endArrow=none;html=1;rounded=0;fontFamily=Helvetica;fontSize=12;fontColor=default;entryX=0.25;entryY=0;entryDx=0;entryDy=0;exitX=0.25;exitY=1;exitDx=0;exitDy=0;dashed=1;" edge="1" parent="1" source="qmRQ7F4dCBqMSwzewYi--100" target="qmRQ7F4dCBqMSwzewYi--100">
          <mxGeometry width="50" height="50" relative="1" as="geometry">
            <mxPoint x="1029" y="240" as="sourcePoint" />
            <mxPoint x="1029" y="200" as="targetPoint" />
          </mxGeometry>
        </mxCell>
        <mxCell id="qmRQ7F4dCBqMSwzewYi--102" value="" style="endArrow=none;html=1;rounded=0;fontFamily=Helvetica;fontSize=12;fontColor=default;entryX=0.5;entryY=0;entryDx=0;entryDy=0;exitX=0.5;exitY=1;exitDx=0;exitDy=0;dashed=1;" edge="1" parent="1" source="qmRQ7F4dCBqMSwzewYi--100" target="qmRQ7F4dCBqMSwzewYi--100">
          <mxGeometry width="50" height="50" relative="1" as="geometry">
            <mxPoint x="1039" y="250" as="sourcePoint" />
            <mxPoint x="1039" y="210" as="targetPoint" />
          </mxGeometry>
        </mxCell>
        <mxCell id="qmRQ7F4dCBqMSwzewYi--103" value="" style="endArrow=none;html=1;rounded=0;fontFamily=Helvetica;fontSize=12;fontColor=default;entryX=0.75;entryY=0;entryDx=0;entryDy=0;exitX=0.75;exitY=1;exitDx=0;exitDy=0;dashed=1;" edge="1" parent="1" source="qmRQ7F4dCBqMSwzewYi--100" target="qmRQ7F4dCBqMSwzewYi--100">
          <mxGeometry width="50" height="50" relative="1" as="geometry">
            <mxPoint x="1049" y="260" as="sourcePoint" />
            <mxPoint x="1049" y="220" as="targetPoint" />
          </mxGeometry>
        </mxCell>
        <mxCell id="qmRQ7F4dCBqMSwzewYi--104" value="" style="shape=image;verticalLabelPosition=bottom;labelBackgroundColor=default;verticalAlign=top;imageAspect=0;image=data:image/png,iVBORw0KGgoAAAANSUhEUgAAAVUAAACUCAMAAAAUEUq5AAAA8FBMVEX////x8fGcnJzn5+f6+vre3t6Wlpba2trt7e2wsLDV1dX19fXk5OSZmZnb29v5+fn0+fzt9Pne6vPp8ffo6uwAZazJ3ezX5vEAbK9/rdEAaK0AX6jP4e7j7fW70uXJycmqyOC1zuOKioqjw90AcbJSk8NCi797qs9uosunp6eavNmJs9RnnciIsdNAgrlcl8V2dnbCwsJsbGwogLkteLSBgYE4erQAVaPp4t1Ujb94n8dSUlJnZ2dcXFuPm6XG0dexxNI6OjplkcAuLi5smr+3xc+RscqguMtOg7SdxeFDhrRYjLRhn8p8oL95mbeXuNigAUeOAAAgAElEQVR4nO19CXebyLZu2ZKsMTKDBZIMCAwUGCGIA3Ysn9PXeXmJne5OX/3/f3NrAgEChNRx4tPHe604GrYK+Ni15yoAeKM3eqM3Sqh3e/ZGf4/6u6gO8p8NTxrciU4DnvNWA6Z2E6ZRA55mTE3OuxHTxTD77myXoYBqr9dg0HEDnmETwIZNwOic/yCmdpPzBoPz4V7q9NKX6LjvSgZ5IVRPXiGq3QYDDUfDkzwN6z4Ytto/E9XXKKtNUO0Ni5+cFyEZZvXNybA5qjxXd+R/sqz2CoblpL+4GoCb7snNcHAzOu8sFr1/jRa9/vng5rx70z4I1ZlRd+T/VFltct69E81ISELvbwfvz077V6Pb27P3i9tF/+a3wYfu2e3i3fv+9e3NYbJqm3VHbiSrTQB7lbLqPDy4D5hcDML7k3/3+4v+1dWicwWuf+veXt28b529H92ejc5G7zsHoRpt6o7cSOvnZdVQS5leI6r59+Orwdl162qA/r9p907B6f+M3i1uBletm96if3qeQXV41mudnYzOMILlqFpO3ZGbnF1Br4ZaGdOr1AANmDKUkdX+zdni3ekNdl+7eVRP6KDT73UjNXGUC7Lq66VMjVBt/yimRpprxwcooczBTs5TVBc3V+D2eniFDvThutPN0GAw7nbHjxbMfZqn8WJc/WU6UI5pvF6WDThoMNJ4sf9gTZmanPdgdBANup0E1evrs5vT0z6W1UUftDPUa6E/QIFR7tMCdc9rvmR0Msq9DZdlAxaYymk8/EFMw26Dgc4HdVfOaNTLvElk9fy037oe9q6xsJfqVc2x6ibAET6AXaqoX6G1amQ0Rjnl29QH0L24Tk8d4a+u/VKm12etGkF/HKpLPRJrBj0itoJ2GdMrlNUXRNWXoFwz6OGy2n5DFUmWGko1gzbyV3OAcRCWMf13oWpxbqnXzuhwWeWCoCxf89+lVy2wqkuvHO4DcFHElzD9V8kqHwGvLr1yhKxGUVki4L8KVTEC+qpm0CNQhaXm7xWi+nL+qgCB4dYMerhnxcP1K0D11+pVGQKp1BNi1NgHSB0JHpY6Fa9JVtn5tQcNjnYUqooNhKhm0EYaYIS1aRJLiNApcypeE6qR0ICJ0VGoSiHgrJrKVdP8Kh8nJkqEyzLz94o0QDuiKuplZPUC/ZGQUl3W5K2b6lXRUtg7FZrLEqZXhCoX03N9OQ2guXj2CpWDNvVXVSvxelVolN2lV6QBOEtqwMQm3FGoGjP0p1QRUmqqV1XLY+9UKJUlrV4TqlOGap2sqlP6/3GoYmd19vdQxbIqWInXK0B5XcL0mjTAlF5vPaoWTZAepVdNXGFd6ZWDN40CZOuBvZPXall65RXJKj/R9jPJUxp3HyWrHp64pUabUtPKtWyF7J1ic7AkEfCaUL009jNJc+rUHIUqAdSrbgloKqtKYDP/TAnBusT6vSJUxQTVOg2gzan7dRSqMx39KXWFKDWNrRQ7EVDkAbsG2EmwvCK9qjaRVWNCTdpRqLr4APqscvCm1kpyAoaq5gN9Zey4Aa9IVtVLfT+TeUmVbyWqV1f9q1Ow02VBUPXxb7Xq/EpTDSCtbJZTQYMpoR3uMP24Lou/i6pwyexIHZPHBLpVjer71lUPdK6uR50MDQadzr39qdMZPYf39KN708yxdEaLzn7qLtAQD/4z/cXzl/vHOLaLTOPFqPhRepD0VZOjNWSqPFpn9DiZjfYy/TV/Jt8OuplPW9sO9pOzzv/rIVR3NABO4EEcvKVZKy8OCres20B6sAbQlxsmADqKrAInLOYWqmWV23rLzTRAg0aeWr0qT6gdqRXoWUSvp0oDtG/f9z9gkMv0KsTmWmGocrEYFMx3Uw1gbnRm8rCSlgTYHFVhmr78OXpVmcz2M7k2vZ6jrBVJ4AnMbUf/OwXXtVl/PfZ7NWbyiEPBBUWXtRpV5WejKk2c/Uy+S5mOiq1ifPUqy7Aa7k4Ku6msbkyJ5VRIXMEFxdaNalS1eXoHfg6qmuXuZ7KX1I05SlZJbpVnqG42SAnkp25TVFe6xBwJgmr7AFT1Sap1fo6/akTUQ6lFFeo0m3EUqnEWVdzPC/OKtam/6ugKc6Zo+AuLYUA1qt4kSc3+JFnVWXdNHRMHJWq4j0GVi7CN5yiqZNoWCqRNs9auJjPdQVM1OxXBalRXl2md6+egatrrvUxcJNyRF8ehSocg054YbqjkmJpqAF9LMlV0TcxORbAaVWeatnn8HFQ9N9jLxN+pMXlxDKoik1WCqob1s52Ho6kGCCURUteWpsD9Ysq2GlUfpn7Hz9Grm1kTVMWYD4Fg947wAaiAsdQdqYwU1ko01QC2wtNbw1B19AJTNaq2m7Z5UMD02nV1f19Wl0s6uevcRjXgoDHnpPXBqPYST7VNbYuHPU0/33XVNGe1lpnAgwci7KtiyrYS1Tb8PU3FEMBUq3RpEcgx7aFaVFce0XtKHRPShvb3ieAtK/MACZWgSk0MRw3/DCPxoOeYmkYByMgxVH2C6sYrYdolro3Uj7QGTDoJYEm+uIr+NqqOiVFtT8UaJhRu2lEshdoxqLJYleabiC4sTN2m1grdlziLqlls3ipHdWMiDSbcqSz9QABbTqpLvinTHqrVqw8GtiZ8LarIxoSBZwbCMdaKlUMpquRvYeo21asYVer4+8SJ0IvVa7O04ohUqoowNdiKDwJYOK9r/v4Bsvqg4WklTNQaJhRm+qGyjrijUKUBUahIPIuHClO3sayqSfwQElR3egIeSmtj4QwIAQ996sUQwES74NwVaS+qvL4nxNdwh61yKewyKYkHpM/AZ0+dw6M8K41evC+tTZYR8fLVlob9ABxC1aZg0P92EuEPRUVLaE0yD1HMtAcGTPFrm78boCrF9aiGEs4pSR+FnYuTpkm2HcEgi5wVHocqTTQ9aNBHXha+tMLUbeivclBMHH+qTXY6LdyiosXUDkI812DA2rMxYKZXv7Z+P6qa1a7Vq6ESIHuofZR3mGIt6eTbkALpnXcUqqwj2NHRdck2duML3awNNQCPUHUpGBTVJCuQkl9WG+PuILZr6xlLG2DAHKOmkJ4w1ZI+5erTUTJWVublDqpyACDLClHzgrzEYzKBrLo68+xQouKl5eHYPTtuWSwPIA3AoziClGsTL43eogyFZbUxPorbSJGvpYAaKAxYqHilyiKlvaguJ2I9qgJOdiwvlSITOhWmxhIROS5iZRewnNmGQ1VhIcG6K6vCzmIKpAFEpD2onWMRhVosBoRlzVcyjNrIjIkgoBeDAbOFmkJ6wlRL7qVan+RTsT10J0pxQTn6OGk5SwP3Y1Cl8gW80BehR7SBnFauyIYsJWYy3knztwiIpLmI2C3843R5EJ1S7d2qK8C9A1AkXvKaXgQCDOmS0p7CLe1FdT2VazUXVPHh7EgroMpZqZ/NBUkkcgyq7JaY8Qz4tPwlpKgS1bJ7dtK0FNU2bYQjdgtgVBkXCmHox2UtbZrjK0RjsOwDAgwFBDWFdMZUTwHU6mLCdiR+Rpcd2EYBVZxdYlOVu0uE4hhUmeeuT0yg0bYC9S753sUzOo+q7iUFERWD5FNtiDSAsE68NI4qCO6Ooap+JEwcLFZvyXgrx7jDCpiVyxBg8nrXf8hTParoxCLXrEeV/4wuNfquF8I9rA5ZlCcGe1G9+ffit/Iaa5IRMSYakn9y+WKcfG/jGZ1HFXdl6xN8J2QcDd1RSUeyipsraUTBhkzLgcpHEyzxx3clmShvs3GIDC9ppxcCjDRpVOABEqYa0iZchJzNGg2AzhChykUz8z7/BdZFZKpJkpy2NVahev5hcd26apWhqrKcqIaLHCp5zaeoBvhK8/d8iYDz5qTYjQujMZ23GNUwcVGTG0UVgQT02BU+6hWoLnU9Ih6XiW6XwmHAvA0ZrIZqUG0jc3OpBNpDPargwUDuh+cRVIW0wkZW39no6nxnO12qUB1+GPz/3lkLDP593Rl0B2x3DLJDyCebvnu2Hukn6HU8pkzj+EunO14MthtqdDtf/rwff5l+7Q7Gz3PEYT3d448Hi+7X9bj7CWKuxwgP1B3Dr/ib+eMXBz758aAbR4+7+3iEz8+Tpw568fzn/X303FkM7r88d77CQYGRDEk/HHcX+EQHg+R8syyPk24Av3z7ur6/GZexkDeD+P7L0/1j9PQX3kbkPnyiv+12p/jbb+i8rT+fvuDf418v6H/kiINxRgOcnl3fXrXLdrNhAStQrPSGoTtJjTxnYSnKK3QHSZFL+r8NpAe4KdWGSFYVP8nVshoYTYDxE+mzDGNhZXJxUJLfQ04y7dCVkB64M3CfFYrQSruKGfHQHFXLqnr5e6DFD0gf1clqjF0fZa2tiKymCQpavw8VZLHWm7T3tDoT2AMneHYXNMBJL21clbf1ai4Sqdnip1hP5jWAiyxkGOGvzYkMxDn9+UmLzH4xhypJ1gqXs0Bcx+g4XFy2DhMK8pSArSAjYXkIVQ6xiTuNL1sK4KYGVTm2fPXjUg3yEWteoyAdt/KA9FlzCKpuEnOQAhNwNbDSXagn3Af6ANzTRRpBZBeyRcqEDC/M8X/5e+4j4NYh/tHmUgHChDp3SFaxM0Tq35K27S1AYEVRBFY+8gK56I+dTJSifRNFej9l5HmgudFpq8j48mW92gyRyFjVoCqFa52bm3zEZaWBm+SYkD32PD10tAeCqp+IJY2IkBgH6nKSVu8ORRVFiYn8tDMlQGhCUiKUSE96XlZDyHFr5AXJpNysXNK1AEhWieOON3Bxp8yDIhkG3UEOlaii/zn4x846zM005tmRhZjMjQ4xW6Ud8JRUqDk1qGquwGMbGvPZ8xZ3UDVhoIkM1TBJ+3wnU3TpcZAztonzQ/3VtQzKtlyxXW+NxUqLdlFdBxxvrzx0Xs5UAxIVapwHIH3FuA/GN5maIlmapf5g0zei/edOfm+2NJNkARpRndpIVkk4sNP4kpIMpYcaVMlBdRXEanaOCfPcXUIeuYGdaIZqsqURZxEuc4XiRHkb6RyKqq1wZbtO+FAzMUZ6iBMkOQ3QhhEvhN5GsEi5WWOdNSgKIIEe9kxS7Snh7x4MjUwrzVftP3fye5k8KmdxcgS5jkjc3J3Gl5SkUPLvq1FN0ph3QtbKKpPceMjRJz1h2meMKgdZJOdQTWA4sg04PwXmUFRxY0QZqnNJ+Yb+95w1V5BVDkai4usr5KyG35fAtGl4h/QqSd7hfE8KiIzHZuE9AkMOv+j09SoVxGwnhsVJdsCNyL0AxXbPLWkPtagmKfe1lEVV2s5nT952QEprHFtxAZ1wSQef5OeDkENRnely2Rp2dyKTto2Vh3HJySoPI1VyjZU0520UECwden4IVWL28J80oUXSK4nkyrbi/0VtrTiXgEFvZnapS4zU3Fq9pysUqnctMh6UsAbVpDy08rJhk7Zt5FrPyOJ9QgokssomXOJkyraUS0MciqrnKWUBtzMVAVYxrhYUZZWHUNAcbaVNBNwy5/5OQzOEKhG7pQ5A6qLh/EQ70dsClPwnKkfe3ABsHWkOVdVYuco9dfWqdy0yl7KN9GqVhkhKmVqYRzUdb40iv6QHWoFYoPnIZmiwU7Xze3sciqqx0sry8yurDe5knM7COi4nqyJcC/pKmumXEkQe5lqi0SnSq6QAYG5AO90eD9cW0+hXhJr7TA8WuCaYkpdcVn3eCeZmZdxTWKoLVytTgKO2UroLEdg2M4hR9ryNeTreGhpU4wMsswTVmCbTkmOqdr4UcSiqkmuWJd2XMW1gCWRsinOxlQp92fMkx5sYAdISgUznO0KVpPOMWSaLgIFWk3dcYDjPZGIpobEEFu2ZgxlTv1Y80zPvHWLSdtqJUnINFaE6i6tQTSxi9Jj5FE8Pdh5r3WfePnbS8cWJFkU1WXcu2t9z9/RQVGV/Vnb2HqTJjjsVyRL/V/Yr1XYkR1P8ZewFyBeKVZpIHLao2KFQIBNOIB8pzYBzgT77Si5mZUqOCIloi1m31DFWhr66p01v1YWrtSTC0UUUVaCa9sw5WF48dteWFr1OU+CgAtP0rUoEWrSoyU5uFF8onB+KqhCW6i/PJ2E5F/PIaCh32fKTYG+MUJZDx54FKJqOxTsyh09aFCCksJSt/UMCl65l4wJv9Ui+ilQlVHyixHIeiL5yJM29p2dUXbgKZC5q6b5d4dCmrXf6A4732TAOpC9sDcXDAZcUcHiKakxOQ0zEoW3HOQ/kUFRVu3S3BUEhboYacchT0uktZEIlh6a5FgX7+8wO0M21OFLEE09aNKOIXBZpu/EwCllXCTrcevXUhZRFgNqMmNmcByJ99mUlbMGkmYArl8ZYbUctR7crzFVabcJ2no+ZsXe/U1d0bfBQDLjEpHERNsVCRCUidafWcW7wQ1EVYVwZw2D3EZviFWFJ9Lvk647NowmsxzaSuhjgIMyYSj2B6CY+yrasoMAgFZ02CthagU7cdD4yPZK+VLKoqjAQkMqkBVokOG65EkAh7l3LRROm/LTTyYuXN6DzpCCHDrWOgS5CjhXKQIKqDInga+mJh/lq56GongQ7db2U7gQ0h9DhXYuYIXbTNVezQ44PoDL10WSMMWxS4D/32J2eAn1bHkXR43YuhKHZ4yONCJO1NIiYSjlvO7JELhixCgKUrFIlgMBq3418KazoGdouakCBBIpXKFTQI5qUjzykdHwpWRoKYrzmWrJtcSWh8D/5pZsPjQ5FdfitykHBah/pNmSQbVJ2WSYrh2ZSjCbnXaROXeSkBNjv32y0sMcMgJXViOKdunUIUIDbQzCq2MxEoUTCm3znQWDxXNBlBQM9tnJOY0J8hLy+DgopylHltnvp/amhecP88cgIcZFHtDaCDVZ6etUEVe27rYZmpjfcyYdGB6P6R1nZk5K5Qf7bTOdsiCdR0lyGfPCJg1CNRXTRqibjJKpj8HGPGYBIXGaCfdvbwubGRguH3JgPxjKxDfkuGR/NWfiVXbE8WZbWWbGLEXTXgl8eJnDbyfu/G+BhEJGiAbFk81MOqNMVmiPm7FsOVcMNBXsGtvdjmc/GHozqn9W1TOkBBT4rXfxMnGPIfHvPkycbvBUoz8wrskhQRoaVzR9bzu6L4823gjubGj3cLoJn6Pc5z+HblG9x3aCPwqfkPht59ZAQTm4Hj1CsCBO47WbSyDue6bgQLM45S4A4OS5MHKSptCiVRYKqvgpl2wdbX83Lo3Iwql+quxlUvN0n8i1dss4nmNJjLk1hroM2XLcDakwQMEg3uxp13tELNyNE8uX22pcTrYVGJQd05oCgmvefDASY8yXFUi6tsuBCzPprwFegym9R/QrR2eCigjRRIj6S5gpQ5i6ykso8veoAhwqm50ooZITpL7W8Rj8Y1afqjUGABXGuQveecI3cZmZtZqi4aLUOwVonH+gPeOWKOWNgrvSsGWlnHDdvrqVbNHoWLcPkYxAM2OaPdN6rESgh7TOaEJ8CzinvGtyi2h4HXCjxCFVv/jvkIlya1yKMqjpNUSOobkxXg0H51MB01DrWKoI+rtavDBy9Kz6zrY4mYp/AdsFnnXxgPGAfCSlaCqbm2lkPOGMLvYmUoqpHCHAu0yBGCd0400oTE3wpqtioh5/uQGlQiA1k8qo9grIt4Jh47boQWF7kAd32tQfATdPfwq8AS8KDbkOvcjePalQH5zc4lXjIU8PwimNz5SqfXE6VZt+pLLoS2Q4QN0hT4dV8nOA5f056zq3SbYIRmXMlRVWD1Kzsmhxjks4ebvcpBrwIZkjO3Kcg4wflaNvN1O6svDWPAmkOaoENLBddj+diV4uL08PanwCef87mIax+cFIlquN/XV/fnpfvEFJFkoTN45r/6ivW0mRGCDk0uCaS1s+AGEQGzgOYTCzDqo0c9bmcoqrqtAdj15WXJtuLmxa/BJuQZMGdv+BOSMuOulXG7Y6AN5CwBTkUrBBEUIdgtglxg56Z3vjwE8Dzb+U4y3ll7rGyd+Xs+hZ3WYyurlvZx4p0u62qJ46MRq3WqPUJfut9XXvW9PmvJ8zasr+ij0ct/6mXcHXuHtGfQYuO1HqyyodsPU8fB8lXLcQNH1utb49Frsf5c8LUszqFoXphMIzRz9wvf/SenOyXrY49Juf3CbKPW6NF6xts9daPz3+N4rAXxY9xz3+2Z6veqJUeInzujXpfPj3Zfz3NHyuwaA3GmW9aW1R7t//6bXB1Ak76/dzDBkedk3rSpu7wMbS1QPGeyC9thTyV0DG345yjf61x8k6wio8zZA8yNKaP4+wHUDnpQbnIdjHVk98PI6E4RmCdxBcnw9Wf4dB0cseRLTLUUAuTj3uDoekPh+HjzGxHThtaJ9FFqKG4Oft0Rf95iP5oXrTUrIsqEMaj7Dnk9GoLP6Dt4KcxymhCPsJI5YFO5zwzWsUnDWb2ta5KLEiWmmvAs5V8epVSstkkOVZRP4hRJBOHDDkKhTZ7ZUKZtx/jrmBcz5CQ8rZXwI7QuYeK/V3P/sx5Bli763NTjiq3lzluZ/saEpC26ZLd/1kTZUXts8HTGJUCqr60242NY6MtqkkrOWgz8JXPD7+TKmXkpIlnRjotTPHblSKs13pmoGDGWYIQoiPagm3n3I7ZE8AdQMbEaFeq1R+PqmqJYAyxJ0cLZF5Fp06D5wYKsZhjQg5uWSlyub1taWAusXyy55kRRs1E0TJyL7PCNbNIU1ewTHM7DNWNZ6vY8Lou8gBsMYS56GGJUbXlTFmrhH44qvyaAyOyVQ5J2hk7O9QwaoCqGIu5ZtEHrXTr90wTZeroS5dU/XzWpI86wB1eG3RH1Ky0UsdIsOLUNWB9VrpL6w3OCnlUKC6IclkZ7BFwtiBN6lbN/XBUscNyT3KkAhT0Ev+SUQMNwEd5WZ0Zu6uyQQ7VZHssYIRrogMiWfiIL1+/9ICwlqdbrczBGb71UjRPh2SyqrG9QPCxUEjsT3NpepyIQFpNqV3h+eNRRTRWSf0BbqagqgTX6MmhQn518EoHZTnSDKpppVLfEG+ZiznuI1YQBrKh6lrabiuCzo7IvTFbF1FVLCrSxL4KwM2jajyQnnC5duX8i6BKz46LIJxVPlag0RaAeSbPLG6bQyiDqpFktDyPFAdxslbH77WJgVA1rW0SQwlJ1txcyemQDFV5notEnWkOPwWSZhChuiQCXkpW6X9xpLCNIEvoiGcHex5fZvoyqKYLWVY6aXtI14FpEw2IoeNs8yH6jCRSN5lkEdOrwjQXhC3zqOIyDEG1bu+MF0V1BUqfWUPoiOdc6yuhLNWXQTXNIjkaAdhMpE5CJptHsQmre0tLdItUjGq2i4DJ6nZneEIbKy+Vd6KO4lq1uIwxRy+KqgSqb+gRqCYrEQuUQTWtFfoSmd/pHhvKXAG8HQlsb6cVLpqQ7uzsBjoMVT7OKW+zUKj7Qwo1DtRcGXhRvQpqd5c4Qq9qbmnNP4Nq2q9hyyReWCeYyVMZWe5YZKJp4/Q06c7ORmMMVS7OmXe9gOr/zmp65Rm9pKzW0hFPD1d8p8xPy6CaJljXAlkRl6bABaQcuXXMsQLNNMIuH4r6cpvoJesC8tsNGYWel+dp9SbJCf0yVI+wVjL0y5zE7FKqJBUYqLj3eluSwhEfsAO2vAs/pBcFtygwTVcjYipfHawVispf55Vtcin9J6EqRKVNPVlUsXVc6iQJY8uuvl20jKdxuGbJVG8TofAId+OLWcjKUZUKFnJQ3RCR0n+SBuCnpd5vFlVXA3IMvTZSmc4ysNIIlfTv+z5b6WJLUEC4IyUgw72oKnlUX/BpjHuo6VMY9jMVUC0tv2VRNTcAaiLEpsqb6NxWYXxCTP6Kbcgb8baCOBwj3wpTvkMIlw/nXjeqR3hWvFVqJ7KoSjaa4zxUbA7oc7HA5JusVc1q+1qA1/Pk1783exrjiz2JaR+9kAbgWEtpgbKocjFOW9maDYDkFJlWGqt8z/GeMSRGyD304Fc/5XYPvZAGyFQ6s5RbTh3FZP3WjqpImHRnJeLHyS4hWS2ZDVibPY0RvG5ZPQLVqDT7lkPVxxK6cnfalhImZW5JfIx3NyG9sLn2gl/97OA91HRPy71UCMCk0tg7h6qMlSnN/5cycdLMECAKmBzSt21n79NP0ADdMRhgBF+RXq2g3Q0VpMnOhkFbJs9EMqrNl2S/p9wyzWZPuf07GqC9OD29vhoe1mWR0AtFARW0+xwWeb6TL9iiamwkl1SC8TKMXEjfTK/+PQ1Auyx619cnF73eRa/V6mHqdHq9Vg+/vmj18BfoXwu9RH/wX/Qf+jPoEaZWL+ElL9hrxIF5Rl38l/ye/Ih+Ssa4oN+glyM80kVulBb9hLwmP+sNWoSXfniBBxtb3gllSX84oCeD6NPDJ/fkcfKMXvqzkI1GLuFicJE51/Rl4f9FnoPi0kpP7gL/6XboVZDxTjKo9vv9wVUPDPvXmR6D3v4uC9xWMNjPc9LqHs7UK3mFjtY7KdBFpBcaN7ZMQ81/3gwvJtrwZLgMco0XvUGx3aNX8m4xLH60c/zKLovz23fjs2O6LJpOkpfUACDYSYBsNYBseyZyfXHEZExymuIXPj28rtMyoV9trYC3k9rdMokQRQI0h8r2b0momWf1Ys8O3kcv5VmV04E723MRzv+TxVdyvnz6D4hYf6AGOPB5ARHuGyK2X8wXSv8BEesRsVUFHYpqsF0dmY/VfqGs/igNcETdqoIORdWeV6Sdf6Fe/YV5gAo6FFV3XsHzyn2An+xZHYjqarfPndI/wVr9Mg3gxRU8r9xavW4NYJSuHwKvPhP4ulHVqvZpfPmc1XaQf5y/qlStGf2FGuCHxVa/DNVK+ifo1V9mrSrpF9at/vM9q0p65bL6pgEOXcne4CncoAkW501uT7sJU5Oj/UCm4rMtyqiXQ6kE1fGH0yydnZ3up6sGPO+aDPSuyUhX734YUwOeRkxnuaOd7aIKWlnq3fRbe6l3O9rPtDjt7WcanO1n6l0NGuRTDVAAAADISURBVJxSE6bO+wanNPpwsv9opzfZkfZP704TtdLfzwJaiwZMvSZMN02U0s3Jfp7zJufdvm7AtGikS97ojd7oODofZpyDJo7VGzWg25vRaNDqgkEHqbDbQWcAOoPOaDh4U2d/hz5c93+7Pns/eP+hf3Xxfrz4sHiPvLD+2W3d0rI32kO3i/7Von/97no87J+dta6u+9eLwbv+4LSJO/BGFXRzNeh3Fzetd6edq8VN//pscTMY3/Rvm3g9b3QYvanVN3qjN3qV9H+SR4L8BIaLNAAAAABJRU5ErkJggg==;" vertex="1" parent="1">
          <mxGeometry x="947" y="195.94" width="230" height="39.06" as="geometry" />
        </mxCell>
        <mxCell id="qmRQ7F4dCBqMSwzewYi--105" value="" style="rounded=0;whiteSpace=wrap;html=1;strokeColor=#b85450;align=center;verticalAlign=middle;fontFamily=Helvetica;fontSize=12;fillColor=#f8cecc;opacity=60;container=1;" vertex="1" parent="1">
          <mxGeometry x="972" y="190" width="189.82" height="40" as="geometry" />
        </mxCell>
        <mxCell id="qmRQ7F4dCBqMSwzewYi--106" value="" style="shape=image;verticalLabelPosition=bottom;labelBackgroundColor=default;verticalAlign=top;imageAspect=0;image=data:image/png,iVBORw0KGgoAAAANSUhEUgAAAVUAAACUCAMAAAAUEUq5AAAA8FBMVEX////x8fGcnJzn5+f6+vre3t6Wlpba2trt7e2wsLDV1dX19fXk5OSZmZnb29v5+fn0+fzt9Pne6vPp8ffo6uwAZazJ3ezX5vEAbK9/rdEAaK0AX6jP4e7j7fW70uXJycmqyOC1zuOKioqjw90AcbJSk8NCi797qs9uosunp6eavNmJs9RnnciIsdNAgrlcl8V2dnbCwsJsbGwogLkteLSBgYE4erQAVaPp4t1Ujb94n8dSUlJnZ2dcXFuPm6XG0dexxNI6OjplkcAuLi5smr+3xc+RscqguMtOg7SdxeFDhrRYjLRhn8p8oL95mbeXuNigAUeOAAAgAElEQVR4nO19CXebyLZu2ZKsMTKDBZIMCAwUGCGIA3Ysn9PXeXmJne5OX/3/f3NrAgEChNRx4tPHe604GrYK+Ni15yoAeKM3eqM3Sqh3e/ZGf4/6u6gO8p8NTxrciU4DnvNWA6Z2E6ZRA55mTE3OuxHTxTD77myXoYBqr9dg0HEDnmETwIZNwOic/yCmdpPzBoPz4V7q9NKX6LjvSgZ5IVRPXiGq3QYDDUfDkzwN6z4Ytto/E9XXKKtNUO0Ni5+cFyEZZvXNybA5qjxXd+R/sqz2CoblpL+4GoCb7snNcHAzOu8sFr1/jRa9/vng5rx70z4I1ZlRd+T/VFltct69E81ISELvbwfvz077V6Pb27P3i9tF/+a3wYfu2e3i3fv+9e3NYbJqm3VHbiSrTQB7lbLqPDy4D5hcDML7k3/3+4v+1dWicwWuf+veXt28b529H92ejc5G7zsHoRpt6o7cSOvnZdVQS5leI6r59+Orwdl162qA/r9p907B6f+M3i1uBletm96if3qeQXV41mudnYzOMILlqFpO3ZGbnF1Br4ZaGdOr1AANmDKUkdX+zdni3ekNdl+7eVRP6KDT73UjNXGUC7Lq66VMjVBt/yimRpprxwcooczBTs5TVBc3V+D2eniFDvThutPN0GAw7nbHjxbMfZqn8WJc/WU6UI5pvF6WDThoMNJ4sf9gTZmanPdgdBANup0E1evrs5vT0z6W1UUftDPUa6E/QIFR7tMCdc9rvmR0Msq9DZdlAxaYymk8/EFMw26Dgc4HdVfOaNTLvElk9fy037oe9q6xsJfqVc2x6ibAET6AXaqoX6G1amQ0Rjnl29QH0L24Tk8d4a+u/VKm12etGkF/HKpLPRJrBj0itoJ2GdMrlNUXRNWXoFwz6OGy2n5DFUmWGko1gzbyV3OAcRCWMf13oWpxbqnXzuhwWeWCoCxf89+lVy2wqkuvHO4DcFHElzD9V8kqHwGvLr1yhKxGUVki4L8KVTEC+qpm0CNQhaXm7xWi+nL+qgCB4dYMerhnxcP1K0D11+pVGQKp1BNi1NgHSB0JHpY6Fa9JVtn5tQcNjnYUqooNhKhm0EYaYIS1aRJLiNApcypeE6qR0ICJ0VGoSiHgrJrKVdP8Kh8nJkqEyzLz94o0QDuiKuplZPUC/ZGQUl3W5K2b6lXRUtg7FZrLEqZXhCoX03N9OQ2guXj2CpWDNvVXVSvxelVolN2lV6QBOEtqwMQm3FGoGjP0p1QRUmqqV1XLY+9UKJUlrV4TqlOGap2sqlP6/3GoYmd19vdQxbIqWInXK0B5XcL0mjTAlF5vPaoWTZAepVdNXGFd6ZWDN40CZOuBvZPXall65RXJKj/R9jPJUxp3HyWrHp64pUabUtPKtWyF7J1ic7AkEfCaUL009jNJc+rUHIUqAdSrbgloKqtKYDP/TAnBusT6vSJUxQTVOg2gzan7dRSqMx39KXWFKDWNrRQ7EVDkAbsG2EmwvCK9qjaRVWNCTdpRqLr4APqscvCm1kpyAoaq5gN9Zey4Aa9IVtVLfT+TeUmVbyWqV1f9q1Ow02VBUPXxb7Xq/EpTDSCtbJZTQYMpoR3uMP24Lou/i6pwyexIHZPHBLpVjer71lUPdK6uR50MDQadzr39qdMZPYf39KN708yxdEaLzn7qLtAQD/4z/cXzl/vHOLaLTOPFqPhRepD0VZOjNWSqPFpn9DiZjfYy/TV/Jt8OuplPW9sO9pOzzv/rIVR3NABO4EEcvKVZKy8OCres20B6sAbQlxsmADqKrAInLOYWqmWV23rLzTRAg0aeWr0qT6gdqRXoWUSvp0oDtG/f9z9gkMv0KsTmWmGocrEYFMx3Uw1gbnRm8rCSlgTYHFVhmr78OXpVmcz2M7k2vZ6jrBVJ4AnMbUf/OwXXtVl/PfZ7NWbyiEPBBUWXtRpV5WejKk2c/Uy+S5mOiq1ifPUqy7Aa7k4Ku6msbkyJ5VRIXMEFxdaNalS1eXoHfg6qmuXuZ7KX1I05SlZJbpVnqG42SAnkp25TVFe6xBwJgmr7AFT1Sap1fo6/akTUQ6lFFeo0m3EUqnEWVdzPC/OKtam/6ugKc6Zo+AuLYUA1qt4kSc3+JFnVWXdNHRMHJWq4j0GVi7CN5yiqZNoWCqRNs9auJjPdQVM1OxXBalRXl2md6+egatrrvUxcJNyRF8ehSocg054YbqjkmJpqAF9LMlV0TcxORbAaVWeatnn8HFQ9N9jLxN+pMXlxDKoik1WCqob1s52Ho6kGCCURUteWpsD9Ysq2GlUfpn7Hz9Grm1kTVMWYD4Fg947wAaiAsdQdqYwU1ko01QC2wtNbw1B19AJTNaq2m7Z5UMD02nV1f19Wl0s6uevcRjXgoDHnpPXBqPYST7VNbYuHPU0/33XVNGe1lpnAgwci7KtiyrYS1Tb8PU3FEMBUq3RpEcgx7aFaVFce0XtKHRPShvb3ieAtK/MACZWgSk0MRw3/DCPxoOeYmkYByMgxVH2C6sYrYdolro3Uj7QGTDoJYEm+uIr+NqqOiVFtT8UaJhRu2lEshdoxqLJYleabiC4sTN2m1grdlziLqlls3ipHdWMiDSbcqSz9QABbTqpLvinTHqrVqw8GtiZ8LarIxoSBZwbCMdaKlUMpquRvYeo21asYVer4+8SJ0IvVa7O04ohUqoowNdiKDwJYOK9r/v4Bsvqg4WklTNQaJhRm+qGyjrijUKUBUahIPIuHClO3sayqSfwQElR3egIeSmtj4QwIAQ996sUQwES74NwVaS+qvL4nxNdwh61yKewyKYkHpM/AZ0+dw6M8K41evC+tTZYR8fLVlob9ABxC1aZg0P92EuEPRUVLaE0yD1HMtAcGTPFrm78boCrF9aiGEs4pSR+FnYuTpkm2HcEgi5wVHocqTTQ9aNBHXha+tMLUbeivclBMHH+qTXY6LdyiosXUDkI812DA2rMxYKZXv7Z+P6qa1a7Vq6ESIHuofZR3mGIt6eTbkALpnXcUqqwj2NHRdck2duML3awNNQCPUHUpGBTVJCuQkl9WG+PuILZr6xlLG2DAHKOmkJ4w1ZI+5erTUTJWVublDqpyACDLClHzgrzEYzKBrLo68+xQouKl5eHYPTtuWSwPIA3AoziClGsTL43eogyFZbUxPorbSJGvpYAaKAxYqHilyiKlvaguJ2I9qgJOdiwvlSITOhWmxhIROS5iZRewnNmGQ1VhIcG6K6vCzmIKpAFEpD2onWMRhVosBoRlzVcyjNrIjIkgoBeDAbOFmkJ6wlRL7qVan+RTsT10J0pxQTn6OGk5SwP3Y1Cl8gW80BehR7SBnFauyIYsJWYy3knztwiIpLmI2C3843R5EJ1S7d2qK8C9A1AkXvKaXgQCDOmS0p7CLe1FdT2VazUXVPHh7EgroMpZqZ/NBUkkcgyq7JaY8Qz4tPwlpKgS1bJ7dtK0FNU2bYQjdgtgVBkXCmHox2UtbZrjK0RjsOwDAgwFBDWFdMZUTwHU6mLCdiR+Rpcd2EYBVZxdYlOVu0uE4hhUmeeuT0yg0bYC9S753sUzOo+q7iUFERWD5FNtiDSAsE68NI4qCO6Ooap+JEwcLFZvyXgrx7jDCpiVyxBg8nrXf8hTParoxCLXrEeV/4wuNfquF8I9rA5ZlCcGe1G9+ffit/Iaa5IRMSYakn9y+WKcfG/jGZ1HFXdl6xN8J2QcDd1RSUeyipsraUTBhkzLgcpHEyzxx3clmShvs3GIDC9ppxcCjDRpVOABEqYa0iZchJzNGg2AzhChykUz8z7/BdZFZKpJkpy2NVahev5hcd26apWhqrKcqIaLHCp5zaeoBvhK8/d8iYDz5qTYjQujMZ23GNUwcVGTG0UVgQT02BU+6hWoLnU9Ih6XiW6XwmHAvA0ZrIZqUG0jc3OpBNpDPargwUDuh+cRVIW0wkZW39no6nxnO12qUB1+GPz/3lkLDP593Rl0B2x3DLJDyCebvnu2Hukn6HU8pkzj+EunO14MthtqdDtf/rwff5l+7Q7Gz3PEYT3d448Hi+7X9bj7CWKuxwgP1B3Dr/ib+eMXBz758aAbR4+7+3iEz8+Tpw568fzn/X303FkM7r88d77CQYGRDEk/HHcX+EQHg+R8syyPk24Av3z7ur6/GZexkDeD+P7L0/1j9PQX3kbkPnyiv+12p/jbb+i8rT+fvuDf418v6H/kiINxRgOcnl3fXrXLdrNhAStQrPSGoTtJjTxnYSnKK3QHSZFL+r8NpAe4KdWGSFYVP8nVshoYTYDxE+mzDGNhZXJxUJLfQ04y7dCVkB64M3CfFYrQSruKGfHQHFXLqnr5e6DFD0gf1clqjF0fZa2tiKymCQpavw8VZLHWm7T3tDoT2AMneHYXNMBJL21clbf1ai4Sqdnip1hP5jWAiyxkGOGvzYkMxDn9+UmLzH4xhypJ1gqXs0Bcx+g4XFy2DhMK8pSArSAjYXkIVQ6xiTuNL1sK4KYGVTm2fPXjUg3yEWteoyAdt/KA9FlzCKpuEnOQAhNwNbDSXagn3Af6ANzTRRpBZBeyRcqEDC/M8X/5e+4j4NYh/tHmUgHChDp3SFaxM0Tq35K27S1AYEVRBFY+8gK56I+dTJSifRNFej9l5HmgudFpq8j48mW92gyRyFjVoCqFa52bm3zEZaWBm+SYkD32PD10tAeCqp+IJY2IkBgH6nKSVu8ORRVFiYn8tDMlQGhCUiKUSE96XlZDyHFr5AXJpNysXNK1AEhWieOON3Bxp8yDIhkG3UEOlaii/zn4x846zM005tmRhZjMjQ4xW6Ud8JRUqDk1qGquwGMbGvPZ8xZ3UDVhoIkM1TBJ+3wnU3TpcZAztonzQ/3VtQzKtlyxXW+NxUqLdlFdBxxvrzx0Xs5UAxIVapwHIH3FuA/GN5maIlmapf5g0zei/edOfm+2NJNkARpRndpIVkk4sNP4kpIMpYcaVMlBdRXEanaOCfPcXUIeuYGdaIZqsqURZxEuc4XiRHkb6RyKqq1wZbtO+FAzMUZ6iBMkOQ3QhhEvhN5GsEi5WWOdNSgKIIEe9kxS7Snh7x4MjUwrzVftP3fye5k8KmdxcgS5jkjc3J3Gl5SkUPLvq1FN0ph3QtbKKpPceMjRJz1h2meMKgdZJOdQTWA4sg04PwXmUFRxY0QZqnNJ+Yb+95w1V5BVDkai4usr5KyG35fAtGl4h/QqSd7hfE8KiIzHZuE9AkMOv+j09SoVxGwnhsVJdsCNyL0AxXbPLWkPtagmKfe1lEVV2s5nT952QEprHFtxAZ1wSQef5OeDkENRnely2Rp2dyKTto2Vh3HJySoPI1VyjZU0520UECwden4IVWL28J80oUXSK4nkyrbi/0VtrTiXgEFvZnapS4zU3Fq9pysUqnctMh6UsAbVpDy08rJhk7Zt5FrPyOJ9QgokssomXOJkyraUS0MciqrnKWUBtzMVAVYxrhYUZZWHUNAcbaVNBNwy5/5OQzOEKhG7pQ5A6qLh/EQ70dsClPwnKkfe3ABsHWkOVdVYuco9dfWqdy0yl7KN9GqVhkhKmVqYRzUdb40iv6QHWoFYoPnIZmiwU7Xze3sciqqx0sry8yurDe5knM7COi4nqyJcC/pKmumXEkQe5lqi0SnSq6QAYG5AO90eD9cW0+hXhJr7TA8WuCaYkpdcVn3eCeZmZdxTWKoLVytTgKO2UroLEdg2M4hR9ryNeTreGhpU4wMsswTVmCbTkmOqdr4UcSiqkmuWJd2XMW1gCWRsinOxlQp92fMkx5sYAdISgUznO0KVpPOMWSaLgIFWk3dcYDjPZGIpobEEFu2ZgxlTv1Y80zPvHWLSdtqJUnINFaE6i6tQTSxi9Jj5FE8Pdh5r3WfePnbS8cWJFkU1WXcu2t9z9/RQVGV/Vnb2HqTJjjsVyRL/V/Yr1XYkR1P8ZewFyBeKVZpIHLao2KFQIBNOIB8pzYBzgT77Si5mZUqOCIloi1m31DFWhr66p01v1YWrtSTC0UUUVaCa9sw5WF48dteWFr1OU+CgAtP0rUoEWrSoyU5uFF8onB+KqhCW6i/PJ2E5F/PIaCh32fKTYG+MUJZDx54FKJqOxTsyh09aFCCksJSt/UMCl65l4wJv9Ui+ilQlVHyixHIeiL5yJM29p2dUXbgKZC5q6b5d4dCmrXf6A4732TAOpC9sDcXDAZcUcHiKakxOQ0zEoW3HOQ/kUFRVu3S3BUEhboYacchT0uktZEIlh6a5FgX7+8wO0M21OFLEE09aNKOIXBZpu/EwCllXCTrcevXUhZRFgNqMmNmcByJ99mUlbMGkmYArl8ZYbUctR7crzFVabcJ2no+ZsXe/U1d0bfBQDLjEpHERNsVCRCUidafWcW7wQ1EVYVwZw2D3EZviFWFJ9Lvk647NowmsxzaSuhjgIMyYSj2B6CY+yrasoMAgFZ02CthagU7cdD4yPZK+VLKoqjAQkMqkBVokOG65EkAh7l3LRROm/LTTyYuXN6DzpCCHDrWOgS5CjhXKQIKqDInga+mJh/lq56GongQ7db2U7gQ0h9DhXYuYIXbTNVezQ44PoDL10WSMMWxS4D/32J2eAn1bHkXR43YuhKHZ4yONCJO1NIiYSjlvO7JELhixCgKUrFIlgMBq3418KazoGdouakCBBIpXKFTQI5qUjzykdHwpWRoKYrzmWrJtcSWh8D/5pZsPjQ5FdfitykHBah/pNmSQbVJ2WSYrh2ZSjCbnXaROXeSkBNjv32y0sMcMgJXViOKdunUIUIDbQzCq2MxEoUTCm3znQWDxXNBlBQM9tnJOY0J8hLy+DgopylHltnvp/amhecP88cgIcZFHtDaCDVZ6etUEVe27rYZmpjfcyYdGB6P6R1nZk5K5Qf7bTOdsiCdR0lyGfPCJg1CNRXTRqibjJKpj8HGPGYBIXGaCfdvbwubGRguH3JgPxjKxDfkuGR/NWfiVXbE8WZbWWbGLEXTXgl8eJnDbyfu/G+BhEJGiAbFk81MOqNMVmiPm7FsOVcMNBXsGtvdjmc/GHozqn9W1TOkBBT4rXfxMnGPIfHvPkycbvBUoz8wrskhQRoaVzR9bzu6L4823gjubGj3cLoJn6Pc5z+HblG9x3aCPwqfkPht59ZAQTm4Hj1CsCBO47WbSyDue6bgQLM45S4A4OS5MHKSptCiVRYKqvgpl2wdbX83Lo3Iwql+quxlUvN0n8i1dss4nmNJjLk1hroM2XLcDakwQMEg3uxp13tELNyNE8uX22pcTrYVGJQd05oCgmvefDASY8yXFUi6tsuBCzPprwFegym9R/QrR2eCigjRRIj6S5gpQ5i6ykso8veoAhwqm50ooZITpL7W8Rj8Y1afqjUGABXGuQveecI3cZmZtZqi4aLUOwVonH+gPeOWKOWNgrvSsGWlnHDdvrqVbNHoWLcPkYxAM2OaPdN6rESgh7TOaEJ8CzinvGtyi2h4HXCjxCFVv/jvkIlya1yKMqjpNUSOobkxXg0H51MB01DrWKoI+rtavDBy9Kz6zrY4mYp/AdsFnnXxgPGAfCSlaCqbm2lkPOGMLvYmUoqpHCHAu0yBGCd0400oTE3wpqtioh5/uQGlQiA1k8qo9grIt4Jh47boQWF7kAd32tQfATdPfwq8AS8KDbkOvcjePalQH5zc4lXjIU8PwimNz5SqfXE6VZt+pLLoS2Q4QN0hT4dV8nOA5f056zq3SbYIRmXMlRVWD1Kzsmhxjks4ebvcpBrwIZkjO3Kcg4wflaNvN1O6svDWPAmkOaoENLBddj+diV4uL08PanwCef87mIax+cFIlquN/XV/fnpfvEFJFkoTN45r/6ivW0mRGCDk0uCaS1s+AGEQGzgOYTCzDqo0c9bmcoqrqtAdj15WXJtuLmxa/BJuQZMGdv+BOSMuOulXG7Y6AN5CwBTkUrBBEUIdgtglxg56Z3vjwE8Dzb+U4y3ll7rGyd+Xs+hZ3WYyurlvZx4p0u62qJ46MRq3WqPUJfut9XXvW9PmvJ8zasr+ij0ct/6mXcHXuHtGfQYuO1HqyyodsPU8fB8lXLcQNH1utb49Frsf5c8LUszqFoXphMIzRz9wvf/SenOyXrY49Juf3CbKPW6NF6xts9daPz3+N4rAXxY9xz3+2Z6veqJUeInzujXpfPj3Zfz3NHyuwaA3GmW9aW1R7t//6bXB1Ak76/dzDBkedk3rSpu7wMbS1QPGeyC9thTyV0DG345yjf61x8k6wio8zZA8yNKaP4+wHUDnpQbnIdjHVk98PI6E4RmCdxBcnw9Wf4dB0cseRLTLUUAuTj3uDoekPh+HjzGxHThtaJ9FFqKG4Oft0Rf95iP5oXrTUrIsqEMaj7Dnk9GoLP6Dt4KcxymhCPsJI5YFO5zwzWsUnDWb2ta5KLEiWmmvAs5V8epVSstkkOVZRP4hRJBOHDDkKhTZ7ZUKZtx/jrmBcz5CQ8rZXwI7QuYeK/V3P/sx5Bli763NTjiq3lzluZ/saEpC26ZLd/1kTZUXts8HTGJUCqr60242NY6MtqkkrOWgz8JXPD7+TKmXkpIlnRjotTPHblSKs13pmoGDGWYIQoiPagm3n3I7ZE8AdQMbEaFeq1R+PqmqJYAyxJ0cLZF5Fp06D5wYKsZhjQg5uWSlyub1taWAusXyy55kRRs1E0TJyL7PCNbNIU1ewTHM7DNWNZ6vY8Lou8gBsMYS56GGJUbXlTFmrhH44qvyaAyOyVQ5J2hk7O9QwaoCqGIu5ZtEHrXTr90wTZeroS5dU/XzWpI86wB1eG3RH1Ky0UsdIsOLUNWB9VrpL6w3OCnlUKC6IclkZ7BFwtiBN6lbN/XBUscNyT3KkAhT0Ev+SUQMNwEd5WZ0Zu6uyQQ7VZHssYIRrogMiWfiIL1+/9ICwlqdbrczBGb71UjRPh2SyqrG9QPCxUEjsT3NpepyIQFpNqV3h+eNRRTRWSf0BbqagqgTX6MmhQn518EoHZTnSDKpppVLfEG+ZiznuI1YQBrKh6lrabiuCzo7IvTFbF1FVLCrSxL4KwM2jajyQnnC5duX8i6BKz46LIJxVPlag0RaAeSbPLG6bQyiDqpFktDyPFAdxslbH77WJgVA1rW0SQwlJ1txcyemQDFV5notEnWkOPwWSZhChuiQCXkpW6X9xpLCNIEvoiGcHex5fZvoyqKYLWVY6aXtI14FpEw2IoeNs8yH6jCRSN5lkEdOrwjQXhC3zqOIyDEG1bu+MF0V1BUqfWUPoiOdc6yuhLNWXQTXNIjkaAdhMpE5CJptHsQmre0tLdItUjGq2i4DJ6nZneEIbKy+Vd6KO4lq1uIwxRy+KqgSqb+gRqCYrEQuUQTWtFfoSmd/pHhvKXAG8HQlsb6cVLpqQ7uzsBjoMVT7OKW+zUKj7Qwo1DtRcGXhRvQpqd5c4Qq9qbmnNP4Nq2q9hyyReWCeYyVMZWe5YZKJp4/Q06c7ORmMMVS7OmXe9gOr/zmp65Rm9pKzW0hFPD1d8p8xPy6CaJljXAlkRl6bABaQcuXXMsQLNNMIuH4r6cpvoJesC8tsNGYWel+dp9SbJCf0yVI+wVjL0y5zE7FKqJBUYqLj3eluSwhEfsAO2vAs/pBcFtygwTVcjYipfHawVispf55Vtcin9J6EqRKVNPVlUsXVc6iQJY8uuvl20jKdxuGbJVG8TofAId+OLWcjKUZUKFnJQ3RCR0n+SBuCnpd5vFlVXA3IMvTZSmc4ysNIIlfTv+z5b6WJLUEC4IyUgw72oKnlUX/BpjHuo6VMY9jMVUC0tv2VRNTcAaiLEpsqb6NxWYXxCTP6Kbcgb8baCOBwj3wpTvkMIlw/nXjeqR3hWvFVqJ7KoSjaa4zxUbA7oc7HA5JusVc1q+1qA1/Pk1783exrjiz2JaR+9kAbgWEtpgbKocjFOW9maDYDkFJlWGqt8z/GeMSRGyD304Fc/5XYPvZAGyFQ6s5RbTh3FZP3WjqpImHRnJeLHyS4hWS2ZDVibPY0RvG5ZPQLVqDT7lkPVxxK6cnfalhImZW5JfIx3NyG9sLn2gl/97OA91HRPy71UCMCk0tg7h6qMlSnN/5cycdLMECAKmBzSt21n79NP0ADdMRhgBF+RXq2g3Q0VpMnOhkFbJs9EMqrNl2S/p9wyzWZPuf07GqC9OD29vhoe1mWR0AtFARW0+xwWeb6TL9iiamwkl1SC8TKMXEjfTK/+PQ1Auyx619cnF73eRa/V6mHqdHq9Vg+/vmj18BfoXwu9RH/wX/Qf+jPoEaZWL+ElL9hrxIF5Rl38l/ye/Ih+Ssa4oN+glyM80kVulBb9hLwmP+sNWoSXfniBBxtb3gllSX84oCeD6NPDJ/fkcfKMXvqzkI1GLuFicJE51/Rl4f9FnoPi0kpP7gL/6XboVZDxTjKo9vv9wVUPDPvXmR6D3v4uC9xWMNjPc9LqHs7UK3mFjtY7KdBFpBcaN7ZMQ81/3gwvJtrwZLgMco0XvUGx3aNX8m4xLH60c/zKLovz23fjs2O6LJpOkpfUACDYSYBsNYBseyZyfXHEZExymuIXPj28rtMyoV9trYC3k9rdMokQRQI0h8r2b0momWf1Ys8O3kcv5VmV04E723MRzv+TxVdyvnz6D4hYf6AGOPB5ARHuGyK2X8wXSv8BEesRsVUFHYpqsF0dmY/VfqGs/igNcETdqoIORdWeV6Sdf6Fe/YV5gAo6FFV3XsHzyn2An+xZHYjqarfPndI/wVr9Mg3gxRU8r9xavW4NYJSuHwKvPhP4ulHVqvZpfPmc1XaQf5y/qlStGf2FGuCHxVa/DNVK+ifo1V9mrSrpF9at/vM9q0p65bL6pgEOXcne4CncoAkW501uT7sJU5Oj/UCm4rMtyqiXQ6kE1fGH0yydnZ3up6sGPO+aDPSuyUhX734YUwOeRkxnuaOd7aIKWlnq3fRbe6l3O9rPtDjt7WcanO1n6l0NGuRTDVAAAADISURBVJxSE6bO+wanNPpwsv9opzfZkfZP704TtdLfzwJaiwZMvSZMN02U0s3Jfp7zJufdvm7AtGikS97ojd7oODofZpyDJo7VGzWg25vRaNDqgkEHqbDbQWcAOoPOaDh4U2d/hz5c93+7Pns/eP+hf3Xxfrz4sHiPvLD+2W3d0rI32kO3i/7Von/97no87J+dta6u+9eLwbv+4LSJO/BGFXRzNeh3Fzetd6edq8VN//pscTMY3/Rvm3g9b3QYvanVN3qjN3qV9H+SR4L8BIaLNAAAAABJRU5ErkJggg==;" vertex="1" parent="1">
          <mxGeometry x="947" y="285" width="230" height="39.06" as="geometry" />
        </mxCell>
        <mxCell id="qmRQ7F4dCBqMSwzewYi--107" value="" style="rounded=0;whiteSpace=wrap;html=1;strokeColor=#6c8ebf;align=center;verticalAlign=middle;fontFamily=Helvetica;fontSize=12;fillColor=#dae8fc;opacity=60;container=1;" vertex="1" parent="1">
          <mxGeometry x="972" y="284" width="189.82" height="36" as="geometry" />
        </mxCell>
        <mxCell id="qmRQ7F4dCBqMSwzewYi--108" value="" style="endArrow=none;html=1;rounded=0;fontFamily=Helvetica;fontSize=12;fontColor=default;entryX=0.25;entryY=0;entryDx=0;entryDy=0;exitX=0.25;exitY=1;exitDx=0;exitDy=0;dashed=1;" edge="1" parent="1" source="qmRQ7F4dCBqMSwzewYi--105" target="qmRQ7F4dCBqMSwzewYi--105">
          <mxGeometry width="50" height="50" relative="1" as="geometry">
            <mxPoint x="1194" y="271" as="sourcePoint" />
            <mxPoint x="1194" y="236" as="targetPoint" />
          </mxGeometry>
        </mxCell>
        <mxCell id="qmRQ7F4dCBqMSwzewYi--109" value="" style="endArrow=none;html=1;rounded=0;fontFamily=Helvetica;fontSize=12;fontColor=default;entryX=0.5;entryY=0;entryDx=0;entryDy=0;exitX=0.5;exitY=1;exitDx=0;exitDy=0;dashed=1;" edge="1" parent="1" source="qmRQ7F4dCBqMSwzewYi--105" target="qmRQ7F4dCBqMSwzewYi--105">
          <mxGeometry width="50" height="50" relative="1" as="geometry">
            <mxPoint x="1029" y="240" as="sourcePoint" />
            <mxPoint x="1029" y="200" as="targetPoint" />
          </mxGeometry>
        </mxCell>
        <mxCell id="qmRQ7F4dCBqMSwzewYi--110" value="" style="endArrow=none;html=1;rounded=0;fontFamily=Helvetica;fontSize=12;fontColor=default;entryX=0.75;entryY=0;entryDx=0;entryDy=0;exitX=0.75;exitY=1;exitDx=0;exitDy=0;dashed=1;" edge="1" parent="1" source="qmRQ7F4dCBqMSwzewYi--105" target="qmRQ7F4dCBqMSwzewYi--105">
          <mxGeometry width="50" height="50" relative="1" as="geometry">
            <mxPoint x="1077" y="240" as="sourcePoint" />
            <mxPoint x="1077" y="200" as="targetPoint" />
          </mxGeometry>
        </mxCell>
        <mxCell id="qmRQ7F4dCBqMSwzewYi--111" value="" style="endArrow=none;html=1;rounded=0;fontFamily=Helvetica;fontSize=12;fontColor=default;entryX=0.25;entryY=0;entryDx=0;entryDy=0;exitX=0.25;exitY=1;exitDx=0;exitDy=0;dashed=1;" edge="1" parent="1" source="qmRQ7F4dCBqMSwzewYi--107" target="qmRQ7F4dCBqMSwzewYi--107">
          <mxGeometry width="50" height="50" relative="1" as="geometry">
            <mxPoint x="1059" y="270" as="sourcePoint" />
            <mxPoint x="1059" y="230" as="targetPoint" />
          </mxGeometry>
        </mxCell>
        <mxCell id="qmRQ7F4dCBqMSwzewYi--112" value="" style="endArrow=none;html=1;rounded=0;fontFamily=Helvetica;fontSize=12;fontColor=default;dashed=1;entryX=0.5;entryY=0;entryDx=0;entryDy=0;" edge="1" parent="1" target="qmRQ7F4dCBqMSwzewYi--107">
          <mxGeometry width="50" height="50" relative="1" as="geometry">
            <mxPoint x="1067" y="320" as="sourcePoint" />
            <mxPoint x="1069" y="380" as="targetPoint" />
          </mxGeometry>
        </mxCell>
        <mxCell id="qmRQ7F4dCBqMSwzewYi--113" value="" style="endArrow=none;html=1;rounded=0;fontFamily=Helvetica;fontSize=12;fontColor=default;entryX=0.75;entryY=0;entryDx=0;entryDy=0;exitX=0.75;exitY=1;exitDx=0;exitDy=0;dashed=1;" edge="1" parent="1" source="qmRQ7F4dCBqMSwzewYi--107" target="qmRQ7F4dCBqMSwzewYi--107">
          <mxGeometry width="50" height="50" relative="1" as="geometry">
            <mxPoint x="1079" y="290" as="sourcePoint" />
            <mxPoint x="1079" y="250" as="targetPoint" />
          </mxGeometry>
        </mxCell>
        <mxCell id="qmRQ7F4dCBqMSwzewYi--114" value="Forecasting &amp;nbsp;Time series" style="text;html=1;strokeColor=none;fillColor=none;align=center;verticalAlign=middle;whiteSpace=wrap;rounded=0;fontSize=15;fontFamily=Helvetica;fontColor=default;fontStyle=1" vertex="1" parent="1">
          <mxGeometry x="920.0000000000005" y="324.05999999999995" width="310" height="60" as="geometry" />
        </mxCell>
        <mxCell id="qmRQ7F4dCBqMSwzewYi--115" value="T1" style="text;html=1;strokeColor=none;fillColor=none;align=center;verticalAlign=middle;whiteSpace=wrap;rounded=0;" vertex="1" parent="1">
          <mxGeometry x="294" y="219" width="60" height="30" as="geometry" />
        </mxCell>
        <mxCell id="qmRQ7F4dCBqMSwzewYi--116" value="T1" style="text;html=1;strokeColor=none;fillColor=none;align=center;verticalAlign=middle;whiteSpace=wrap;rounded=0;" vertex="1" parent="1">
          <mxGeometry x="294" y="254" width="60" height="30" as="geometry" />
        </mxCell>
        <mxCell id="qmRQ7F4dCBqMSwzewYi--117" value="T1" style="text;html=1;strokeColor=none;fillColor=none;align=center;verticalAlign=middle;whiteSpace=wrap;rounded=0;" vertex="1" parent="1">
          <mxGeometry x="294" y="289" width="60" height="30" as="geometry" />
        </mxCell>
        <mxCell id="qmRQ7F4dCBqMSwzewYi--118" value="T2" style="text;html=1;strokeColor=none;fillColor=none;align=center;verticalAlign=middle;whiteSpace=wrap;rounded=0;" vertex="1" parent="1">
          <mxGeometry x="354" y="219" width="60" height="30" as="geometry" />
        </mxCell>
        <mxCell id="qmRQ7F4dCBqMSwzewYi--119" value="T2" style="text;html=1;strokeColor=none;fillColor=none;align=center;verticalAlign=middle;whiteSpace=wrap;rounded=0;" vertex="1" parent="1">
          <mxGeometry x="355" y="255" width="60" height="30" as="geometry" />
        </mxCell>
        <mxCell id="qmRQ7F4dCBqMSwzewYi--120" value="T2" style="text;html=1;strokeColor=none;fillColor=none;align=center;verticalAlign=middle;whiteSpace=wrap;rounded=0;" vertex="1" parent="1">
          <mxGeometry x="355" y="289" width="60" height="30" as="geometry" />
        </mxCell>
        <mxCell id="qmRQ7F4dCBqMSwzewYi--121" value="T3" style="text;html=1;strokeColor=none;fillColor=none;align=center;verticalAlign=middle;whiteSpace=wrap;rounded=0;" vertex="1" parent="1">
          <mxGeometry x="415" y="216.5" width="60" height="30" as="geometry" />
        </mxCell>
        <mxCell id="qmRQ7F4dCBqMSwzewYi--122" value="T3" style="text;html=1;strokeColor=none;fillColor=none;align=center;verticalAlign=middle;whiteSpace=wrap;rounded=0;" vertex="1" parent="1">
          <mxGeometry x="414" y="251.5" width="60" height="30" as="geometry" />
        </mxCell>
        <mxCell id="qmRQ7F4dCBqMSwzewYi--123" value="T3" style="text;html=1;strokeColor=none;fillColor=none;align=center;verticalAlign=middle;whiteSpace=wrap;rounded=0;" vertex="1" parent="1">
          <mxGeometry x="414" y="285" width="60" height="30" as="geometry" />
        </mxCell>
        <mxCell id="qmRQ7F4dCBqMSwzewYi--124" value="T1" style="text;html=1;strokeColor=none;fillColor=none;align=center;verticalAlign=middle;whiteSpace=wrap;rounded=0;" vertex="1" parent="1">
          <mxGeometry x="320" y="66" width="60" height="30" as="geometry" />
        </mxCell>
        <mxCell id="qmRQ7F4dCBqMSwzewYi--125" value="T1" style="text;html=1;strokeColor=none;fillColor=none;align=center;verticalAlign=middle;whiteSpace=wrap;rounded=0;" vertex="1" parent="1">
          <mxGeometry x="320" y="98.5" width="60" height="30" as="geometry" />
        </mxCell>
        <mxCell id="qmRQ7F4dCBqMSwzewYi--126" value="T1" style="text;html=1;strokeColor=none;fillColor=none;align=center;verticalAlign=middle;whiteSpace=wrap;rounded=0;" vertex="1" parent="1">
          <mxGeometry x="320" y="133.5" width="60" height="30" as="geometry" />
        </mxCell>
        <mxCell id="qmRQ7F4dCBqMSwzewYi--127" value="T2" style="text;html=1;strokeColor=none;fillColor=none;align=center;verticalAlign=middle;whiteSpace=wrap;rounded=0;" vertex="1" parent="1">
          <mxGeometry x="410" y="63.5" width="60" height="30" as="geometry" />
        </mxCell>
        <mxCell id="qmRQ7F4dCBqMSwzewYi--128" value="T2" style="text;html=1;strokeColor=none;fillColor=none;align=center;verticalAlign=middle;whiteSpace=wrap;rounded=0;" vertex="1" parent="1">
          <mxGeometry x="410" y="98.5" width="60" height="30" as="geometry" />
        </mxCell>
        <mxCell id="qmRQ7F4dCBqMSwzewYi--129" value="T2" style="text;html=1;strokeColor=none;fillColor=none;align=center;verticalAlign=middle;whiteSpace=wrap;rounded=0;" vertex="1" parent="1">
          <mxGeometry x="410" y="133.5" width="60" height="30" as="geometry" />
        </mxCell>
      </root>
    </mxGraphModel>
  </diagram>
</mxfile>
